{
.appVersion = "1348";
classes = (
{

glyphs = (
{
glyphname = .notdef;
layers = (
{
layerId = "ACBF538B-D069-4B9F-8DD8-08CC286AACA9";
paths = (
{
closed = 1;
nodes = (
"505 0 LINE",
"505 714 LINE",
"95 714 LINE",
"95 0 LINE"
);
},
{
closed = 1;
nodes = (
"146 663 LINE",
"455 663 LINE",
"455 51 LINE",
"146 51 LINE"
);
}
);
width = 600;
},
{
layerId = "07EDFDFD-5D57-4B5D-B56C-4C47BCD544BF";
paths = (
{
closed = 1;
nodes = (
"505 0 LINE",
"505 714 LINE",
"95 714 LINE",
"95 0 LINE"
);
},
{
closed = 1;
nodes = (
"146 663 LINE",
"455 663 LINE",
"455 51 LINE",
"146 51 LINE"
);
}
);
width = 600;
},
{
layerId = "939FCF6B-2DD7-48E5-8D7B-BBFD097386C5";
paths = (
{
closed = 1;
nodes = (
"505 0 LINE",
"505 714 LINE",
"95 714 LINE",
"95 0 LINE"
);
},
{
closed = 1;
nodes = (
"146 663 LINE",
"455 663 LINE",
"455 51 LINE",
"146 51 LINE"
);
}
);
width = 600;
},
{
layerId = "419046E3-5D27-4998-A2CB-16719C068B75";
paths = (
{
closed = 1;
nodes = (
"505 0 LINE",
"505 714 LINE",
"95 714 LINE",
"95 0 LINE"
);
},
{
closed = 1;
nodes = (
"146 663 LINE",
"455 663 LINE",
"455 51 LINE",
"146 51 LINE"
);
}
);
width = 600;
}
);
rightMetricsKey = "=|.notdef";
script = "";
category = Separator;
subCategory = Other;
userData = {
com.schriftgestaltung.Glyphs.ColorIndex = 6;
com.typemytype.robofont.layerData = {
background = {
anchors = (
);
components = (
);
contours = (
{
points = (
{
segmentType = line;
smooth = 0;
x = 505;
y = 0;
},
{
segmentType = line;
smooth = 0;
x = 505;
y = 714;
},
{
segmentType = line;
smooth = 0;
x = 94;
y = 714;
},
{
segmentType = line;
smooth = 0;
x = 94;
y = 0;
}
);
},
{
points = (
{
segmentType = line;
smooth = 0;
x = 145;
y = 663;
},
{
segmentType = line;
smooth = 0;
x = 454;
y = 663;
},
{
segmentType = line;
smooth = 0;
x = 454;
y = 51;
},
{
segmentType = line;
smooth = 0;
x = 145;
y = 51;
}
);
}
);
lib = {
};
name = .notdef;
unicodes = (
);
width = 1229;
};
};
};
},
{
glyphname = "candraBindu-gujarati";
layers = (
{
anchors = (
{
name = _topright;
position = "{0, 592}";
}
);
layerId = "ACBF538B-D069-4B9F-8DD8-08CC286AACA9";
paths = (
{
closed = 1;
nodes = (
"106 684 OFFCURVE",
"177 740 OFFCURVE",
"198 861 CURVE",
"125 880 LINE",
"109 787 OFFCURVE",
"63 750 OFFCURVE",
"-1 750 CURVE SMOOTH",
"-79 750 OFFCURVE",
"-122 796 OFFCURVE",
"-147 869 CURVE",
"-186 856 LINE",
"-160 745 OFFCURVE",
"-69 684 OFFCURVE",
"9 684 CURVE SMOOTH"
);
},
{
closed = 1;
nodes = (
"25 800 OFFCURVE",
"49 814 OFFCURVE",
"49 857 CURVE SMOOTH",
"49 900 OFFCURVE",
"25 914 OFFCURVE",
"-3 914 CURVE SMOOTH",
"-33 914 OFFCURVE",
"-57 900 OFFCURVE",
"-57 857 CURVE SMOOTH",
"-57 814 OFFCURVE",
"-33 800 OFFCURVE",
"-3 800 CURVE SMOOTH"
);
}
);
width = 0;
},
{
anchors = (
{
name = _topright;
position = "{0, 592}";
}
);
layerId = "07EDFDFD-5D57-4B5D-B56C-4C47BCD544BF";
paths = (
{
closed = 1;
nodes = (
"110 684 OFFCURVE",
"171 757 OFFCURVE",
"189 861 CURVE",
"161 867 LINE",
"149 770 OFFCURVE",
"92 708 OFFCURVE",
"3 708 CURVE SMOOTH",
"-90 708 OFFCURVE",
"-149 764 OFFCURVE",
"-174 861 CURVE",
"-195 856 LINE",
"-173 757 OFFCURVE",
"-105 684 OFFCURVE",
"4 684 CURVE SMOOTH"
);
},
{
closed = 1;
nodes = (
"15 835 OFFCURVE",
"29 844 OFFCURVE",
"29 869 CURVE SMOOTH",
"29 895 OFFCURVE",
"15 903 OFFCURVE",
"-2 903 CURVE SMOOTH",
"-20 903 OFFCURVE",
"-33 895 OFFCURVE",
"-33 869 CURVE SMOOTH",
"-33 844 OFFCURVE",
"-20 835 OFFCURVE",
"-2 835 CURVE SMOOTH"
);
}
);
width = 0;
},
{
anchors = (
{
name = _topright;
position = "{0, 592}";
}
);
layerId = "939FCF6B-2DD7-48E5-8D7B-BBFD097386C5";
paths = (
{
closed = 1;
nodes = (
"130 648 OFFCURVE",
"207 733 OFFCURVE",
"229 851 CURVE",
"95 886 LINE",
"80 802 OFFCURVE",
"38 756 OFFCURVE",
"-37 756 CURVE SMOOTH",
"-109 756 OFFCURVE",
"-151 798 OFFCURVE",
"-175 875 CURVE",
"-253 848 LINE",
"-219 738 OFFCURVE",
"-147 648 OFFCURVE",
"-2 648 CURVE SMOOTH"
);
},
{
closed = 1;
nodes = (
"1 813 OFFCURVE",
"29 833 OFFCURVE",
"29 879 CURVE SMOOTH",
"29 925 OFFCURVE",
"1 945 OFFCURVE",
"-40 945 CURVE SMOOTH",
"-81 945 OFFCURVE",
"-108 925 OFFCURVE",
"-108 879 CURVE SMOOTH",
"-108 833 OFFCURVE",
"-81 813 OFFCURVE",
"-40 813 CURVE SMOOTH"
);
}
);
width = 0;
},
{
anchors = (
{
name = _topright;
position = "{0, 592}";
}
);
layerId = "419046E3-5D27-4998-A2CB-16719C068B75";
paths = (
{
closed = 1;
nodes = (
"120 664 OFFCURVE",
"194 736 OFFCURVE",
"216 855 CURVE",
"108 883 LINE",
"92 796 OFFCURVE",
"48 753 OFFCURVE",
"-22 753 CURVE SMOOTH",
"-96 753 OFFCURVE",
"-139 797 OFFCURVE",
"-164 873 CURVE",
"-225 852 LINE",
"-194 741 OFFCURVE",
"-114 664 OFFCURVE",
"3 664 CURVE SMOOTH"
);
},
{
closed = 1;
nodes = (
"11 808 OFFCURVE",
"38 825 OFFCURVE",
"38 870 CURVE SMOOTH",
"38 915 OFFCURVE",
"11 932 OFFCURVE",
"-24 932 CURVE SMOOTH",
"-61 932 OFFCURVE",
"-86 915 OFFCURVE",
"-86 870 CURVE SMOOTH",
"-86 825 OFFCURVE",
"-61 808 OFFCURVE",
"-24 808 CURVE SMOOTH"
);
}
);
width = 0;
}
);
unicode = 0A81;
script = gujarati;
category = Mark;
subCategory = Nonspacing;
},
{
glyphname = "anusvara-gujarati";
layers = (
{
anchors = (
{
name = _topright;
position = "{0, 592}";
}
);
layerId = "ACBF538B-D069-4B9F-8DD8-08CC286AACA9";
paths = (
{
closed = 1;
nodes = (
"29 709 OFFCURVE",
"53 723 OFFCURVE",
"53 766 CURVE SMOOTH",
"53 810 OFFCURVE",
"29 823 OFFCURVE",
"0 823 CURVE SMOOTH",
"-29 823 OFFCURVE",
"-53 810 OFFCURVE",
"-53 766 CURVE SMOOTH",
"-53 723 OFFCURVE",
"-29 709 OFFCURVE",
"0 709 CURVE SMOOTH"
);
}
);
width = 0;
},
{
anchors = (
{
name = _topright;
position = "{0, 592}";
}
);
layerId = "07EDFDFD-5D57-4B5D-B56C-4C47BCD544BF";
paths = (
{
closed = 1;
nodes = (
"18 709 OFFCURVE",
"31 718 OFFCURVE",
"31 743 CURVE SMOOTH",
"31 769 OFFCURVE",
"18 777 OFFCURVE",
"0 777 CURVE SMOOTH",
"-17 777 OFFCURVE",
"-31 769 OFFCURVE",
"-31 743 CURVE SMOOTH",
"-31 718 OFFCURVE",
"-17 709 OFFCURVE",
"0 709 CURVE SMOOTH"
);
}
);
width = 0;
},
{
anchors = (
{
name = _topright;
position = "{0, 592}";
}
);
layerId = "939FCF6B-2DD7-48E5-8D7B-BBFD097386C5";
paths = (
{
closed = 1;
nodes = (
"50 699 OFFCURVE",
"77 726 OFFCURVE",
"77 775 CURVE SMOOTH",
"77 825 OFFCURVE",
"50 852 OFFCURVE",
"0 852 CURVE SMOOTH",
"-50 852 OFFCURVE",
"-77 825 OFFCURVE",
"-77 775 CURVE SMOOTH",
"-77 726 OFFCURVE",
"-50 699 OFFCURVE",
"0 699 CURVE SMOOTH"
);
}
);
width = 0;
},
{
anchors = (
{
name = _topright;
position = "{0, 592}";
}
);
layerId = "419046E3-5D27-4998-A2CB-16719C068B75";
paths = (
{
closed = 1;
nodes = (
"42 704 OFFCURVE",
"67 725 OFFCURVE",
"67 771 CURVE SMOOTH",
"67 818 OFFCURVE",
"42 839 OFFCURVE",
"0 839 CURVE SMOOTH",
"-41 839 OFFCURVE",
"-67 818 OFFCURVE",
"-67 771 CURVE SMOOTH",
"-67 725 OFFCURVE",
"-41 704 OFFCURVE",
"0 704 CURVE SMOOTH"
);
}
);
width = 0;
}
);
unicode = 0A82;
script = gujarati;
category = Mark;
subCategory = Nonspacing;
},
{
glyphname = "visarga-gujarati";
layers = (
{
layerId = "ACBF538B-D069-4B9F-8DD8-08CC286AACA9";
paths = (
{
closed = 1;
nodes = (
"154 413 OFFCURVE",
"180 428 OFFCURVE",
"180 474 CURVE SMOOTH",
"180 521 OFFCURVE",
"154 535 OFFCURVE",
"124 535 CURVE SMOOTH",
"92 535 OFFCURVE",
"67 521 OFFCURVE",
"67 474 CURVE SMOOTH",
"67 428 OFFCURVE",
"92 413 OFFCURVE",
"124 413 CURVE SMOOTH"
);
},
{
closed = 1;
nodes = (
"154 98 OFFCURVE",
"180 113 OFFCURVE",
"180 159 CURVE SMOOTH",
"180 206 OFFCURVE",
"154 220 OFFCURVE",
"124 220 CURVE SMOOTH",
"92 220 OFFCURVE",
"67 206 OFFCURVE",
"67 159 CURVE SMOOTH",
"67 113 OFFCURVE",
"92 98 OFFCURVE",
"124 98 CURVE SMOOTH"
);
}
);
width = 248;
},
{
layerId = "07EDFDFD-5D57-4B5D-B56C-4C47BCD544BF";
paths = (
{
closed = 1;
nodes = (
"125 467 OFFCURVE",
"139 475 OFFCURVE",
"139 500 CURVE SMOOTH",
"139 526 OFFCURVE",
"125 535 OFFCURVE",
"108 535 CURVE SMOOTH",
"91 535 OFFCURVE",
"77 526 OFFCURVE",
"77 500 CURVE SMOOTH",
"77 475 OFFCURVE",
"91 467 OFFCURVE",
"108 467 CURVE SMOOTH"
);
},
{
closed = 1;
nodes = (
"121 118 OFFCURVE",
"134 126 OFFCURVE",
"134 151 CURVE SMOOTH",
"134 177 OFFCURVE",
"121 186 OFFCURVE",
"103 186 CURVE SMOOTH",
"86 186 OFFCURVE",
"72 177 OFFCURVE",
"72 151 CURVE SMOOTH",
"72 126 OFFCURVE",
"86 118 OFFCURVE",
"103 118 CURVE SMOOTH"
);
}
);
width = 211;
},
{
layerId = "939FCF6B-2DD7-48E5-8D7B-BBFD097386C5";
paths = (
{
closed = 1;
nodes = (
"180 403 OFFCURVE",
"214 421 OFFCURVE",
"214 479 CURVE SMOOTH",
"214 537 OFFCURVE",
"180 554 OFFCURVE",
"139 554 CURVE SMOOTH",
"96 554 OFFCURVE",
"63 537 OFFCURVE",
"63 479 CURVE SMOOTH",
"63 421 OFFCURVE",
"96 403 OFFCURVE",
"139 403 CURVE SMOOTH"
);
},
{
closed = 1;
nodes = (
"180 118 OFFCURVE",
"214 136 OFFCURVE",
"214 193 CURVE SMOOTH",
"214 251 OFFCURVE",
"180 269 OFFCURVE",
"139 269 CURVE SMOOTH",
"96 269 OFFCURVE",
"63 251 OFFCURVE",
"63 193 CURVE SMOOTH",
"63 136 OFFCURVE",
"96 118 OFFCURVE",
"139 118 CURVE SMOOTH"
);
}
);
width = 277;
},
{
layerId = "419046E3-5D27-4998-A2CB-16719C068B75";
paths = (
{
closed = 1;
nodes = (
"169 407 OFFCURVE",
"200 424 OFFCURVE",
"200 477 CURVE SMOOTH",
"200 530 OFFCURVE",
"169 546 OFFCURVE",
"132 546 CURVE SMOOTH",
"95 546 OFFCURVE",
"64 530 OFFCURVE",
"64 477 CURVE SMOOTH",
"64 424 OFFCURVE",
"95 407 OFFCURVE",
"132 407 CURVE SMOOTH"
);
},
{
closed = 1;
nodes = (
"169 109 OFFCURVE",
"200 126 OFFCURVE",
"200 179 CURVE SMOOTH",
"200 232 OFFCURVE",
"169 248 OFFCURVE",
"132 248 CURVE SMOOTH",
"95 248 OFFCURVE",
"64 232 OFFCURVE",
"64 179 CURVE SMOOTH",
"64 126 OFFCURVE",
"95 109 OFFCURVE",
"132 109 CURVE SMOOTH"
);
}
);
width = 265;
}
);
unicode = 0A83;
script = gujarati;
category = Mark;
subCategory = Spacing;
},
{
glyphname = "a-gujarati";
layers = (
{
anchors = (
{
name = top;
position = "{681, 592}";
},
{
name = topright;
position = "{681, 592}";
}
);
layerId = "ACBF538B-D069-4B9F-8DD8-08CC286AACA9";
paths = (
{
closed = 1;
nodes = (
"451 110 OFFCURVE",
"514 193 OFFCURVE",
"514 332 CURVE SMOOTH",
"514 417 OFFCURVE",
"483 453 OFFCURVE",
"445 453 CURVE SMOOTH",
"417 453 OFFCURVE",
"397 433 OFFCURVE",
"397 397 CURVE SMOOTH",
"397 355 OFFCURVE",
"431 313 OFFCURVE",
"475 285 CURVE SMOOTH",
"534 247 OFFCURVE",
"565 234 OFFCURVE",
"599 234 CURVE SMOOTH",
"615 234 OFFCURVE",
"636 237 OFFCURVE",
"647 243 CURVE",
"647 340 LINE",
"634 322 OFFCURVE",
"610 304 OFFCURVE",
"564 304 CURVE SMOOTH",
"513 304 OFFCURVE",
"464 328 OFFCURVE",
"439 344 CURVE",
"439 248 OFFCURVE",
"404 167 OFFCURVE",
"313 167 CURVE SMOOTH",
"258 167 OFFCURVE",
"217 195 OFFCURVE",
"184 260 CURVE",
"133 247 LINE",
"166 187 OFFCURVE",
"227 110 OFFCURVE",
"336 110 CURVE SMOOTH"
);
},
{
closed = 1;
nodes = (
"234 237 OFFCURVE",
"331 320 OFFCURVE",
"331 417 CURVE SMOOTH",
"331 461 OFFCURVE",
"309 494 OFFCURVE",
"272 534 CURVE SMOOTH",
"237 572 OFFCURVE",
"194 602 OFFCURVE",
"147 602 CURVE SMOOTH",
"106 602 OFFCURVE",
"76 594 OFFCURVE",
"49 584 CURVE",
"93 504 LINE",
"119 515 OFFCURVE",
"148 525 OFFCURVE",
"179 525 CURVE SMOOTH",
"236 525 OFFCURVE",
"259 495 OFFCURVE",
"259 458 CURVE SMOOTH",
"259 410 OFFCURVE",
"218 349 OFFCURVE",
"156 326 CURVE",
"137 348 OFFCURVE",
"117 360 OFFCURVE",
"95 360 CURVE SMOOTH",
"61 360 OFFCURVE",
"36 338 OFFCURVE",
"36 306 CURVE SMOOTH",
"36 269 OFFCURVE",
"65 237 OFFCURVE",
"119 237 CURVE SMOOTH"
);
},
{
closed = 1;
nodes = (
"807 -5 OFFCURVE",
"832 12 OFFCURVE",
"848 25 CURVE",
"807 93 LINE",
"785 67 OFFCURVE",
"753 51 OFFCURVE",
"730 51 CURVE SMOOTH",
"724 51 OFFCURVE",
"721 53 OFFCURVE",
"721 61 CURVE SMOOTH",
"721 579 LINE",
"640 612 LINE",
"640 125 LINE SMOOTH",
"640 81 OFFCURVE",
"650 63 OFFCURVE",
"691 31 CURVE SMOOTH",
"720 8 OFFCURVE",
"744 -5 OFFCURVE",
"775 -5 CURVE SMOOTH"
);
}
);
width = 806;
},
{
anchors = (
{
name = top;
position = "{703, 592}";
},
{
name = topright;
position = "{703, 592}";
}
);
layerId = "07EDFDFD-5D57-4B5D-B56C-4C47BCD544BF";
paths = (
{
closed = 1;
nodes = (
"498 130 OFFCURVE",
"535 238 OFFCURVE",
"535 328 CURVE SMOOTH",
"535 384 OFFCURVE",
"520 418 OFFCURVE",
"489 418 CURVE SMOOTH",
"466 418 OFFCURVE",
"453 400 OFFCURVE",
"453 377 CURVE SMOOTH",
"453 350 OFFCURVE",
"469 326 OFFCURVE",
"492 307 CURVE SMOOTH",
"524 280 OFFCURVE",
"573 263 OFFCURVE",
"618 263 CURVE SMOOTH",
"644 263 OFFCURVE",
"673 269 OFFCURVE",
"691 277 CURVE",
"691 308 LINE",
"668 295 OFFCURVE",
"644 288 OFFCURVE",
"617 288 CURVE SMOOTH",
"575 288 OFFCURVE",
"537 302 OFFCURVE",
"507 320 CURVE",
"507 241 OFFCURVE",
"472 154 OFFCURVE",
"373 154 CURVE SMOOTH",
"265 154 OFFCURVE",
"217 232 OFFCURVE",
"191 281 CURVE",
"166 275 LINE",
"201 212 OFFCURVE",
"266 130 OFFCURVE",
"378 130 CURVE SMOOTH"
);
},
{
closed = 1;
nodes = (
"256 260 OFFCURVE",
"361 324 OFFCURVE",
"361 436 CURVE SMOOTH",
"361 476 OFFCURVE",
"345 515 OFFCURVE",
"318 544 CURVE SMOOTH",
"286 579 OFFCURVE",
"240 602 OFFCURVE",
"188 602 CURVE SMOOTH",
"161 602 OFFCURVE",
"136 599 OFFCURVE",
"104 589 CURVE",
"115 563 LINE",
"141 573 OFFCURVE",
"166 578 OFFCURVE",
"189 578 CURVE SMOOTH",
"277 578 OFFCURVE",
"334 518 OFFCURVE",
"334 438 CURVE SMOOTH",
"334 353 OFFCURVE",
"275 304 OFFCURVE",
"188 288 CURVE",
"170 322 OFFCURVE",
"155 345 OFFCURVE",
"130 345 CURVE SMOOTH",
"110 345 OFFCURVE",
"94 331 OFFCURVE",
"94 311 CURVE SMOOTH",
"94 282 OFFCURVE",
"124 260 OFFCURVE",
"166 260 CURVE SMOOTH"
);
},
{
closed = 1;
nodes = (
"783 -5 OFFCURVE",
"808 13 OFFCURVE",
"832 35 CURVE",
"815 61 LINE",
"793 36 OFFCURVE",
"766 20 OFFCURVE",
"740 20 CURVE SMOOTH",
"726 20 OFFCURVE",
"716 26 OFFCURVE",
"716 42 CURVE SMOOTH",
"716 594 LINE",
"689 607 LINE",
"689 55 LINE SMOOTH",
"689 34 OFFCURVE",
"697 18 OFFCURVE",
"710 8 CURVE SMOOTH",
"720 0 OFFCURVE",
"733 -5 OFFCURVE",
"748 -5 CURVE SMOOTH"
);
}
);
width = 794;
},
{
anchors = (
{
name = top;
position = "{777, 592}";
},
{
name = topright;
position = "{777, 592}";
}
);
layerId = "939FCF6B-2DD7-48E5-8D7B-BBFD097386C5";
paths = (
{
closed = 1;
nodes = (
"555 87 OFFCURVE",
"617 211 OFFCURVE",
"617 342 CURVE SMOOTH",
"617 430 OFFCURVE",
"579 482 OFFCURVE",
"519 482 CURVE SMOOTH",
"470 482 OFFCURVE",
"438 448 OFFCURVE",
"438 403 CURVE SMOOTH",
"438 356 OFFCURVE",
"472 313 OFFCURVE",
"515 280 CURVE SMOOTH",
"569 240 OFFCURVE",
"638 214 OFFCURVE",
"675 214 CURVE SMOOTH",
"712 214 OFFCURVE",
"741 226 OFFCURVE",
"760 241 CURVE",
"741 374 LINE",
"720 342 OFFCURVE",
"696 320 OFFCURVE",
"649 320 CURVE SMOOTH",
"597 320 OFFCURVE",
"528 353 OFFCURVE",
"478 390 CURVE",
"478 267 OFFCURVE",
"444 185 OFFCURVE",
"366 185 CURVE SMOOTH",
"308 185 OFFCURVE",
"271 223 OFFCURVE",
"246 279 CURVE",
"166 250 LINE",
"216 146 OFFCURVE",
"292 87 OFFCURVE",
"398 87 CURVE SMOOTH"
);
},
{
closed = 1;
nodes = (
"272 203 OFFCURVE",
"380 274 OFFCURVE",
"380 385 CURVE SMOOTH",
"380 431 OFFCURVE",
"363 479 OFFCURVE",
"334 518 CURVE SMOOTH",
"295 570 OFFCURVE",
"236 607 OFFCURVE",
"168 607 CURVE SMOOTH",
"124 607 OFFCURVE",
"83 598 OFFCURVE",
"48 580 CURVE",
"126 441 LINE",
"167 471 OFFCURVE",
"207 490 OFFCURVE",
"242 490 CURVE SMOOTH",
"265 490 OFFCURVE",
"279 477 OFFCURVE",
"279 455 CURVE SMOOTH",
"279 410 OFFCURVE",
"238 374 OFFCURVE",
"187 350 CURVE",
"167 366 OFFCURVE",
"146 380 OFFCURVE",
"112 380 CURVE SMOOTH",
"65 380 OFFCURVE",
"30 349 OFFCURVE",
"30 303 CURVE SMOOTH",
"30 239 OFFCURVE",
"90 203 OFFCURVE",
"159 203 CURVE SMOOTH"
);
},
{
closed = 1;
nodes = (
"952 -5 OFFCURVE",
"982 13 OFFCURVE",
"1004 35 CURVE",
"942 154 LINE",
"914 120 OFFCURVE",
"884 100 OFFCURVE",
"862 100 CURVE SMOOTH",
"856 100 OFFCURVE",
"853 102 OFFCURVE",
"853 109 CURVE SMOOTH",
"853 579 LINE",
"701 612 LINE",
"701 167 LINE SMOOTH",
"701 109 OFFCURVE",
"737 76 OFFCURVE",
"780 46 CURVE SMOOTH",
"828 13 OFFCURVE",
"867 -5 OFFCURVE",
"912 -5 CURVE SMOOTH"
);
}
);
width = 958;
},
{
anchors = (
{
name = top;
position = "{736, 592}";
},
{
name = topright;
position = "{736, 592}";
}
);
layerId = "419046E3-5D27-4998-A2CB-16719C068B75";
paths = (
{
closed = 1;
nodes = (
"511 97 OFFCURVE",
"573 204 OFFCURVE",
"573 337 CURVE SMOOTH",
"573 425 OFFCURVE",
"538 470 OFFCURVE",
"487 470 CURVE SMOOTH",
"447 470 OFFCURVE",
"420 442 OFFCURVE",
"420 400 CURVE SMOOTH",
"420 355 OFFCURVE",
"454 313 OFFCURVE",
"498 282 CURVE SMOOTH",
"554 243 OFFCURVE",
"607 222 OFFCURVE",
"643 222 CURVE SMOOTH",
"671 222 OFFCURVE",
"696 230 OFFCURVE",
"712 242 CURVE",
"701 360 LINE",
"683 333 OFFCURVE",
"660 313 OFFCURVE",
"613 313 CURVE SMOOTH",
"561 313 OFFCURVE",
"501 342 OFFCURVE",
"461 371 CURVE",
"461 259 OFFCURVE",
"427 177 OFFCURVE",
"343 177 CURVE SMOOTH",
"287 177 OFFCURVE",
"248 211 OFFCURVE",
"219 271 CURVE",
"151 249 LINE",
"194 163 OFFCURVE",
"265 97 OFFCURVE",
"372 97 CURVE SMOOTH"
);
},
{
closed = 1;
nodes = (
"255 217 OFFCURVE",
"359 293 OFFCURVE",
"359 398 CURVE SMOOTH",
"359 444 OFFCURVE",
"340 485 OFFCURVE",
"308 525 CURVE SMOOTH",
"271 571 OFFCURVE",
"218 605 OFFCURVE",
"159 605 CURVE SMOOTH",
"116 605 OFFCURVE",
"80 596 OFFCURVE",
"48 582 CURVE",
"112 467 LINE",
"146 489 OFFCURVE",
"182 504 OFFCURVE",
"215 504 CURVE SMOOTH",
"252 504 OFFCURVE",
"271 485 OFFCURVE",
"271 457 CURVE SMOOTH",
"271 410 OFFCURVE",
"229 363 OFFCURVE",
"173 340 CURVE",
"154 358 OFFCURVE",
"133 372 OFFCURVE",
"104 372 CURVE SMOOTH",
"63 372 OFFCURVE",
"32 344 OFFCURVE",
"32 304 CURVE SMOOTH",
"32 252 OFFCURVE",
"80 217 OFFCURVE",
"142 217 CURVE SMOOTH"
);
},
{
closed = 1;
nodes = (
"891 -5 OFFCURVE",
"918 13 OFFCURVE",
"938 31 CURVE",
"885 128 LINE",
"859 98 OFFCURVE",
"829 79 OFFCURVE",
"806 79 CURVE SMOOTH",
"800 79 OFFCURVE",
"797 82 OFFCURVE",
"797 89 CURVE SMOOTH",
"797 579 LINE",
"675 612 LINE",
"675 149 LINE SMOOTH",
"675 99 OFFCURVE",
"700 72 OFFCURVE",
"743 40 CURVE SMOOTH",
"782 11 OFFCURVE",
"815 -5 OFFCURVE",
"854 -5 CURVE SMOOTH"
);
}
);
width = 894;
}
);
leftKerningGroup = "GUJ_a-L";
rightKerningGroup = "Kana-R";
unicode = 0A85;
script = gujarati;
category = Letter;
subCategory = Matra;
},
{
glyphname = "i-gujarati";
layers = (
{
anchors = (
{
name = top;
position = "{240, 592}";
},
{
name = topright;
position = "{266, 592}";
}
);
layerId = "ACBF538B-D069-4B9F-8DD8-08CC286AACA9";
paths = (
{
closed = 1;
nodes = (
"476 -8 OFFCURVE",
"548 83 OFFCURVE",
"548 208 CURVE SMOOTH",
"548 330 OFFCURVE",
"456 453 OFFCURVE",
"456 552 CURVE SMOOTH",
"456 612 OFFCURVE",
"490 639 OFFCURVE",
"525 661 CURVE",
"464 733 LINE",
"421 707 OFFCURVE",
"384 668 OFFCURVE",
"384 605 CURVE SMOOTH",
"384 488 OFFCURVE",
"486 376 OFFCURVE",
"486 246 CURVE SMOOTH",
"486 119 OFFCURVE",
"386 59 OFFCURVE",
"299 59 CURVE SMOOTH",
"234 59 OFFCURVE",
"177 93 OFFCURVE",
"177 158 CURVE SMOOTH",
"177 228 OFFCURVE",
"242 271 OFFCURVE",
"349 275 CURVE",
"318 356 LINE",
"221 356 OFFCURVE",
"98 301 OFFCURVE",
"98 195 CURVE SMOOTH",
"98 138 OFFCURVE",
"134 90 OFFCURVE",
"173 56 CURVE SMOOTH",
"212 22 OFFCURVE",
"261 -8 OFFCURVE",
"332 -8 CURVE SMOOTH"
);
},
{
closed = 1;
nodes = (
"216 319 LINE",
"171 345 OFFCURVE",
"133 389 OFFCURVE",
"133 440 CURVE SMOOTH",
"133 490 OFFCURVE",
"171 519 OFFCURVE",
"238 519 CURVE SMOOTH",
"255 519 OFFCURVE",
"271 517 OFFCURVE",
"289 514 CURVE",
"276 599 LINE",
"258 603 OFFCURVE",
"237 604 OFFCURVE",
"219 604 CURVE SMOOTH",
"134 604 OFFCURVE",
"54 560 OFFCURVE",
"54 465 CURVE SMOOTH",
"54 398 OFFCURVE",
"107 334 OFFCURVE",
"180 296 CURVE"
);
}
);
width = 590;
},
{
anchors = (
{
name = top;
position = "{220, 592}";
},
{
name = topright;
position = "{253, 592}";
}
);
layerId = "07EDFDFD-5D57-4B5D-B56C-4C47BCD544BF";
paths = (
{
closed = 1;
nodes = (
"454 -8 OFFCURVE",
"538 79 OFFCURVE",
"538 209 CURVE SMOOTH",
"538 360 OFFCURVE",
"409 443 OFFCURVE",
"409 570 CURVE SMOOTH",
"409 673 OFFCURVE",
"493 702 OFFCURVE",
"508 709 CURVE",
"492 732 LINE",
"448 712 OFFCURVE",
"382 666 OFFCURVE",
"382 572 CURVE SMOOTH",
"382 444 OFFCURVE",
"511 358 OFFCURVE",
"511 211 CURVE SMOOTH",
"511 99 OFFCURVE",
"438 17 OFFCURVE",
"312 17 CURVE SMOOTH",
"206 17 OFFCURVE",
"127 82 OFFCURVE",
"127 172 CURVE SMOOTH",
"127 267 OFFCURVE",
"198 323 OFFCURVE",
"321 327 CURVE",
"313 352 LINE",
"182 346 OFFCURVE",
"100 280 OFFCURVE",
"100 174 CURVE SMOOTH",
"100 125 OFFCURVE",
"122 80 OFFCURVE",
"159 47 CURVE SMOOTH",
"197 14 OFFCURVE",
"249 -8 OFFCURVE",
"311 -8 CURVE SMOOTH"
);
},
{
closed = 1;
nodes = (
"199 313 LINE",
"136 345 OFFCURVE",
"85 398 OFFCURVE",
"85 469 CURVE SMOOTH",
"85 554 OFFCURVE",
"158 580 OFFCURVE",
"222 580 CURVE SMOOTH",
"235 580 OFFCURVE",
"252 579 OFFCURVE",
"273 574 CURVE",
"270 598 LINE",
"257 601 OFFCURVE",
"240 604 OFFCURVE",
"218 604 CURVE SMOOTH",
"132 604 OFFCURVE",
"58 559 OFFCURVE",
"58 471 CURVE SMOOTH",
"58 390 OFFCURVE",
"119 332 OFFCURVE",
"184 296 CURVE"
);
}
);
width = 586;
},
{
anchors = (
{
name = top;
position = "{240, 592}";
},
{
name = topright;
position = "{264, 592}";
}
);
layerId = "939FCF6B-2DD7-48E5-8D7B-BBFD097386C5";
paths = (
{
closed = 1;
nodes = (
"504 -7 OFFCURVE",
"599 76 OFFCURVE",
"599 195 CURVE SMOOTH",
"599 314 OFFCURVE",
"508 400 OFFCURVE",
"508 488 CURVE SMOOTH",
"508 553 OFFCURVE",
"558 590 OFFCURVE",
"609 606 CURVE",
"499 739 LINE",
"443 721 OFFCURVE",
"395 671 OFFCURVE",
"395 592 CURVE SMOOTH",
"395 472 OFFCURVE",
"483 394 OFFCURVE",
"483 278 CURVE SMOOTH",
"483 167 OFFCURVE",
"397 107 OFFCURVE",
"284 107 CURVE SMOOTH",
"235 107 OFFCURVE",
"215 122 OFFCURVE",
"215 147 CURVE SMOOTH",
"215 195 OFFCURVE",
"285 229 OFFCURVE",
"397 238 CURVE",
"340 385 LINE",
"211 373 OFFCURVE",
"88 311 OFFCURVE",
"88 201 CURVE SMOOTH",
"88 149 OFFCURVE",
"116 97 OFFCURVE",
"163 58 CURVE SMOOTH",
"209 20 OFFCURVE",
"272 -7 OFFCURVE",
"346 -7 CURVE SMOOTH"
);
},
{
closed = 1;
nodes = (
"251 315 LINE",
"213 342 OFFCURVE",
"189 370 OFFCURVE",
"189 405 CURVE SMOOTH",
"189 440 OFFCURVE",
"215 461 OFFCURVE",
"266 461 CURVE SMOOTH",
"286 461 OFFCURVE",
"304 459 OFFCURVE",
"322 455 CURVE",
"292 600 LINE",
"268 604 OFFCURVE",
"242 607 OFFCURVE",
"210 607 CURVE SMOOTH",
"113 607 OFFCURVE",
"48 553 OFFCURVE",
"48 474 CURVE SMOOTH",
"48 383 OFFCURVE",
"122 331 OFFCURVE",
"194 294 CURVE"
);
}
);
width = 647;
},
{
anchors = (
{
name = top;
position = "{240, 592}";
},
{
name = topright;
position = "{263, 592}";
}
);
layerId = "419046E3-5D27-4998-A2CB-16719C068B75";
paths = (
{
closed = 1;
nodes = (
"492 -7 OFFCURVE",
"577 79 OFFCURVE",
"577 200 CURVE SMOOTH",
"577 321 OFFCURVE",
"485 422 OFFCURVE",
"485 515 CURVE SMOOTH",
"485 578 OFFCURVE",
"529 611 OFFCURVE",
"573 629 CURVE",
"484 736 LINE",
"434 715 OFFCURVE",
"390 669 OFFCURVE",
"390 598 CURVE SMOOTH",
"390 479 OFFCURVE",
"484 386 OFFCURVE",
"484 265 CURVE SMOOTH",
"484 146 OFFCURVE",
"392 86 OFFCURVE",
"290 86 CURVE SMOOTH",
"234 86 OFFCURVE",
"199 110 OFFCURVE",
"199 152 CURVE SMOOTH",
"199 209 OFFCURVE",
"267 247 OFFCURVE",
"377 253 CURVE",
"330 373 LINE",
"215 366 OFFCURVE",
"92 307 OFFCURVE",
"92 198 CURVE SMOOTH",
"92 145 OFFCURVE",
"123 94 OFFCURVE",
"167 57 CURVE SMOOTH",
"210 21 OFFCURVE",
"268 -7 OFFCURVE",
"339 -7 CURVE SMOOTH"
);
},
{
closed = 1;
nodes = (
"236 317 LINE",
"195 344 OFFCURVE",
"166 378 OFFCURVE",
"166 420 CURVE SMOOTH",
"166 461 OFFCURVE",
"196 485 OFFCURVE",
"254 485 CURVE SMOOTH",
"272 485 OFFCURVE",
"290 483 OFFCURVE",
"308 479 CURVE",
"285 600 LINE",
"263 604 OFFCURVE",
"240 606 OFFCURVE",
"213 606 CURVE SMOOTH",
"122 606 OFFCURVE",
"50 556 OFFCURVE",
"50 470 CURVE SMOOTH",
"50 390 OFFCURVE",
"116 333 OFFCURVE",
"188 295 CURVE"
);
}
);
width = 623;
}
);
leftKerningGroup = "GUJ_i-L";
unicode = 0A87;
script = gujarati;
category = Letter;
subCategory = Matra;
userData = {
com.typemytype.robofont.layerData = {
background = {
anchors = (
);
components = (
{
baseGlyph = gjAnusvara;
transformation = (
1,
0,
0,
1,
789,
-29
);
}
);
contours = (
);
lib = {
};
name = gjI;
unicodes = (
);
width = 1207;
};
};
};
},
{
glyphname = "ii-gujarati";
layers = (
{
anchors = (
{
name = top;
position = "{240, 592}";
},
{
name = topright;
position = "{266, 592}";
}
);
layerId = "ACBF538B-D069-4B9F-8DD8-08CC286AACA9";
paths = (
{
closed = 1;
nodes = (
"476 -8 OFFCURVE",
"548 83 OFFCURVE",
"548 208 CURVE SMOOTH",
"548 338 OFFCURVE",
"451 470 OFFCURVE",
"451 577 CURVE SMOOTH",
"451 644 OFFCURVE",
"491 684 OFFCURVE",
"542 684 CURVE SMOOTH",
"568 684 OFFCURVE",
"590 673 OFFCURVE",
"608 652 CURVE",
"647 678 LINE",
"620 718 OFFCURVE",
"578 757 OFFCURVE",
"510 757 CURVE SMOOTH",
"447 757 OFFCURVE",
"384 709 OFFCURVE",
"384 617 CURVE SMOOTH",
"384 496 OFFCURVE",
"486 380 OFFCURVE",
"486 246 CURVE SMOOTH",
"486 119 OFFCURVE",
"386 59 OFFCURVE",
"299 59 CURVE SMOOTH",
"234 59 OFFCURVE",
"177 93 OFFCURVE",
"177 158 CURVE SMOOTH",
"177 228 OFFCURVE",
"242 271 OFFCURVE",
"349 275 CURVE",
"318 356 LINE",
"221 356 OFFCURVE",
"98 301 OFFCURVE",
"98 195 CURVE SMOOTH",
"98 138 OFFCURVE",
"134 90 OFFCURVE",
"173 56 CURVE SMOOTH",
"212 22 OFFCURVE",
"261 -8 OFFCURVE",
"332 -8 CURVE SMOOTH"
);
},
{
closed = 1;
nodes = (
"216 319 LINE",
"171 345 OFFCURVE",
"133 389 OFFCURVE",
"133 440 CURVE SMOOTH",
"133 490 OFFCURVE",
"171 519 OFFCURVE",
"238 519 CURVE SMOOTH",
"255 519 OFFCURVE",
"271 517 OFFCURVE",
"289 514 CURVE",
"276 599 LINE",
"258 603 OFFCURVE",
"237 604 OFFCURVE",
"219 604 CURVE SMOOTH",
"134 604 OFFCURVE",
"54 560 OFFCURVE",
"54 465 CURVE SMOOTH",
"54 398 OFFCURVE",
"107 334 OFFCURVE",
"180 296 CURVE"
);
}
);
width = 595;
},
{
anchors = (
{
name = top;
position = "{220, 592}";
},
{
name = topright;
position = "{253, 592}";
}
);
layerId = "07EDFDFD-5D57-4B5D-B56C-4C47BCD544BF";
paths = (
{
closed = 1;
nodes = (
"454 -8 OFFCURVE",
"538 79 OFFCURVE",
"538 209 CURVE SMOOTH",
"538 382 OFFCURVE",
"408 477 OFFCURVE",
"408 622 CURVE SMOOTH",
"408 687 OFFCURVE",
"450 732 OFFCURVE",
"512 732 CURVE SMOOTH",
"563 732 OFFCURVE",
"596 703 OFFCURVE",
"619 666 CURVE",
"638 678 LINE",
"615 716 OFFCURVE",
"575 757 OFFCURVE",
"511 757 CURVE SMOOTH",
"436 757 OFFCURVE",
"380 704 OFFCURVE",
"380 624 CURVE SMOOTH",
"380 478 OFFCURVE",
"511 379 OFFCURVE",
"511 211 CURVE SMOOTH",
"511 99 OFFCURVE",
"438 17 OFFCURVE",
"312 17 CURVE SMOOTH",
"206 17 OFFCURVE",
"127 82 OFFCURVE",
"127 172 CURVE SMOOTH",
"127 267 OFFCURVE",
"198 323 OFFCURVE",
"321 327 CURVE",
"313 352 LINE",
"182 346 OFFCURVE",
"100 280 OFFCURVE",
"100 174 CURVE SMOOTH",
"100 122 OFFCURVE",
"124 75 OFFCURVE",
"164 42 CURVE SMOOTH",
"201 11 OFFCURVE",
"252 -8 OFFCURVE",
"311 -8 CURVE SMOOTH"
);
},
{
closed = 1;
nodes = (
"199 313 LINE",
"136 345 OFFCURVE",
"85 398 OFFCURVE",
"85 469 CURVE SMOOTH",
"85 554 OFFCURVE",
"158 580 OFFCURVE",
"222 580 CURVE SMOOTH",
"235 580 OFFCURVE",
"252 579 OFFCURVE",
"273 574 CURVE",
"270 598 LINE",
"257 601 OFFCURVE",
"240 604 OFFCURVE",
"218 604 CURVE SMOOTH",
"132 604 OFFCURVE",
"58 559 OFFCURVE",
"58 471 CURVE SMOOTH",
"58 390 OFFCURVE",
"119 332 OFFCURVE",
"184 296 CURVE"
);
}
);
width = 590;
},
{
anchors = (
{
name = top;
position = "{240, 592}";
},
{
name = topright;
position = "{264, 592}";
}
);
layerId = "939FCF6B-2DD7-48E5-8D7B-BBFD097386C5";
paths = (
{
closed = 1;
nodes = (
"504 -7 OFFCURVE",
"599 82 OFFCURVE",
"599 209 CURVE SMOOTH",
"599 330 OFFCURVE",
"503 429 OFFCURVE",
"503 529 CURVE SMOOTH",
"503 588 OFFCURVE",
"536 616 OFFCURVE",
"577 616 CURVE SMOOTH",
"608 616 OFFCURVE",
"628 604 OFFCURVE",
"651 584 CURVE",
"705 626 LINE",
"679 696 OFFCURVE",
"625 758 OFFCURVE",
"534 758 CURVE SMOOTH",
"456 758 OFFCURVE",
"390 703 OFFCURVE",
"390 611 CURVE SMOOTH",
"390 493 OFFCURVE",
"483 400 OFFCURVE",
"483 293 CURVE SMOOTH",
"483 171 OFFCURVE",
"397 107 OFFCURVE",
"284 107 CURVE SMOOTH",
"235 107 OFFCURVE",
"215 122 OFFCURVE",
"215 147 CURVE SMOOTH",
"215 195 OFFCURVE",
"285 229 OFFCURVE",
"397 238 CURVE",
"340 385 LINE",
"211 373 OFFCURVE",
"88 311 OFFCURVE",
"88 201 CURVE SMOOTH",
"88 149 OFFCURVE",
"116 97 OFFCURVE",
"163 58 CURVE SMOOTH",
"209 20 OFFCURVE",
"272 -7 OFFCURVE",
"346 -7 CURVE SMOOTH"
);
},
{
closed = 1;
nodes = (
"251 315 LINE",
"213 342 OFFCURVE",
"189 370 OFFCURVE",
"189 405 CURVE SMOOTH",
"189 440 OFFCURVE",
"215 461 OFFCURVE",
"266 461 CURVE SMOOTH",
"286 461 OFFCURVE",
"304 459 OFFCURVE",
"322 455 CURVE",
"292 600 LINE",
"268 604 OFFCURVE",
"242 607 OFFCURVE",
"210 607 CURVE SMOOTH",
"113 607 OFFCURVE",
"48 553 OFFCURVE",
"48 474 CURVE SMOOTH",
"48 383 OFFCURVE",
"122 331 OFFCURVE",
"194 294 CURVE"
);
}
);
width = 647;
},
{
anchors = (
{
name = top;
position = "{240, 592}";
},
{
name = topright;
position = "{263, 592}";
}
);
layerId = "419046E3-5D27-4998-A2CB-16719C068B75";
paths = (
{
closed = 1;
nodes = (
"492 -7 OFFCURVE",
"577 83 OFFCURVE",
"577 209 CURVE SMOOTH",
"577 333 OFFCURVE",
"481 446 OFFCURVE",
"481 549 CURVE SMOOTH",
"481 612 OFFCURVE",
"517 645 OFFCURVE",
"562 645 CURVE SMOOTH",
"591 645 OFFCURVE",
"612 633 OFFCURVE",
"633 613 CURVE",
"680 648 LINE",
"654 705 OFFCURVE",
"605 758 OFFCURVE",
"523 758 CURVE SMOOTH",
"452 758 OFFCURVE",
"387 705 OFFCURVE",
"387 614 CURVE SMOOTH",
"387 494 OFFCURVE",
"484 392 OFFCURVE",
"484 273 CURVE SMOOTH",
"484 149 OFFCURVE",
"392 86 OFFCURVE",
"290 86 CURVE SMOOTH",
"234 86 OFFCURVE",
"199 110 OFFCURVE",
"199 152 CURVE SMOOTH",
"199 209 OFFCURVE",
"267 247 OFFCURVE",
"377 253 CURVE",
"330 373 LINE",
"215 366 OFFCURVE",
"92 307 OFFCURVE",
"92 198 CURVE SMOOTH",
"92 145 OFFCURVE",
"123 94 OFFCURVE",
"167 57 CURVE SMOOTH",
"210 21 OFFCURVE",
"268 -7 OFFCURVE",
"339 -7 CURVE SMOOTH"
);
},
{
closed = 1;
nodes = (
"236 317 LINE",
"195 344 OFFCURVE",
"166 378 OFFCURVE",
"166 420 CURVE SMOOTH",
"166 461 OFFCURVE",
"196 485 OFFCURVE",
"254 485 CURVE SMOOTH",
"272 485 OFFCURVE",
"290 483 OFFCURVE",
"308 479 CURVE",
"285 600 LINE",
"263 604 OFFCURVE",
"240 606 OFFCURVE",
"213 606 CURVE SMOOTH",
"122 606 OFFCURVE",
"50 556 OFFCURVE",
"50 470 CURVE SMOOTH",
"50 390 OFFCURVE",
"116 333 OFFCURVE",
"188 295 CURVE"
);
}
);
width = 624;
}
);
leftKerningGroup = "GUJ_i-L";
unicode = 0A88;
script = gujarati;
category = Letter;
subCategory = Matra;
userData = {
com.typemytype.robofont.layerData = {
background = {
anchors = (
);
components = (
{
baseGlyph = gjAnusvara;
transformation = (
1,
0,
0,
1,
789,
-29
);
}
);
contours = (
);
lib = {
};
name = gjII;
unicodes = (
);
width = 1214;
};
};
};
},
{
glyphname = "u-gujarati";
layers = (
{
anchors = (
{
name = top;
position = "{580, 592}";
},
{
name = topright;
position = "{358, 707}";
}
);
layerId = "ACBF538B-D069-4B9F-8DD8-08CC286AACA9";
paths = (
{
closed = 1;
nodes = (
"512 -4 OFFCURVE",
"551 77 OFFCURVE",
"551 139 CURVE SMOOTH",
"551 221 OFFCURVE",
"484 289 OFFCURVE",
"412 332 CURVE",
"393 301 LINE",
"452 261 OFFCURVE",
"471 211 OFFCURVE",
"471 163 CURVE SMOOTH",
"471 115 OFFCURVE",
"430 64 OFFCURVE",
"349 64 CURVE SMOOTH",
"196 64 OFFCURVE",
"122 225 OFFCURVE",
"122 373 CURVE SMOOTH",
"122 573 OFFCURVE",
"224 677 OFFCURVE",
"399 677 CURVE SMOOTH",
"465 677 OFFCURVE",
"519 656 OFFCURVE",
"558 625 CURVE",
"585 657 LINE",
"520 720 OFFCURVE",
"437 752 OFFCURVE",
"349 752 CURVE SMOOTH",
"164 752 OFFCURVE",
"46 620 OFFCURVE",
"46 409 CURVE SMOOTH",
"46 288 OFFCURVE",
"87 191 OFFCURVE",
"158 114 CURVE SMOOTH",
"237 28 OFFCURVE",
"314 -4 OFFCURVE",
"393 -4 CURVE SMOOTH"
);
},
{
closed = 1;
nodes = (
"402 273 OFFCURVE",
"534 312 OFFCURVE",
"534 412 CURVE SMOOTH",
"534 443 OFFCURVE",
"522 480 OFFCURVE",
"493 524 CURVE SMOOTH",
"462 570 OFFCURVE",
"416 596 OFFCURVE",
"361 596 CURVE SMOOTH",
"315 596 OFFCURVE",
"281 585 OFFCURVE",
"259 576 CURVE",
"298 493 LINE",
"315 501 OFFCURVE",
"360 517 OFFCURVE",
"395 517 CURVE SMOOTH",
"448 517 OFFCURVE",
"472 492 OFFCURVE",
"472 454 CURVE SMOOTH",
"472 395 OFFCURVE",
"394 366 OFFCURVE",
"273 335 CURVE",
"311 253 LINE"
);
}
);
width = 589;
},
{
anchors = (
{
name = top;
position = "{603, 592}";
},
{
name = topright;
position = "{359, 740}";
}
);
layerId = "07EDFDFD-5D57-4B5D-B56C-4C47BCD544BF";
paths = (
{
closed = 1;
nodes = (
"498 -4 OFFCURVE",
"556 59 OFFCURVE",
"556 138 CURVE SMOOTH",
"556 216 OFFCURVE",
"499 282 OFFCURVE",
"421 330 CURVE",
"400 316 LINE",
"466 277 OFFCURVE",
"529 217 OFFCURVE",
"529 140 CURVE SMOOTH",
"529 59 OFFCURVE",
"460 21 OFFCURVE",
"375 21 CURVE SMOOTH",
"191 21 OFFCURVE",
"79 217 OFFCURVE",
"79 405 CURVE SMOOTH",
"79 583 OFFCURVE",
"166 728 OFFCURVE",
"359 728 CURVE SMOOTH",
"457 728 OFFCURVE",
"516 692 OFFCURVE",
"574 639 CURVE",
"591 657 LINE",
"529 711 OFFCURVE",
"467 752 OFFCURVE",
"358 752 CURVE SMOOTH",
"151 752 OFFCURVE",
"52 601 OFFCURVE",
"52 403 CURVE SMOOTH",
"52 287 OFFCURVE",
"96 169 OFFCURVE",
"170 90 CURVE SMOOTH",
"224 33 OFFCURVE",
"294 -4 OFFCURVE",
"375 -4 CURVE SMOOTH"
);
},
{
closed = 1;
nodes = (
"433 311 OFFCURVE",
"532 361 OFFCURVE",
"532 459 CURVE SMOOTH",
"532 493 OFFCURVE",
"522 524 OFFCURVE",
"500 548 CURVE SMOOTH",
"473 577 OFFCURVE",
"432 596 OFFCURVE",
"378 596 CURVE SMOOTH",
"332 596 OFFCURVE",
"301 589 OFFCURVE",
"264 575 CURVE",
"276 550 LINE",
"312 564 OFFCURVE",
"345 572 OFFCURVE",
"379 572 CURVE SMOOTH",
"466 572 OFFCURVE",
"504 528 OFFCURVE",
"504 461 CURVE SMOOTH",
"504 377 OFFCURVE",
"409 332 OFFCURVE",
"279 301 CURVE",
"291 275 LINE"
);
}
);
width = 599;
},
{
anchors = (
{
name = top;
position = "{608, 592}";
},
{
name = topright;
position = "{378, 732}";
}
);
layerId = "939FCF6B-2DD7-48E5-8D7B-BBFD097386C5";
paths = (
{
closed = 1;
nodes = (
"525 -7 OFFCURVE",
"611 42 OFFCURVE",
"611 132 CURVE SMOOTH",
"611 213 OFFCURVE",
"555 275 OFFCURVE",
"470 325 CURVE",
"431 282 LINE",
"462 261 OFFCURVE",
"480 227 OFFCURVE",
"480 194 CURVE SMOOTH",
"480 140 OFFCURVE",
"439 107 OFFCURVE",
"375 107 CURVE SMOOTH",
"242 107 OFFCURVE",
"157 218 OFFCURVE",
"157 386 CURVE SMOOTH",
"157 567 OFFCURVE",
"245 676 OFFCURVE",
"399 676 CURVE SMOOTH",
"469 676 OFFCURVE",
"522 660 OFFCURVE",
"577 624 CURVE",
"620 671 LINE",
"564 738 OFFCURVE",
"463 800 OFFCURVE",
"347 800 CURVE SMOOTH",
"185 800 OFFCURVE",
"42 677 OFFCURVE",
"42 436 CURVE SMOOTH",
"42 339 OFFCURVE",
"81 223 OFFCURVE",
"154 133 CURVE SMOOTH",
"220 52 OFFCURVE",
"314 -7 OFFCURVE",
"431 -7 CURVE SMOOTH"
);
},
{
closed = 1;
nodes = (
"498 264 OFFCURVE",
"594 309 OFFCURVE",
"594 410 CURVE SMOOTH",
"594 450 OFFCURVE",
"575 490 OFFCURVE",
"550 524 CURVE SMOOTH",
"514 574 OFFCURVE",
"458 607 OFFCURVE",
"386 607 CURVE SMOOTH",
"344 607 OFFCURVE",
"300 596 OFFCURVE",
"265 580 CURVE",
"332 435 LINE",
"378 460 OFFCURVE",
"421 475 OFFCURVE",
"451 475 CURVE SMOOTH",
"477 475 OFFCURVE",
"488 465 OFFCURVE",
"488 448 CURVE SMOOTH",
"488 407 OFFCURVE",
"416 379 OFFCURVE",
"279 344 CURVE",
"335 224 LINE"
);
}
);
width = 618;
},
{
anchors = (
{
name = top;
position = "{595, 592}";
},
{
name = topright;
position = "{370, 722}";
}
);
layerId = "419046E3-5D27-4998-A2CB-16719C068B75";
paths = (
{
closed = 1;
nodes = (
"521 -5 OFFCURVE",
"586 57 OFFCURVE",
"586 135 CURVE SMOOTH",
"586 217 OFFCURVE",
"526 281 OFFCURVE",
"446 328 CURVE",
"416 290 LINE",
"459 261 OFFCURVE",
"477 220 OFFCURVE",
"477 181 CURVE SMOOTH",
"477 129 OFFCURVE",
"436 89 OFFCURVE",
"364 89 CURVE SMOOTH",
"223 89 OFFCURVE",
"143 221 OFFCURVE",
"143 381 CURVE SMOOTH",
"143 570 OFFCURVE",
"236 677 OFFCURVE",
"399 677 CURVE SMOOTH",
"468 677 OFFCURVE",
"521 658 OFFCURVE",
"569 624 CURVE",
"605 665 LINE",
"546 730 OFFCURVE",
"453 780 OFFCURVE",
"349 780 CURVE SMOOTH",
"176 780 OFFCURVE",
"44 653 OFFCURVE",
"44 424 CURVE SMOOTH",
"44 317 OFFCURVE",
"84 209 OFFCURVE",
"156 125 CURVE SMOOTH",
"227 42 OFFCURVE",
"314 -5 OFFCURVE",
"416 -5 CURVE SMOOTH"
);
},
{
closed = 1;
nodes = (
"458 268 OFFCURVE",
"569 310 OFFCURVE",
"569 411 CURVE SMOOTH",
"569 447 OFFCURVE",
"554 484 OFFCURVE",
"526 524 CURVE SMOOTH",
"493 572 OFFCURVE",
"440 603 OFFCURVE",
"376 603 CURVE SMOOTH",
"333 603 OFFCURVE",
"293 592 OFFCURVE",
"263 578 CURVE",
"318 459 LINE",
"353 478 OFFCURVE",
"396 493 OFFCURVE",
"428 493 CURVE SMOOTH",
"465 493 OFFCURVE",
"482 477 OFFCURVE",
"482 451 CURVE SMOOTH",
"482 402 OFFCURVE",
"407 374 OFFCURVE",
"277 340 CURVE",
"326 236 LINE"
);
}
);
width = 605;
}
);
leftKerningGroup = "GUJ_u-L";
unicode = 0A89;
script = gujarati;
category = Letter;
subCategory = Matra;
userData = {
com.typemytype.robofont.layerData = {
background = {
anchors = (
);
components = (
{
baseGlyph = gjAnusvara;
transformation = (
1,
0,
0,
1,
508,
51
);
}
);
contours = (
);
lib = {
};
name = gjU;
unicodes = (
);
width = 1205;
};
};
};
},
{
glyphname = "uu-gujarati";
layers = (
{
anchors = (
{
name = top;
position = "{684, 592}";
},
{
name = topright;
position = "{692, 592}";
}
);
layerId = "ACBF538B-D069-4B9F-8DD8-08CC286AACA9";
paths = (
{
closed = 1;
nodes = (
"512 -4 OFFCURVE",
"551 77 OFFCURVE",
"551 139 CURVE SMOOTH",
"551 221 OFFCURVE",
"484 289 OFFCURVE",
"412 332 CURVE",
"393 301 LINE",
"452 261 OFFCURVE",
"471 211 OFFCURVE",
"471 163 CURVE SMOOTH",
"471 115 OFFCURVE",
"430 64 OFFCURVE",
"349 64 CURVE SMOOTH",
"196 64 OFFCURVE",
"122 225 OFFCURVE",
"122 373 CURVE SMOOTH",
"122 573 OFFCURVE",
"224 677 OFFCURVE",
"399 677 CURVE SMOOTH",
"557 677 OFFCURVE",
"652 559 OFFCURVE",
"652 438 CURVE SMOOTH",
"652 125 LINE SMOOTH",
"652 85 OFFCURVE",
"661 63 OFFCURVE",
"703 31 CURVE SMOOTH",
"732 9 OFFCURVE",
"756 -5 OFFCURVE",
"787 -5 CURVE SMOOTH",
"818 -5 OFFCURVE",
"843 12 OFFCURVE",
"860 25 CURVE",
"818 93 LINE",
"796 67 OFFCURVE",
"765 51 OFFCURVE",
"742 51 CURVE SMOOTH",
"736 51 OFFCURVE",
"732 53 OFFCURVE",
"732 61 CURVE SMOOTH",
"732 405 LINE SMOOTH",
"732 509 OFFCURVE",
"654 604 OFFCURVE",
"590 660 CURVE SMOOTH",
"523 718 OFFCURVE",
"438 752 OFFCURVE",
"349 752 CURVE SMOOTH",
"164 752 OFFCURVE",
"46 620 OFFCURVE",
"46 409 CURVE SMOOTH",
"46 288 OFFCURVE",
"87 191 OFFCURVE",
"158 114 CURVE SMOOTH",
"237 28 OFFCURVE",
"314 -4 OFFCURVE",
"393 -4 CURVE SMOOTH"
);
},
{
closed = 1;
nodes = (
"402 273 OFFCURVE",
"534 312 OFFCURVE",
"534 412 CURVE SMOOTH",
"534 443 OFFCURVE",
"522 480 OFFCURVE",
"493 524 CURVE SMOOTH",
"462 570 OFFCURVE",
"416 596 OFFCURVE",
"361 596 CURVE SMOOTH",
"315 596 OFFCURVE",
"281 585 OFFCURVE",
"259 576 CURVE",
"298 493 LINE",
"315 501 OFFCURVE",
"360 517 OFFCURVE",
"395 517 CURVE SMOOTH",
"448 517 OFFCURVE",
"472 492 OFFCURVE",
"472 454 CURVE SMOOTH",
"472 395 OFFCURVE",
"394 366 OFFCURVE",
"273 335 CURVE",
"311 253 LINE"
);
}
);
width = 818;
},
{
anchors = (
{
name = top;
position = "{677, 592}";
},
{
name = topright;
position = "{686, 592}";
}
);
layerId = "07EDFDFD-5D57-4B5D-B56C-4C47BCD544BF";
paths = (
{
closed = 1;
nodes = (
"498 -4 OFFCURVE",
"556 59 OFFCURVE",
"556 138 CURVE SMOOTH",
"556 216 OFFCURVE",
"499 282 OFFCURVE",
"421 330 CURVE",
"400 316 LINE",
"466 277 OFFCURVE",
"529 217 OFFCURVE",
"529 140 CURVE SMOOTH",
"529 59 OFFCURVE",
"460 21 OFFCURVE",
"375 21 CURVE SMOOTH",
"191 21 OFFCURVE",
"79 217 OFFCURVE",
"79 405 CURVE SMOOTH",
"79 583 OFFCURVE",
"169 728 OFFCURVE",
"369 728 CURVE SMOOTH",
"528 728 OFFCURVE",
"672 624 OFFCURVE",
"672 386 CURVE SMOOTH",
"672 55 LINE SMOOTH",
"672 34 OFFCURVE",
"680 18 OFFCURVE",
"693 8 CURVE SMOOTH",
"703 0 OFFCURVE",
"716 -5 OFFCURVE",
"731 -5 CURVE SMOOTH",
"766 -5 OFFCURVE",
"791 13 OFFCURVE",
"814 35 CURVE",
"798 61 LINE",
"776 36 OFFCURVE",
"749 20 OFFCURVE",
"723 20 CURVE SMOOTH",
"709 20 OFFCURVE",
"699 26 OFFCURVE",
"699 42 CURVE SMOOTH",
"699 384 LINE SMOOTH",
"699 516 OFFCURVE",
"654 610 OFFCURVE",
"587 671 CURVE SMOOTH",
"527 726 OFFCURVE",
"449 752 OFFCURVE",
"368 752 CURVE SMOOTH",
"154 752 OFFCURVE",
"52 601 OFFCURVE",
"52 403 CURVE SMOOTH",
"52 287 OFFCURVE",
"96 169 OFFCURVE",
"170 90 CURVE SMOOTH",
"224 33 OFFCURVE",
"294 -4 OFFCURVE",
"375 -4 CURVE SMOOTH"
);
},
{
closed = 1;
nodes = (
"433 311 OFFCURVE",
"532 361 OFFCURVE",
"532 459 CURVE SMOOTH",
"532 494 OFFCURVE",
"520 526 OFFCURVE",
"496 551 CURVE SMOOTH",
"470 579 OFFCURVE",
"430 596 OFFCURVE",
"378 596 CURVE SMOOTH",
"332 596 OFFCURVE",
"301 589 OFFCURVE",
"264 575 CURVE",
"276 550 LINE",
"312 564 OFFCURVE",
"345 572 OFFCURVE",
"379 572 CURVE SMOOTH",
"466 572 OFFCURVE",
"504 528 OFFCURVE",
"504 461 CURVE SMOOTH",
"504 377 OFFCURVE",
"409 332 OFFCURVE",
"279 301 CURVE",
"291 275 LINE"
);
}
);
width = 778;
},
{
anchors = (
{
name = top;
position = "{784, 592}";
},
{
name = topright;
position = "{746, 592}";
}
);
layerId = "939FCF6B-2DD7-48E5-8D7B-BBFD097386C5";
paths = (
{
closed = 1;
nodes = (
"525 -7 OFFCURVE",
"611 42 OFFCURVE",
"611 132 CURVE SMOOTH",
"611 213 OFFCURVE",
"555 275 OFFCURVE",
"470 325 CURVE",
"431 282 LINE",
"462 261 OFFCURVE",
"480 227 OFFCURVE",
"480 194 CURVE SMOOTH",
"480 140 OFFCURVE",
"439 107 OFFCURVE",
"375 107 CURVE SMOOTH",
"242 107 OFFCURVE",
"157 220 OFFCURVE",
"157 390 CURVE SMOOTH",
"157 573 OFFCURVE",
"258 684 OFFCURVE",
"424 684 CURVE SMOOTH",
"573 684 OFFCURVE",
"669 582 OFFCURVE",
"669 429 CURVE SMOOTH",
"669 167 LINE SMOOTH",
"669 109 OFFCURVE",
"705 76 OFFCURVE",
"749 46 CURVE SMOOTH",
"796 14 OFFCURVE",
"835 -5 OFFCURVE",
"880 -5 CURVE SMOOTH",
"920 -5 OFFCURVE",
"951 13 OFFCURVE",
"972 35 CURVE",
"911 154 LINE",
"882 120 OFFCURVE",
"852 100 OFFCURVE",
"830 100 CURVE SMOOTH",
"824 100 OFFCURVE",
"821 102 OFFCURVE",
"821 109 CURVE SMOOTH",
"821 355 LINE SMOOTH",
"821 475 OFFCURVE",
"764 568 OFFCURVE",
"683 658 CURVE SMOOTH",
"605 745 OFFCURVE",
"516 808 OFFCURVE",
"387 808 CURVE SMOOTH",
"189 808 OFFCURVE",
"42 664 OFFCURVE",
"42 439 CURVE SMOOTH",
"42 342 OFFCURVE",
"81 223 OFFCURVE",
"154 133 CURVE SMOOTH",
"220 52 OFFCURVE",
"314 -7 OFFCURVE",
"431 -7 CURVE SMOOTH"
);
},
{
closed = 1;
nodes = (
"498 264 OFFCURVE",
"594 309 OFFCURVE",
"594 410 CURVE SMOOTH",
"594 450 OFFCURVE",
"576 489 OFFCURVE",
"550 524 CURVE SMOOTH",
"514 573 OFFCURVE",
"458 607 OFFCURVE",
"386 607 CURVE SMOOTH",
"344 607 OFFCURVE",
"300 596 OFFCURVE",
"265 580 CURVE",
"332 435 LINE",
"378 460 OFFCURVE",
"421 475 OFFCURVE",
"451 475 CURVE SMOOTH",
"477 475 OFFCURVE",
"488 465 OFFCURVE",
"488 448 CURVE SMOOTH",
"488 407 OFFCURVE",
"416 379 OFFCURVE",
"279 344 CURVE",
"335 224 LINE"
);
}
);
width = 926;
},
{
anchors = (
{
name = top;
position = "{734, 592}";
},
{
name = topright;
position = "{724, 592}";
}
);
layerId = "419046E3-5D27-4998-A2CB-16719C068B75";
paths = (
{
closed = 1;
nodes = (
"521 -5 OFFCURVE",
"586 57 OFFCURVE",
"586 135 CURVE SMOOTH",
"586 217 OFFCURVE",
"526 281 OFFCURVE",
"446 328 CURVE",
"416 290 LINE",
"459 261 OFFCURVE",
"477 220 OFFCURVE",
"477 181 CURVE SMOOTH",
"477 129 OFFCURVE",
"436 89 OFFCURVE",
"364 89 CURVE SMOOTH",
"223 89 OFFCURVE",
"143 222 OFFCURVE",
"143 383 CURVE SMOOTH",
"143 573 OFFCURVE",
"244 681 OFFCURVE",
"414 681 CURVE SMOOTH",
"567 681 OFFCURVE",
"663 572 OFFCURVE",
"663 433 CURVE SMOOTH",
"663 149 LINE SMOOTH",
"663 99 OFFCURVE",
"687 71 OFFCURVE",
"730 40 CURVE SMOOTH",
"770 11 OFFCURVE",
"802 -5 OFFCURVE",
"841 -5 CURVE SMOOTH",
"878 -5 OFFCURVE",
"906 13 OFFCURVE",
"925 31 CURVE",
"872 128 LINE",
"847 98 OFFCURVE",
"816 79 OFFCURVE",
"793 79 CURVE SMOOTH",
"788 79 OFFCURVE",
"784 82 OFFCURVE",
"784 89 CURVE SMOOTH",
"784 376 LINE SMOOTH",
"784 489 OFFCURVE",
"719 583 OFFCURVE",
"644 659 CURVE SMOOTH",
"570 733 OFFCURVE",
"483 785 OFFCURVE",
"372 785 CURVE SMOOTH",
"179 785 OFFCURVE",
"44 646 OFFCURVE",
"44 427 CURVE SMOOTH",
"44 319 OFFCURVE",
"84 209 OFFCURVE",
"156 125 CURVE SMOOTH",
"228 42 OFFCURVE",
"314 -5 OFFCURVE",
"416 -5 CURVE SMOOTH"
);
},
{
closed = 1;
nodes = (
"458 268 OFFCURVE",
"569 310 OFFCURVE",
"569 411 CURVE SMOOTH",
"569 447 OFFCURVE",
"554 485 OFFCURVE",
"526 524 CURVE SMOOTH",
"492 572 OFFCURVE",
"440 603 OFFCURVE",
"376 603 CURVE SMOOTH",
"333 603 OFFCURVE",
"293 592 OFFCURVE",
"263 578 CURVE",
"318 459 LINE",
"353 478 OFFCURVE",
"396 493 OFFCURVE",
"428 493 CURVE SMOOTH",
"465 493 OFFCURVE",
"482 477 OFFCURVE",
"482 451 CURVE SMOOTH",
"482 402 OFFCURVE",
"407 374 OFFCURVE",
"277 340 CURVE",
"326 236 LINE"
);
}
);
width = 881;
}
);
leftKerningGroup = "GUJ_u-L";
rightKerningGroup = "Kana-R";
unicode = 0A8A;
script = gujarati;
category = Letter;
subCategory = Matra;
userData = {
com.typemytype.robofont.layerData = {
background = {
anchors = (
);
components = (
{
baseGlyph = gjAnusvara;
transformation = (
1,
0,
0,
1,
1675,
-104
);
}
);
contours = (
);
lib = {
};
name = gjUU;
unicodes = (
);
width = 1675;
};
};
};
},
{
glyphname = "rVocalic-gujarati";
layers = (
{
anchors = (
{
name = top;
position = "{443, 592}";
},
{
name = topright;
position = "{443, 592}";
}
);
layerId = "ACBF538B-D069-4B9F-8DD8-08CC286AACA9";
paths = (
{
closed = 1;
nodes = (
"823 115 OFFCURVE",
"849 166 OFFCURVE",
"849 213 CURVE SMOOTH",
"849 274 OFFCURVE",
"789 329 OFFCURVE",
"748 371 CURVE",
"747 350 LINE",
"773 377 OFFCURVE",
"789 411 OFFCURVE",
"789 445 CURVE SMOOTH",
"789 483 OFFCURVE",
"759 521 OFFCURVE",
"720 521 CURVE SMOOTH",
"672 521 OFFCURVE",
"652 483 OFFCURVE",
"652 451 CURVE SMOOTH",
"652 425 OFFCURVE",
"663 403 OFFCURVE",
"678 383 CURVE",
"679 406 LINE",
"645 364 OFFCURVE",
"588 344 OFFCURVE",
"535 344 CURVE SMOOTH",
"515 344 OFFCURVE",
"496 347 OFFCURVE",
"478 352 CURVE",
"452 321 LINE",
"483 304 OFFCURVE",
"532 286 OFFCURVE",
"589 286 CURVE SMOOTH",
"648 286 OFFCURVE",
"700 306 OFFCURVE",
"735 338 CURVE",
"714 341 LINE",
"742 312 OFFCURVE",
"769 282 OFFCURVE",
"769 243 CURVE SMOOTH",
"769 195 OFFCURVE",
"726 164 OFFCURVE",
"693 153 CURVE",
"745 85 LINE"
);
},
{
closed = 1;
nodes = (
"419 290 LINE",
"420 374 LINE",
"79 197 LINE",
"127 123 LINE"
);
},
{
closed = 1;
nodes = (
"400 344 LINE",
"350 439 OFFCURVE",
"287 527 OFFCURVE",
"173 527 CURVE SMOOTH",
"119 527 OFFCURVE",
"58 515 OFFCURVE",
"10 490 CURVE",
"42 407 LINE",
"81 425 OFFCURVE",
"136 446 OFFCURVE",
"194 446 CURVE SMOOTH",
"276 446 OFFCURVE",
"324 380 OFFCURVE",
"366 320 CURVE"
);
},
{
closed = 1;
nodes = (
"569 -5 OFFCURVE",
"594 12 OFFCURVE",
"611 25 CURVE",
"569 93 LINE",
"547 67 OFFCURVE",
"516 51 OFFCURVE",
"493 51 CURVE SMOOTH",
"487 51 OFFCURVE",
"483 53 OFFCURVE",
"483 61 CURVE SMOOTH",
"483 579 LINE",
"403 612 LINE",
"403 125 LINE SMOOTH",
"403 85 OFFCURVE",
"411 64 OFFCURVE",
"454 31 CURVE SMOOTH",
"483 8 OFFCURVE",
"507 -5 OFFCURVE",
"538 -5 CURVE SMOOTH"
);
}
);
width = 857;
},
{
anchors = (
{
name = top;
position = "{434, 592}";
},
{
name = topright;
position = "{434, 592}";
}
);
layerId = "07EDFDFD-5D57-4B5D-B56C-4C47BCD544BF";
paths = (
{
closed = 1;
nodes = (
"792 123 OFFCURVE",
"804 182 OFFCURVE",
"804 213 CURVE SMOOTH",
"804 272 OFFCURVE",
"760 308 OFFCURVE",
"711 384 CURVE",
"714 356 LINE",
"729 375 OFFCURVE",
"738 400 OFFCURVE",
"738 428 CURVE SMOOTH",
"738 450 OFFCURVE",
"725 473 OFFCURVE",
"700 473 CURVE SMOOTH",
"672 473 OFFCURVE",
"665 448 OFFCURVE",
"665 428 CURVE SMOOTH",
"665 402 OFFCURVE",
"678 379 OFFCURVE",
"694 357 CURVE",
"692 379 LINE",
"670 348 OFFCURVE",
"626 317 OFFCURVE",
"569 317 CURVE SMOOTH",
"521 317 OFFCURVE",
"476 329 OFFCURVE",
"436 353 CURVE",
"421 337 LINE",
"466 311 OFFCURVE",
"518 293 OFFCURVE",
"570 293 CURVE SMOOTH",
"626 293 OFFCURVE",
"682 314 OFFCURVE",
"713 354 CURVE",
"695 355 LINE",
"728 312 OFFCURVE",
"776 271 OFFCURVE",
"776 215 CURVE SMOOTH",
"776 159 OFFCURVE",
"728 131 OFFCURVE",
"682 113 CURVE",
"703 88 LINE"
);
},
{
closed = 1;
nodes = (
"444 317 LINE",
"426 335 LINE",
"82 152 LINE",
"98 129 LINE"
);
},
{
closed = 1;
nodes = (
"411 316 LINE",
"348 432 OFFCURVE",
"297 527 OFFCURVE",
"169 527 CURVE SMOOTH",
"112 527 OFFCURVE",
"63 514 OFFCURVE",
"12 488 CURVE",
"25 463 LINE",
"76 489 OFFCURVE",
"121 503 OFFCURVE",
"170 503 CURVE SMOOTH",
"286 503 OFFCURVE",
"329 416 OFFCURVE",
"392 306 CURVE"
);
},
{
closed = 1;
nodes = (
"515 -5 OFFCURVE",
"539 13 OFFCURVE",
"563 35 CURVE",
"547 61 LINE",
"524 36 OFFCURVE",
"497 20 OFFCURVE",
"471 20 CURVE SMOOTH",
"458 20 OFFCURVE",
"448 26 OFFCURVE",
"448 42 CURVE SMOOTH",
"448 594 LINE",
"420 607 LINE",
"420 55 LINE SMOOTH",
"420 34 OFFCURVE",
"429 18 OFFCURVE",
"441 8 CURVE SMOOTH",
"451 0 OFFCURVE",
"468 -5 OFFCURVE",
"479 -5 CURVE SMOOTH"
);
}
);
width = 816;
},
{
anchors = (
{
name = top;
position = "{477, 592}";
},
{
name = topright;
position = "{477, 592}";
}
);
layerId = "939FCF6B-2DD7-48E5-8D7B-BBFD097386C5";
paths = (
{
closed = 1;
nodes = (
"865 72 OFFCURVE",
"919 128 OFFCURVE",
"919 195 CURVE SMOOTH",
"919 261 OFFCURVE",
"876 303 OFFCURVE",
"813 370 CURVE",
"810 340 LINE",
"857 380 OFFCURVE",
"864 424 OFFCURVE",
"864 447 CURVE SMOOTH",
"864 497 OFFCURVE",
"830 547 OFFCURVE",
"769 547 CURVE SMOOTH",
"719 547 OFFCURVE",
"685 514 OFFCURVE",
"685 467 CURVE SMOOTH",
"685 444 OFFCURVE",
"692 423 OFFCURVE",
"705 407 CURVE",
"709 429 LINE",
"669 391 OFFCURVE",
"626 374 OFFCURVE",
"575 374 CURVE SMOOTH",
"550 374 OFFCURVE",
"534 381 OFFCURVE",
"523 388 CURVE",
"490 346 LINE",
"540 304 OFFCURVE",
"595 288 OFFCURVE",
"647 288 CURVE SMOOTH",
"702 288 OFFCURVE",
"753 306 OFFCURVE",
"792 336 CURVE",
"772 337 LINE",
"788 321 OFFCURVE",
"808 295 OFFCURVE",
"808 267 CURVE SMOOTH",
"808 237 OFFCURVE",
"789 213 OFFCURVE",
"727 183 CURVE",
"803 54 LINE"
);
},
{
closed = 1;
nodes = (
"456 237 LINE",
"423 360 LINE",
"67 177 LINE",
"142 61 LINE"
);
},
{
closed = 1;
nodes = (
"404 321 LINE",
"345 470 OFFCURVE",
"262 560 OFFCURVE",
"148 560 CURVE SMOOTH",
"95 560 OFFCURVE",
"46 542 OFFCURVE",
"6 521 CURVE",
"64 378 LINE",
"111 401 OFFCURVE",
"146 414 OFFCURVE",
"189 414 CURVE SMOOTH",
"249 414 OFFCURVE",
"300 376 OFFCURVE",
"356 299 CURVE"
);
},
{
closed = 1;
nodes = (
"652 -5 OFFCURVE",
"682 13 OFFCURVE",
"704 35 CURVE",
"642 154 LINE",
"614 120 OFFCURVE",
"584 100 OFFCURVE",
"562 100 CURVE SMOOTH",
"556 100 OFFCURVE",
"552 102 OFFCURVE",
"552 109 CURVE SMOOTH",
"552 579 LINE",
"401 612 LINE",
"401 167 LINE SMOOTH",
"401 109 OFFCURVE",
"437 76 OFFCURVE",
"480 46 CURVE SMOOTH",
"527 13 OFFCURVE",
"566 -5 OFFCURVE",
"611 -5 CURVE SMOOTH"
);
}
);
width = 923;
},
{
anchors = (
{
name = top;
position = "{463, 592}";
},
{
name = topright;
position = "{463, 592}";
}
);
layerId = "419046E3-5D27-4998-A2CB-16719C068B75";
paths = (
{
closed = 1;
nodes = (
"848 90 OFFCURVE",
"890 144 OFFCURVE",
"890 203 CURVE SMOOTH",
"890 267 OFFCURVE",
"840 314 OFFCURVE",
"786 370 CURVE",
"784 344 LINE",
"823 379 OFFCURVE",
"833 418 OFFCURVE",
"833 446 CURVE SMOOTH",
"833 491 OFFCURVE",
"801 536 OFFCURVE",
"749 536 CURVE SMOOTH",
"700 536 OFFCURVE",
"671 501 OFFCURVE",
"671 460 CURVE SMOOTH",
"671 436 OFFCURVE",
"680 415 OFFCURVE",
"694 397 CURVE",
"697 419 LINE",
"659 379 OFFCURVE",
"610 361 OFFCURVE",
"559 361 CURVE SMOOTH",
"536 361 OFFCURVE",
"518 367 OFFCURVE",
"504 373 CURVE",
"475 335 LINE",
"516 304 OFFCURVE",
"569 287 OFFCURVE",
"623 287 CURVE SMOOTH",
"680 287 OFFCURVE",
"731 306 OFFCURVE",
"769 337 CURVE",
"748 339 LINE",
"769 317 OFFCURVE",
"792 290 OFFCURVE",
"792 257 CURVE SMOOTH",
"792 212 OFFCURVE",
"749 188 OFFCURVE",
"713 170 CURVE",
"779 67 LINE"
);
},
{
closed = 1;
nodes = (
"441 259 LINE",
"422 366 LINE",
"72 186 LINE",
"136 87 LINE"
);
},
{
closed = 1;
nodes = (
"402 331 LINE",
"348 458 OFFCURVE",
"272 546 OFFCURVE",
"159 546 CURVE SMOOTH",
"105 546 OFFCURVE",
"51 531 OFFCURVE",
"8 508 CURVE",
"55 391 LINE",
"99 411 OFFCURVE",
"142 427 OFFCURVE",
"191 427 CURVE SMOOTH",
"261 427 OFFCURVE",
"311 377 OFFCURVE",
"361 308 CURVE"
);
},
{
closed = 1;
nodes = (
"618 -5 OFFCURVE",
"646 13 OFFCURVE",
"665 31 CURVE",
"612 128 LINE",
"586 98 OFFCURVE",
"556 79 OFFCURVE",
"533 79 CURVE SMOOTH",
"527 79 OFFCURVE",
"524 82 OFFCURVE",
"524 89 CURVE SMOOTH",
"524 579 LINE",
"402 612 LINE",
"402 149 LINE SMOOTH",
"402 99 OFFCURVE",
"428 70 OFFCURVE",
"470 40 CURVE SMOOTH",
"511 10 OFFCURVE",
"542 -5 OFFCURVE",
"581 -5 CURVE SMOOTH"
);
}
);
width = 896;
}
);
leftKerningGroup = "GUJ_rVocalic-L";
unicode = 0A8B;
script = gujarati;
category = Letter;
subCategory = Matra;
},
{
glyphname = "lVocalic-gujarati";
layers = (
{
anchors = (
{
name = topright;
position = "{491, 592}";
}
);
layerId = "ACBF538B-D069-4B9F-8DD8-08CC286AACA9";
paths = (
{
closed = 1;
nodes = (
"683 -46 OFFCURVE",
"721 -24 OFFCURVE",
"756 11 CURVE",
"700 77 LINE",
"656 33 OFFCURVE",
"615 16 OFFCURVE",
"586 16 CURVE SMOOTH",
"551 16 OFFCURVE",
"536 39 OFFCURVE",
"536 60 CURVE SMOOTH",
"536 124 OFFCURVE",
"643 181 OFFCURVE",
"643 265 CURVE SMOOTH",
"643 317 OFFCURVE",
"614 360 OFFCURVE",
"569 400 CURVE SMOOTH",
"538 428 OFFCURVE",
"497 446 OFFCURVE",
"448 446 CURVE SMOOTH",
"363 446 OFFCURVE",
"296 386 OFFCURVE",
"296 276 CURVE SMOOTH",
"296 258 OFFCURVE",
"297 239 OFFCURVE",
"300 220 CURVE",
"380 198 LINE",
"378 210 OFFCURVE",
"378 225 OFFCURVE",
"378 239 CURVE SMOOTH",
"378 341 OFFCURVE",
"430 383 OFFCURVE",
"488 383 CURVE SMOOTH",
"535 383 OFFCURVE",
"571 353 OFFCURVE",
"571 306 CURVE SMOOTH",
"571 239 OFFCURVE",
"462 179 OFFCURVE",
"462 92 CURVE SMOOTH",
"462 56 OFFCURVE",
"492 19 OFFCURVE",
"517 -3 CURVE SMOOTH",
"543 -25 OFFCURVE",
"579 -46 OFFCURVE",
"625 -46 CURVE SMOOTH"
);
},
{
closed = 1;
nodes = (
"260 83 LINE",
"190 124 OFFCURVE",
"117 189 OFFCURVE",
"117 271 CURVE SMOOTH",
"117 338 OFFCURVE",
"166 376 OFFCURVE",
"218 376 CURVE SMOOTH",
"251 376 OFFCURVE",
"286 369 OFFCURVE",
"332 328 CURVE",
"355 351 LINE",
"320 405 OFFCURVE",
"251 445 OFFCURVE",
"191 445 CURVE SMOOTH",
"105 445 OFFCURVE",
"40 394 OFFCURVE",
"40 303 CURVE SMOOTH",
"40 197 OFFCURVE",
"143 98 OFFCURVE",
"233 45 CURVE"
);
},
{
closed = 1;
nodes = (
"531 400 LINE",
"531 579 LINE",
"450 612 LINE",
"450 400 LINE"
);
}
);
width = 698;
},
{
anchors = (
{
name = topright;
position = "{468, 592}";
}
);
layerId = "07EDFDFD-5D57-4B5D-B56C-4C47BCD544BF";
paths = (
{
closed = 1;
nodes = (
"639 -36 OFFCURVE",
"673 -15 OFFCURVE",
"711 20 CURVE",
"695 40 LINE",
"656 6 OFFCURVE",
"628 -12 OFFCURVE",
"583 -12 CURVE SMOOTH",
"523 -12 OFFCURVE",
"479 24 OFFCURVE",
"479 78 CURVE SMOOTH",
"479 167 OFFCURVE",
"606 219 OFFCURVE",
"606 318 CURVE SMOOTH",
"606 350 OFFCURVE",
"593 380 OFFCURVE",
"570 404 CURVE SMOOTH",
"546 429 OFFCURVE",
"508 446 OFFCURVE",
"461 446 CURVE SMOOTH",
"371 446 OFFCURVE",
"300 381 OFFCURVE",
"300 271 CURVE SMOOTH",
"300 256 OFFCURVE",
"301 239 OFFCURVE",
"304 220 CURVE",
"331 213 LINE",
"328 234 OFFCURVE",
"327 251 OFFCURVE",
"327 269 CURVE SMOOTH",
"327 372 OFFCURVE",
"386 421 OFFCURVE",
"462 421 CURVE SMOOTH",
"544 421 OFFCURVE",
"579 371 OFFCURVE",
"579 320 CURVE SMOOTH",
"579 229 OFFCURVE",
"452 174 OFFCURVE",
"452 80 CURVE SMOOTH",
"452 44 OFFCURVE",
"470 14 OFFCURVE",
"496 -7 CURVE SMOOTH",
"520 -26 OFFCURVE",
"552 -36 OFFCURVE",
"584 -36 CURVE SMOOTH"
);
},
{
closed = 1;
nodes = (
"249 63 LINE",
"170 108 OFFCURVE",
"71 197 OFFCURVE",
"71 299 CURVE SMOOTH",
"71 367 OFFCURVE",
"109 421 OFFCURVE",
"194 421 CURVE SMOOTH",
"255 421 OFFCURVE",
"292 391 OFFCURVE",
"329 357 CURVE",
"343 375 LINE",
"300 415 OFFCURVE",
"253 445 OFFCURVE",
"193 445 CURVE SMOOTH",
"112 445 OFFCURVE",
"44 392 OFFCURVE",
"44 301 CURVE SMOOTH",
"44 194 OFFCURVE",
"147 97 OFFCURVE",
"237 45 CURVE"
);
},
{
closed = 1;
nodes = (
"481 432 LINE",
"481 599 LINE",
"454 612 LINE",
"454 432 LINE"
);
}
);
width = 655;
},
{
anchors = (
{
name = topright;
position = "{510, 592}";
}
);
layerId = "939FCF6B-2DD7-48E5-8D7B-BBFD097386C5";
paths = (
{
closed = 1;
nodes = (
"734 -77 OFFCURVE",
"785 -47 OFFCURVE",
"816 7 CURVE",
"727 94 LINE",
"693 47 OFFCURVE",
"655 16 OFFCURVE",
"617 16 CURVE SMOOTH",
"599 16 OFFCURVE",
"586 27 OFFCURVE",
"586 43 CURVE SMOOTH",
"586 104 OFFCURVE",
"695 152 OFFCURVE",
"695 235 CURVE SMOOTH",
"695 292 OFFCURVE",
"668 349 OFFCURVE",
"626 393 CURVE SMOOTH",
"583 439 OFFCURVE",
"521 470 OFFCURVE",
"456 470 CURVE SMOOTH",
"357 470 OFFCURVE",
"305 378 OFFCURVE",
"305 303 CURVE SMOOTH",
"305 280 OFFCURVE",
"308 254 OFFCURVE",
"313 224 CURVE",
"438 189 LINE",
"435 209 OFFCURVE",
"433 226 OFFCURVE",
"433 246 CURVE SMOOTH",
"433 323 OFFCURVE",
"472 358 OFFCURVE",
"514 358 CURVE SMOOTH",
"545 358 OFFCURVE",
"568 338 OFFCURVE",
"568 305 CURVE SMOOTH",
"568 229 OFFCURVE",
"464 193 OFFCURVE",
"464 100 CURVE SMOOTH",
"464 50 OFFCURVE",
"494 3 OFFCURVE",
"536 -30 CURVE SMOOTH",
"573 -59 OFFCURVE",
"619 -77 OFFCURVE",
"664 -77 CURVE SMOOTH"
);
},
{
closed = 1;
nodes = (
"293 92 LINE",
"248 130 OFFCURVE",
"185 190 OFFCURVE",
"185 270 CURVE SMOOTH",
"185 327 OFFCURVE",
"220 351 OFFCURVE",
"260 351 CURVE SMOOTH",
"292 351 OFFCURVE",
"324 334 OFFCURVE",
"358 307 CURVE",
"396 350 LINE",
"353 417 OFFCURVE",
"276 473 OFFCURVE",
"194 473 CURVE SMOOTH",
"102 473 OFFCURVE",
"34 402 OFFCURVE",
"34 313 CURVE SMOOTH",
"34 178 OFFCURVE",
"186 72 OFFCURVE",
"250 30 CURVE"
);
},
{
closed = 1;
nodes = (
"586 383 LINE",
"586 579 LINE",
"435 612 LINE",
"435 383 LINE"
);
}
);
width = 758;
},
{
anchors = (
{
name = topright;
position = "{496, 592}";
}
);
layerId = "419046E3-5D27-4998-A2CB-16719C068B75";
paths = (
{
closed = 1;
nodes = (
"707 -64 OFFCURVE",
"752 -37 OFFCURVE",
"785 9 CURVE",
"709 87 LINE",
"671 41 OFFCURVE",
"632 16 OFFCURVE",
"598 16 CURVE SMOOTH",
"573 16 OFFCURVE",
"559 32 OFFCURVE",
"559 50 CURVE SMOOTH",
"559 112 OFFCURVE",
"667 164 OFFCURVE",
"667 248 CURVE SMOOTH",
"667 302 OFFCURVE",
"639 354 OFFCURVE",
"596 396 CURVE SMOOTH",
"557 434 OFFCURVE",
"504 460 OFFCURVE",
"446 460 CURVE SMOOTH",
"354 460 OFFCURVE",
"295 381 OFFCURVE",
"295 292 CURVE SMOOTH",
"295 273 OFFCURVE",
"295 249 OFFCURVE",
"301 222 CURVE",
"407 193 LINE",
"405 209 OFFCURVE",
"404 226 OFFCURVE",
"404 243 CURVE SMOOTH",
"404 331 OFFCURVE",
"448 368 OFFCURVE",
"497 368 CURVE SMOOTH",
"535 368 OFFCURVE",
"564 344 OFFCURVE",
"564 305 CURVE SMOOTH",
"564 233 OFFCURVE",
"457 187 OFFCURVE",
"457 97 CURVE SMOOTH",
"457 53 OFFCURVE",
"486 10 OFFCURVE",
"522 -19 CURVE SMOOTH",
"554 -44 OFFCURVE",
"596 -64 OFFCURVE",
"642 -64 CURVE SMOOTH"
);
},
{
closed = 1;
nodes = (
"273 88 LINE",
"217 127 OFFCURVE",
"150 190 OFFCURVE",
"150 271 CURVE SMOOTH",
"150 332 OFFCURVE",
"191 361 OFFCURVE",
"236 361 CURVE SMOOTH",
"269 361 OFFCURVE",
"302 349 OFFCURVE",
"341 315 CURVE",
"372 350 LINE",
"333 412 OFFCURVE",
"259 461 OFFCURVE",
"187 461 CURVE SMOOTH",
"97 461 OFFCURVE",
"30 398 OFFCURVE",
"30 309 CURVE SMOOTH",
"30 186 OFFCURVE",
"162 83 OFFCURVE",
"236 36 CURVE"
);
},
{
closed = 1;
nodes = (
"557 391 LINE",
"557 579 LINE",
"435 612 LINE",
"435 391 LINE"
);
}
);
width = 727;
}
);
leftKerningGroup = "GUJ_lVocalic-L";
unicode = 0A8C;
script = gujarati;
category = Letter;
subCategory = Matra;
},
{
glyphname = "ka-gujarati";
layers = (
{
anchors = (
{
name = bottom;
position = "{262, 0}";
},
{
name = bottomleft;
position = "{262, -125}";
},
{
name = bottomright;
position = "{278, 0}";
},
{
name = bottomround;
position = "{262, 73}";
},
{
name = top;
position = "{340, 592}";
},
{
name = topright;
position = "{296, 592}";
}
);
layerId = "ACBF538B-D069-4B9F-8DD8-08CC286AACA9";
paths = (
{
closed = 1;
nodes = (
"391 -6 OFFCURVE",
"453 48 OFFCURVE",
"453 129 CURVE SMOOTH",
"453 223 OFFCURVE",
"366 271 OFFCURVE",
"314 285 CURVE",
"254 281 LINE",
"310 260 OFFCURVE",
"364 207 OFFCURVE",
"364 148 CURVE SMOOTH",
"364 94 OFFCURVE",
"325 55 OFFCURVE",
"248 55 CURVE SMOOTH",
"189 55 OFFCURVE",
"139 82 OFFCURVE",
"95 119 CURVE",
"70 82 LINE",
"120 38 OFFCURVE",
"195 -6 OFFCURVE",
"284 -6 CURVE SMOOTH"
);
},
{
closed = 1;
nodes = (
"315 270 LINE",
"488 311 LINE",
"445 382 LINE",
"241 329 LINE",
"68 288 LINE",
"112 216 LINE"
);
},
{
closed = 1;
nodes = (
"293 317 LINE",
"247 347 OFFCURVE",
"206 386 OFFCURVE",
"206 438 CURVE SMOOTH",
"206 498 OFFCURVE",
"258 525 OFFCURVE",
"333 525 CURVE SMOOTH",
"353 525 OFFCURVE",
"373 523 OFFCURVE",
"389 521 CURVE",
"371 598 LINE",
"352 601 OFFCURVE",
"330 603 OFFCURVE",
"309 603 CURVE SMOOTH",
"206 603 OFFCURVE",
"125 554 OFFCURVE",
"125 464 CURVE SMOOTH",
"125 393 OFFCURVE",
"183 340 OFFCURVE",
"240 314 CURVE"
);
}
);
width = 506;
},
{
anchors = (
{
name = bottom;
position = "{282, 0}";
},
{
name = bottomleft;
position = "{282, -125}";
},
{
name = bottomright;
position = "{278, 0}";
},
{
name = bottomround;
position = "{282, 59}";
},
{
name = top;
position = "{349, 592}";
},
{
name = topright;
position = "{301, 592}";
}
);
layerId = "07EDFDFD-5D57-4B5D-B56C-4C47BCD544BF";
paths = (
{
closed = 1;
nodes = (
"391 -6 OFFCURVE",
"450 48 OFFCURVE",
"450 128 CURVE SMOOTH",
"450 218 OFFCURVE",
"374 273 OFFCURVE",
"287 309 CURVE",
"261 298 LINE",
"355 261 OFFCURVE",
"422 209 OFFCURVE",
"422 130 CURVE SMOOTH",
"422 62 OFFCURVE",
"374 19 OFFCURVE",
"289 19 CURVE SMOOTH",
"213 19 OFFCURVE",
"147 53 OFFCURVE",
"93 99 CURVE",
"78 81 LINE",
"128 36 OFFCURVE",
"203 -6 OFFCURVE",
"290 -6 CURVE SMOOTH"
);
},
{
closed = 1;
nodes = (
"298 298 LINE",
"478 343 LINE",
"465 367 LINE",
"267 318 LINE",
"88 273 LINE",
"101 249 LINE"
);
},
{
closed = 1;
nodes = (
"280 313 LINE",
"220 344 OFFCURVE",
"161 384 OFFCURVE",
"161 458 CURVE SMOOTH",
"161 539 OFFCURVE",
"227 578 OFFCURVE",
"315 578 CURVE SMOOTH",
"341 578 OFFCURVE",
"364 576 OFFCURVE",
"385 573 CURVE",
"379 598 LINE",
"360 601 OFFCURVE",
"336 603 OFFCURVE",
"314 603 CURVE SMOOTH",
"208 603 OFFCURVE",
"133 548 OFFCURVE",
"133 460 CURVE SMOOTH",
"133 380 OFFCURVE",
"196 335 OFFCURVE",
"253 305 CURVE"
);
}
);
width = 500;
},
{
anchors = (
{
name = bottom;
position = "{310, 0}";
},
{
name = bottomleft;
position = "{310, -125}";
},
{
name = bottomright;
position = "{315, 0}";
},
{
name = bottomround;
position = "{310, 71}";
},
{
name = top;
position = "{388, 592}";
},
{
name = topright;
position = "{329, 592}";
}
);
layerId = "939FCF6B-2DD7-48E5-8D7B-BBFD097386C5";
paths = (
{
closed = 1;
nodes = (
"462 -7 OFFCURVE",
"525 46 OFFCURVE",
"525 126 CURVE SMOOTH",
"525 217 OFFCURVE",
"433 265 OFFCURVE",
"360 282 CURVE",
"306 267 LINE",
"335 254 OFFCURVE",
"364 222 OFFCURVE",
"364 186 CURVE SMOOTH",
"364 146 OFFCURVE",
"334 117 OFFCURVE",
"274 117 CURVE SMOOTH",
"213 117 OFFCURVE",
"161 139 OFFCURVE",
"115 168 CURVE",
"74 113 LINE",
"151 47 OFFCURVE",
"238 -7 OFFCURVE",
"355 -7 CURVE SMOOTH"
);
},
{
closed = 1;
nodes = (
"369 247 LINE",
"556 286 LINE",
"479 417 LINE",
"275 364 LINE",
"81 321 LINE",
"158 191 LINE"
);
},
{
closed = 1;
nodes = (
"352 328 LINE",
"319 347 OFFCURVE",
"295 367 OFFCURVE",
"295 403 CURVE SMOOTH",
"295 446 OFFCURVE",
"330 471 OFFCURVE",
"388 471 CURVE SMOOTH",
"417 471 OFFCURVE",
"441 468 OFFCURVE",
"461 464 CURVE",
"433 600 LINE",
"407 604 OFFCURVE",
"380 607 OFFCURVE",
"345 607 CURVE SMOOTH",
"232 607 OFFCURVE",
"153 555 OFFCURVE",
"153 466 CURVE SMOOTH",
"153 389 OFFCURVE",
"224 338 OFFCURVE",
"294 313 CURVE"
);
}
);
width = 570;
},
{
anchors = (
{
name = bottom;
position = "{291, 0}";
},
{
name = bottomleft;
position = "{288, -125}";
},
{
name = bottomright;
position = "{299, 0}";
},
{
name = bottomround;
position = "{288, 72}";
},
{
name = top;
position = "{367, 592}";
},
{
name = topright;
position = "{315, 592}";
}
);
layerId = "419046E3-5D27-4998-A2CB-16719C068B75";
paths = (
{
closed = 1;
nodes = (
"432 -6 OFFCURVE",
"494 47 OFFCURVE",
"494 127 CURVE SMOOTH",
"494 220 OFFCURVE",
"404 267 OFFCURVE",
"340 283 CURVE",
"284 273 LINE",
"324 256 OFFCURVE",
"363 215 OFFCURVE",
"363 170 CURVE SMOOTH",
"363 124 OFFCURVE",
"330 91 OFFCURVE",
"262 91 CURVE SMOOTH",
"202 91 OFFCURVE",
"151 115 OFFCURVE",
"106 147 CURVE",
"72 100 LINE",
"137 43 OFFCURVE",
"219 -6 OFFCURVE",
"325 -6 CURVE SMOOTH"
);
},
{
closed = 1;
nodes = (
"346 256 LINE",
"527 296 LINE",
"464 402 LINE",
"260 349 LINE",
"75 307 LINE",
"138 202 LINE"
);
},
{
closed = 1;
nodes = (
"327 324 LINE",
"288 347 OFFCURVE",
"257 375 OFFCURVE",
"257 417 CURVE SMOOTH",
"257 468 OFFCURVE",
"299 494 OFFCURVE",
"364 494 CURVE SMOOTH",
"389 494 OFFCURVE",
"412 491 OFFCURVE",
"430 488 CURVE",
"406 599 LINE",
"383 603 OFFCURVE",
"358 605 OFFCURVE",
"329 605 CURVE SMOOTH",
"220 605 OFFCURVE",
"141 555 OFFCURVE",
"141 465 CURVE SMOOTH",
"141 391 OFFCURVE",
"206 339 OFFCURVE",
"271 313 CURVE"
);
}
);
width = 543;
}
);
leftKerningGroup = "GUJ_ka-L";
rightKerningGroup = "GUJ_ka-R";
unicode = 0A95;
script = gujarati;
category = Letter;
subCategory = Other;
},
{
glyphname = "kha-gujarati";
layers = (
{
anchors = (
{
name = bottom;
position = "{633, 0}";
},
{
name = bottomleft;
position = "{290, 44}";
},
{
name = bottomright;
position = "{734, 0}";
},
{
name = top;
position = "{634, 592}";
},
{
name = topright;
position = "{634, 592}";
}
);
layerId = "ACBF538B-D069-4B9F-8DD8-08CC286AACA9";
paths = (
{
closed = 1;
nodes = (
"370 156 OFFCURVE",
"447 219 OFFCURVE",
"447 334 CURVE SMOOTH",
"447 417 OFFCURVE",
"412 453 OFFCURVE",
"376 453 CURVE SMOOTH",
"348 453 OFFCURVE",
"330 431 OFFCURVE",
"330 402 CURVE SMOOTH",
"330 366 OFFCURVE",
"358 331 OFFCURVE",
"415 289 CURVE SMOOTH",
"464 253 OFFCURVE",
"508 233 OFFCURVE",
"550 233 CURVE SMOOTH",
"570 233 OFFCURVE",
"588 237 OFFCURVE",
"600 244 CURVE",
"596 336 LINE",
"584 320 OFFCURVE",
"560 304 OFFCURVE",
"517 304 CURVE SMOOTH",
"463 304 OFFCURVE",
"425 316 OFFCURVE",
"367 345 CURVE",
"367 264 OFFCURVE",
"308 223 OFFCURVE",
"252 223 CURVE SMOOTH",
"195 223 OFFCURVE",
"189 245 OFFCURVE",
"189 331 CURVE SMOOTH",
"189 456 LINE SMOOTH",
"189 499 OFFCURVE",
"182 513 OFFCURVE",
"142 557 CURVE SMOOTH",
"119 582 OFFCURVE",
"97 603 OFFCURVE",
"50 603 CURVE SMOOTH",
"18 603 OFFCURVE",
"-5 595 OFFCURVE",
"-18 589 CURVE",
"20 513 LINE",
"49 524 OFFCURVE",
"78 532 OFFCURVE",
"108 535 CURVE",
"108 367 LINE SMOOTH",
"108 292 OFFCURVE",
"117 269 OFFCURVE",
"162 221 CURVE SMOOTH",
"200 180 OFFCURVE",
"232 156 OFFCURVE",
"290 156 CURVE SMOOTH"
);
},
{
closed = 1;
nodes = (
"760 -5 OFFCURVE",
"785 12 OFFCURVE",
"801 25 CURVE",
"760 93 LINE",
"738 67 OFFCURVE",
"707 51 OFFCURVE",
"683 51 CURVE SMOOTH",
"677 51 OFFCURVE",
"674 53 OFFCURVE",
"674 61 CURVE SMOOTH",
"674 579 LINE",
"593 612 LINE",
"593 125 LINE SMOOTH",
"593 85 OFFCURVE",
"603 63 OFFCURVE",
"645 31 CURVE SMOOTH",
"674 9 OFFCURVE",
"697 -5 OFFCURVE",
"728 -5 CURVE SMOOTH"
);
}
);
width = 759;
},
{
anchors = (
{
name = bottom;
position = "{639, 0}";
},
{
name = bottomleft;
position = "{241, 63}";
},
{
name = bottomright;
position = "{639, 0}";
},
{
name = top;
position = "{639, 592}";
},
{
name = topright;
position = "{639, 592}";
}
);
layerId = "07EDFDFD-5D57-4B5D-B56C-4C47BCD544BF";
paths = (
{
closed = 1;
nodes = (
"368 174 OFFCURVE",
"432 254 OFFCURVE",
"432 351 CURVE SMOOTH",
"432 404 OFFCURVE",
"413 429 OFFCURVE",
"387 429 CURVE SMOOTH",
"368 429 OFFCURVE",
"354 414 OFFCURVE",
"354 390 CURVE SMOOTH",
"354 358 OFFCURVE",
"378 326 OFFCURVE",
"413 301 CURVE SMOOTH",
"450 274 OFFCURVE",
"500 256 OFFCURVE",
"543 256 CURVE SMOOTH",
"581 256 OFFCURVE",
"609 263 OFFCURVE",
"633 277 CURVE",
"633 311 LINE",
"605 291 OFFCURVE",
"578 280 OFFCURVE",
"542 280 CURVE SMOOTH",
"486 280 OFFCURVE",
"437 304 OFFCURVE",
"402 332 CURVE",
"402 266 OFFCURVE",
"357 199 OFFCURVE",
"276 199 CURVE SMOOTH",
"207 199 OFFCURVE",
"158 248 OFFCURVE",
"158 333 CURVE SMOOTH",
"158 563 LINE SMOOTH",
"158 578 OFFCURVE",
"156 587 OFFCURVE",
"148 593 CURVE SMOOTH",
"139 600 OFFCURVE",
"130 603 OFFCURVE",
"112 603 CURVE SMOOTH",
"81 603 OFFCURVE",
"44 596 OFFCURVE",
"20 589 CURVE",
"32 562 LINE",
"65 573 OFFCURVE",
"97 581 OFFCURVE",
"130 584 CURVE",
"130 335 LINE SMOOTH",
"130 281 OFFCURVE",
"154 235 OFFCURVE",
"189 206 CURVE SMOOTH",
"214 186 OFFCURVE",
"245 174 OFFCURVE",
"277 174 CURVE SMOOTH"
);
},
{
closed = 1;
nodes = (
"719 -5 OFFCURVE",
"744 13 OFFCURVE",
"768 35 CURVE",
"751 61 LINE",
"729 36 OFFCURVE",
"702 20 OFFCURVE",
"676 20 CURVE SMOOTH",
"662 20 OFFCURVE",
"652 26 OFFCURVE",
"652 42 CURVE SMOOTH",
"652 594 LINE",
"625 607 LINE",
"625 55 LINE SMOOTH",
"625 34 OFFCURVE",
"633 18 OFFCURVE",
"646 8 CURVE SMOOTH",
"656 0 OFFCURVE",
"669 -5 OFFCURVE",
"684 -5 CURVE SMOOTH"
);
}
);
width = 730;
},
{
anchors = (
{
name = bottom;
position = "{683, 0}";
},
{
name = bottomleft;
position = "{235, 34}";
},
{
name = bottomright;
position = "{683, 0}";
},
{
name = top;
position = "{683, 592}";
},
{
name = topright;
position = "{683, 592}";
}
);
layerId = "939FCF6B-2DD7-48E5-8D7B-BBFD097386C5";
paths = (
{
closed = 1;
nodes = (
"463 121 OFFCURVE",
"524 216 OFFCURVE",
"524 332 CURVE SMOOTH",
"524 434 OFFCURVE",
"478 487 OFFCURVE",
"419 487 CURVE SMOOTH",
"378 487 OFFCURVE",
"350 458 OFFCURVE",
"350 412 CURVE SMOOTH",
"350 357 OFFCURVE",
"389 307 OFFCURVE",
"444 272 CURVE SMOOTH",
"491 244 OFFCURVE",
"550 226 OFFCURVE",
"607 226 CURVE SMOOTH",
"645 226 OFFCURVE",
"687 236 OFFCURVE",
"718 252 CURVE",
"675 401 LINE",
"637 355 OFFCURVE",
"597 336 OFFCURVE",
"540 336 CURVE SMOOTH",
"494 336 OFFCURVE",
"449 348 OFFCURVE",
"387 381 CURVE",
"387 275 OFFCURVE",
"360 221 OFFCURVE",
"313 221 CURVE SMOOTH",
"282 221 OFFCURVE",
"269 243 OFFCURVE",
"269 295 CURVE SMOOTH",
"269 397 LINE SMOOTH",
"269 464 OFFCURVE",
"242 505 OFFCURVE",
"202 544 CURVE SMOOTH",
"165 580 OFFCURVE",
"118 603 OFFCURVE",
"68 603 CURVE SMOOTH",
"23 603 OFFCURVE",
"-10 592 OFFCURVE",
"-34 580 CURVE",
"27 446 LINE",
"53 461 OFFCURVE",
"87 472 OFFCURVE",
"117 476 CURVE",
"117 351 LINE SMOOTH",
"117 295 OFFCURVE",
"132 264 OFFCURVE",
"197 204 CURVE SMOOTH",
"262 144 OFFCURVE",
"299 121 OFFCURVE",
"349 121 CURVE SMOOTH"
);
},
{
closed = 1;
nodes = (
"858 -5 OFFCURVE",
"888 13 OFFCURVE",
"910 35 CURVE",
"848 154 LINE",
"820 120 OFFCURVE",
"790 100 OFFCURVE",
"768 100 CURVE SMOOTH",
"762 100 OFFCURVE",
"758 102 OFFCURVE",
"758 109 CURVE SMOOTH",
"758 579 LINE",
"607 612 LINE",
"607 167 LINE SMOOTH",
"607 109 OFFCURVE",
"643 76 OFFCURVE",
"686 46 CURVE SMOOTH",
"733 13 OFFCURVE",
"772 -5 OFFCURVE",
"817 -5 CURVE SMOOTH"
);
}
);
visible = 1;
width = 864;
},
{
anchors = (
{
name = bottom;
position = "{662, 0}";
},
{
name = bottomleft;
position = "{258, 38}";
},
{
name = bottomright;
position = "{662, 0}";
},
{
name = top;
position = "{662, 592}";
},
{
name = topright;
position = "{662, 592}";
}
);
layerId = "419046E3-5D27-4998-A2CB-16719C068B75";
paths = (
{
closed = 1;
nodes = (
"423 136 OFFCURVE",
"491 218 OFFCURVE",
"491 333 CURVE SMOOTH",
"491 426 OFFCURVE",
"450 473 OFFCURVE",
"401 473 CURVE SMOOTH",
"365 473 OFFCURVE",
"341 446 OFFCURVE",
"341 408 CURVE SMOOTH",
"341 361 OFFCURVE",
"375 317 OFFCURVE",
"432 279 CURVE SMOOTH",
"479 247 OFFCURVE",
"532 229 OFFCURVE",
"583 229 CURVE SMOOTH",
"613 229 OFFCURVE",
"645 236 OFFCURVE",
"668 249 CURVE",
"642 374 LINE",
"614 340 OFFCURVE",
"581 323 OFFCURVE",
"529 323 CURVE SMOOTH",
"480 323 OFFCURVE",
"438 334 OFFCURVE",
"378 366 CURVE",
"378 271 OFFCURVE",
"337 222 OFFCURVE",
"287 222 CURVE SMOOTH",
"245 222 OFFCURVE",
"235 244 OFFCURVE",
"235 310 CURVE SMOOTH",
"235 422 LINE SMOOTH",
"235 479 OFFCURVE",
"217 508 OFFCURVE",
"176 550 CURVE SMOOTH",
"146 581 OFFCURVE",
"108 603 OFFCURVE",
"61 603 CURVE SMOOTH",
"21 603 OFFCURVE",
"-8 593 OFFCURVE",
"-28 583 CURVE",
"23 474 LINE",
"51 487 OFFCURVE",
"83 497 OFFCURVE",
"113 500 CURVE",
"113 357 LINE SMOOTH",
"113 294 OFFCURVE",
"125 266 OFFCURVE",
"182 211 CURVE SMOOTH",
"235 159 OFFCURVE",
"271 136 OFFCURVE",
"324 136 CURVE SMOOTH"
);
},
{
closed = 1;
nodes = (
"816 -5 OFFCURVE",
"844 13 OFFCURVE",
"864 31 CURVE",
"811 128 LINE",
"785 98 OFFCURVE",
"754 79 OFFCURVE",
"732 79 CURVE SMOOTH",
"726 79 OFFCURVE",
"723 82 OFFCURVE",
"723 89 CURVE SMOOTH",
"723 579 LINE",
"601 612 LINE",
"601 149 LINE SMOOTH",
"601 99 OFFCURVE",
"625 71 OFFCURVE",
"668 40 CURVE SMOOTH",
"708 11 OFFCURVE",
"740 -5 OFFCURVE",
"779 -5 CURVE SMOOTH"
);
}
);
width = 820;
}
);
leftKerningGroup = "GUJ_kha-L";
rightKerningGroup = "GUJ_kana-R";
unicode = 0A96;
script = gujarati;
category = Letter;
subCategory = Other;
},
{
glyphname = "ga-gujarati";
layers = (
{
anchors = (
{
name = bottom;
position = "{584, 0}";
},
{
name = bottomleft;
position = "{192, 63}";
},
{
name = bottomright;
position = "{584, 0}";
},
{
name = top;
position = "{484, 592}";
},
{
name = topright;
position = "{484, 592}";
}
);
layerId = "ACBF538B-D069-4B9F-8DD8-08CC286AACA9";
paths = (
{
closed = 1;
nodes = (
"292 194 OFFCURVE",
"357 269 OFFCURVE",
"357 367 CURVE SMOOTH",
"357 433 OFFCURVE",
"343 469 OFFCURVE",
"291 529 CURVE SMOOTH",
"244 583 OFFCURVE",
"202 603 OFFCURVE",
"148 603 CURVE SMOOTH",
"122 603 OFFCURVE",
"87 597 OFFCURVE",
"59 582 CURVE",
"110 502 LINE",
"134 517 OFFCURVE",
"164 527 OFFCURVE",
"191 527 CURVE SMOOTH",
"245 527 OFFCURVE",
"280 498 OFFCURVE",
"280 411 CURVE SMOOTH",
"280 329 OFFCURVE",
"238 266 OFFCURVE",
"164 266 CURVE SMOOTH",
"115 266 OFFCURVE",
"83 292 OFFCURVE",
"52 341 CURVE",
"16 316 LINE",
"51 254 OFFCURVE",
"106 194 OFFCURVE",
"192 194 CURVE SMOOTH"
);
},
{
closed = 1;
nodes = (
"610 -5 OFFCURVE",
"635 12 OFFCURVE",
"651 25 CURVE",
"610 93 LINE",
"588 67 OFFCURVE",
"557 51 OFFCURVE",
"533 51 CURVE SMOOTH",
"527 51 OFFCURVE",
"524 53 OFFCURVE",
"524 61 CURVE SMOOTH",
"524 579 LINE",
"443 612 LINE",
"443 125 LINE SMOOTH",
"443 82 OFFCURVE",
"455 63 OFFCURVE",
"495 31 CURVE SMOOTH",
"524 8 OFFCURVE",
"547 -5 OFFCURVE",
"578 -5 CURVE SMOOTH"
);
}
);
width = 609;
},
{
anchors = (
{
name = bottom;
position = "{488, 0}";
},
{
name = bottomleft;
position = "{208, 83}";
},
{
name = bottomright;
position = "{488, 0}";
},
{
name = top;
position = "{486, 592}";
},
{
name = topright;
position = "{486, 592}";
}
);
layerId = "07EDFDFD-5D57-4B5D-B56C-4C47BCD544BF";
paths = (
{
closed = 1;
nodes = (
"310 194 OFFCURVE",
"374 282 OFFCURVE",
"374 391 CURVE SMOOTH",
"374 449 OFFCURVE",
"353 505 OFFCURVE",
"314 546 CURVE SMOOTH",
"282 580 OFFCURVE",
"237 603 OFFCURVE",
"185 603 CURVE SMOOTH",
"148 603 OFFCURVE",
"114 593 OFFCURVE",
"80 577 CURVE",
"92 553 LINE",
"127 569 OFFCURVE",
"157 578 OFFCURVE",
"186 578 CURVE SMOOTH",
"291 578 OFFCURVE",
"347 487 OFFCURVE",
"347 393 CURVE SMOOTH",
"347 296 OFFCURVE",
"293 218 OFFCURVE",
"197 218 CURVE SMOOTH",
"116 218 OFFCURVE",
"78 269 OFFCURVE",
"41 326 CURVE",
"22 313 LINE",
"61 248 OFFCURVE",
"109 194 OFFCURVE",
"198 194 CURVE SMOOTH"
);
},
{
closed = 1;
nodes = (
"566 -5 OFFCURVE",
"591 13 OFFCURVE",
"615 35 CURVE",
"599 61 LINE",
"576 36 OFFCURVE",
"549 20 OFFCURVE",
"523 20 CURVE SMOOTH",
"509 20 OFFCURVE",
"500 26 OFFCURVE",
"500 42 CURVE SMOOTH",
"500 594 LINE",
"472 607 LINE",
"472 55 LINE SMOOTH",
"472 34 OFFCURVE",
"480 18 OFFCURVE",
"493 8 CURVE SMOOTH",
"503 0 OFFCURVE",
"517 -5 OFFCURVE",
"531 -5 CURVE SMOOTH"
);
}
);
width = 579;
},
{
anchors = (
{
name = bottom;
position = "{552, 0}";
},
{
name = bottomleft;
position = "{230, 34}";
},
{
name = bottomright;
position = "{552, 0}";
},
{
name = top;
position = "{552, 592}";
},
{
name = topright;
position = "{552, 592}";
}
);
layerId = "939FCF6B-2DD7-48E5-8D7B-BBFD097386C5";
paths = (
{
closed = 1;
nodes = (
"350 159 OFFCURVE",
"409 240 OFFCURVE",
"409 338 CURVE SMOOTH",
"409 413 OFFCURVE",
"383 459 OFFCURVE",
"328 520 CURVE SMOOTH",
"277 577 OFFCURVE",
"223 607 OFFCURVE",
"160 607 CURVE SMOOTH",
"111 607 OFFCURVE",
"77 594 OFFCURVE",
"46 577 CURVE",
"129 447 LINE",
"154 473 OFFCURVE",
"185 493 OFFCURVE",
"219 493 CURVE SMOOTH",
"260 493 OFFCURVE",
"276 464 OFFCURVE",
"276 418 CURVE SMOOTH",
"276 345 OFFCURVE",
"235 282 OFFCURVE",
"166 282 CURVE SMOOTH",
"121 282 OFFCURVE",
"93 309 OFFCURVE",
"68 350 CURVE",
"12 313 LINE",
"62 223 OFFCURVE",
"134 159 OFFCURVE",
"243 159 CURVE SMOOTH"
);
},
{
closed = 1;
nodes = (
"727 -7 OFFCURVE",
"757 11 OFFCURVE",
"779 33 CURVE",
"717 152 LINE",
"689 118 OFFCURVE",
"659 98 OFFCURVE",
"637 98 CURVE SMOOTH",
"631 98 OFFCURVE",
"627 100 OFFCURVE",
"627 107 CURVE SMOOTH",
"627 569 LINE",
"476 603 LINE",
"476 165 LINE SMOOTH",
"476 107 OFFCURVE",
"512 74 OFFCURVE",
"555 44 CURVE SMOOTH",
"603 11 OFFCURVE",
"642 -7 OFFCURVE",
"687 -7 CURVE SMOOTH"
);
}
);
width = 733;
},
{
anchors = (
{
name = bottom;
position = "{524, 0}";
},
{
name = bottomleft;
position = "{214, 46}";
},
{
name = bottomright;
position = "{524, 0}";
},
{
name = top;
position = "{523, 592}";
},
{
name = topright;
position = "{523, 592}";
}
);
layerId = "419046E3-5D27-4998-A2CB-16719C068B75";
paths = (
{
closed = 1;
nodes = (
"326 174 OFFCURVE",
"387 252 OFFCURVE",
"387 350 CURVE SMOOTH",
"387 421 OFFCURVE",
"367 464 OFFCURVE",
"313 523 CURVE SMOOTH",
"262 579 OFFCURVE",
"214 605 OFFCURVE",
"155 605 CURVE SMOOTH",
"116 605 OFFCURVE",
"82 596 OFFCURVE",
"52 579 CURVE",
"122 470 LINE",
"146 492 OFFCURVE",
"176 507 OFFCURVE",
"208 507 CURVE SMOOTH",
"254 507 OFFCURVE",
"278 479 OFFCURVE",
"278 415 CURVE SMOOTH",
"278 338 OFFCURVE",
"237 275 OFFCURVE",
"165 275 CURVE SMOOTH",
"119 275 OFFCURVE",
"89 302 OFFCURVE",
"62 346 CURVE",
"14 314 LINE",
"58 236 OFFCURVE",
"123 174 OFFCURVE",
"222 174 CURVE SMOOTH"
);
},
{
closed = 1;
nodes = (
"678 -6 OFFCURVE",
"706 11 OFFCURVE",
"726 30 CURVE",
"672 127 LINE",
"647 96 OFFCURVE",
"616 78 OFFCURVE",
"594 78 CURVE SMOOTH",
"588 78 OFFCURVE",
"584 81 OFFCURVE",
"584 88 CURVE SMOOTH",
"584 573 LINE",
"463 606 LINE",
"463 148 LINE SMOOTH",
"463 98 OFFCURVE",
"487 70 OFFCURVE",
"530 39 CURVE SMOOTH",
"570 10 OFFCURVE",
"603 -6 OFFCURVE",
"642 -6 CURVE SMOOTH"
);
}
);
width = 682;
}
);
leftKerningGroup = "GUJ_ga-L";
rightKerningGroup = "GUJ_kana-R";
unicode = 0A97;
script = gujarati;
category = Letter;
subCategory = Other;
},
{
glyphname = "gha-gujarati";
layers = (
{
anchors = (
{
name = bottom;
position = "{462, 0}";
},
{
name = bottomleft;
position = "{277, 0}";
},
{
name = bottomright;
position = "{563, 0}";
},
{
name = top;
position = "{462, 592}";
},
{
name = topright;
position = "{462, 592}";
}
);
layerId = "ACBF538B-D069-4B9F-8DD8-08CC286AACA9";
paths = (
{
closed = 1;
nodes = (
"333 104 OFFCURVE",
"387 126 OFFCURVE",
"429 159 CURVE",
"429 255 LINE",
"398 215 OFFCURVE",
"314 172 OFFCURVE",
"241 172 CURVE SMOOTH",
"179 172 OFFCURVE",
"159 198 OFFCURVE",
"159 238 CURVE SMOOTH",
"159 295 OFFCURVE",
"226 325 OFFCURVE",
"319 325 CURVE",
"285 399 LINE",
"187 399 OFFCURVE",
"86 354 OFFCURVE",
"86 271 CURVE SMOOTH",
"86 222 OFFCURVE",
"115 184 OFFCURVE",
"149 156 CURVE SMOOTH",
"183 128 OFFCURVE",
"217 104 OFFCURVE",
"277 104 CURVE SMOOTH"
);
},
{
closed = 1;
nodes = (
"196 372 LINE",
"157 394 OFFCURVE",
"130 422 OFFCURVE",
"130 459 CURVE SMOOTH",
"130 508 OFFCURVE",
"170 529 OFFCURVE",
"224 529 CURVE SMOOTH",
"243 529 OFFCURVE",
"263 526 OFFCURVE",
"282 521 CURVE",
"270 600 LINE",
"250 604 OFFCURVE",
"225 608 OFFCURVE",
"207 608 CURVE SMOOTH",
"106 608 OFFCURVE",
"52 556 OFFCURVE",
"52 490 CURVE SMOOTH",
"52 424 OFFCURVE",
"104 380 OFFCURVE",
"165 349 CURVE"
);
},
{
closed = 1;
nodes = (
"588 -5 OFFCURVE",
"613 12 OFFCURVE",
"630 25 CURVE",
"588 93 LINE",
"566 67 OFFCURVE",
"535 51 OFFCURVE",
"512 51 CURVE SMOOTH",
"506 51 OFFCURVE",
"502 53 OFFCURVE",
"502 61 CURVE SMOOTH",
"502 579 LINE",
"422 612 LINE",
"422 125 LINE SMOOTH",
"422 85 OFFCURVE",
"431 63 OFFCURVE",
"473 31 CURVE SMOOTH",
"502 9 OFFCURVE",
"526 -5 OFFCURVE",
"557 -5 CURVE SMOOTH"
);
}
);
width = 588;
},
{
anchors = (
{
name = bottom;
position = "{465, 0}";
},
{
name = bottomleft;
position = "{247, 0}";
},
{
name = bottomright;
position = "{465, 0}";
},
{
name = top;
position = "{463, 592}";
},
{
name = topright;
position = "{463, 592}";
}
);
layerId = "07EDFDFD-5D57-4B5D-B56C-4C47BCD544BF";
paths = (
{
closed = 1;
nodes = (
"343 109 OFFCURVE",
"407 138 OFFCURVE",
"458 179 CURVE",
"458 214 LINE",
"406 167 OFFCURVE",
"343 134 OFFCURVE",
"269 134 CURVE SMOOTH",
"178 134 OFFCURVE",
"118 173 OFFCURVE",
"118 243 CURVE SMOOTH",
"118 313 OFFCURVE",
"179 360 OFFCURVE",
"300 362 CURVE",
"291 386 LINE",
"161 383 OFFCURVE",
"90 328 OFFCURVE",
"90 245 CURVE SMOOTH",
"90 204 OFFCURVE",
"112 168 OFFCURVE",
"146 144 CURVE SMOOTH",
"178 122 OFFCURVE",
"222 109 OFFCURVE",
"270 109 CURVE SMOOTH"
);
},
{
closed = 1;
nodes = (
"184 359 LINE",
"131 388 OFFCURVE",
"83 428 OFFCURVE",
"83 488 CURVE SMOOTH",
"83 547 OFFCURVE",
"132 583 OFFCURVE",
"208 583 CURVE SMOOTH",
"231 583 OFFCURVE",
"256 580 OFFCURVE",
"277 575 CURVE",
"273 600 LINE",
"258 604 OFFCURVE",
"234 608 OFFCURVE",
"207 608 CURVE SMOOTH",
"121 608 OFFCURVE",
"56 563 OFFCURVE",
"56 490 CURVE SMOOTH",
"56 422 OFFCURVE",
"110 379 OFFCURVE",
"166 346 CURVE"
);
},
{
closed = 1;
nodes = (
"543 -5 OFFCURVE",
"568 13 OFFCURVE",
"592 35 CURVE",
"576 61 LINE",
"553 36 OFFCURVE",
"526 20 OFFCURVE",
"500 20 CURVE SMOOTH",
"486 20 OFFCURVE",
"477 26 OFFCURVE",
"477 42 CURVE SMOOTH",
"477 594 LINE",
"449 607 LINE",
"449 55 LINE SMOOTH",
"449 34 OFFCURVE",
"458 18 OFFCURVE",
"470 8 CURVE SMOOTH",
"480 0 OFFCURVE",
"494 -5 OFFCURVE",
"508 -5 CURVE SMOOTH"
);
}
);
width = 556;
},
{
anchors = (
{
name = bottom;
position = "{477, 0}";
},
{
name = bottomleft;
position = "{263, 0}";
},
{
name = bottomright;
position = "{477, 0}";
},
{
name = top;
position = "{477, 592}";
},
{
name = topright;
position = "{477, 592}";
}
);
layerId = "939FCF6B-2DD7-48E5-8D7B-BBFD097386C5";
paths = (
{
closed = 1;
nodes = (
"377 74 OFFCURVE",
"423 94 OFFCURVE",
"464 127 CURVE",
"464 323 LINE",
"405 242 OFFCURVE",
"312 190 OFFCURVE",
"240 190 CURVE SMOOTH",
"214 190 OFFCURVE",
"200 200 OFFCURVE",
"200 218 CURVE SMOOTH",
"200 257 OFFCURVE",
"253 278 OFFCURVE",
"354 290 CURVE",
"295 415 LINE",
"169 407 OFFCURVE",
"73 355 OFFCURVE",
"73 264 CURVE SMOOTH",
"73 214 OFFCURVE",
"105 166 OFFCURVE",
"153 131 CURVE SMOOTH",
"200 96 OFFCURVE",
"260 74 OFFCURVE",
"317 74 CURVE SMOOTH"
);
},
{
closed = 1;
nodes = (
"213 372 LINE",
"195 385 OFFCURVE",
"182 402 OFFCURVE",
"182 424 CURVE SMOOTH",
"182 454 OFFCURVE",
"205 471 OFFCURVE",
"240 471 CURVE SMOOTH",
"264 471 OFFCURVE",
"283 468 OFFCURVE",
"301 463 CURVE",
"272 599 LINE",
"245 604 OFFCURVE",
"216 607 OFFCURVE",
"186 607 CURVE SMOOTH",
"96 607 OFFCURVE",
"40 565 OFFCURVE",
"40 492 CURVE SMOOTH",
"40 421 OFFCURVE",
"95 376 OFFCURVE",
"158 348 CURVE"
);
},
{
closed = 1;
nodes = (
"652 -5 OFFCURVE",
"682 13 OFFCURVE",
"704 35 CURVE",
"642 154 LINE",
"614 120 OFFCURVE",
"584 100 OFFCURVE",
"562 100 CURVE SMOOTH",
"556 100 OFFCURVE",
"552 102 OFFCURVE",
"552 109 CURVE SMOOTH",
"552 579 LINE",
"401 612 LINE",
"401 167 LINE SMOOTH",
"401 109 OFFCURVE",
"437 76 OFFCURVE",
"480 46 CURVE SMOOTH",
"527 13 OFFCURVE",
"566 -5 OFFCURVE",
"611 -5 CURVE SMOOTH"
);
}
);
width = 658;
},
{
anchors = (
{
name = bottom;
position = "{470, 0}";
},
{
name = bottomleft;
position = "{268, 0}";
},
{
name = bottomright;
position = "{470, 0}";
},
{
name = top;
position = "{470, 592}";
},
{
name = topright;
position = "{470, 592}";
}
);
layerId = "419046E3-5D27-4998-A2CB-16719C068B75";
paths = (
{
closed = 1;
nodes = (
"358 86 OFFCURVE",
"407 107 OFFCURVE",
"448 141 CURVE",
"448 294 LINE",
"401 231 OFFCURVE",
"312 183 OFFCURVE",
"239 183 CURVE SMOOTH",
"199 183 OFFCURVE",
"182 199 OFFCURVE",
"182 227 CURVE SMOOTH",
"182 273 OFFCURVE",
"241 298 OFFCURVE",
"338 305 CURVE",
"290 409 LINE",
"176 404 OFFCURVE",
"78 355 OFFCURVE",
"78 267 CURVE SMOOTH",
"78 217 OFFCURVE",
"108 175 OFFCURVE",
"150 142 CURVE SMOOTH",
"193 109 OFFCURVE",
"241 86 OFFCURVE",
"299 86 CURVE SMOOTH"
);
},
{
closed = 1;
nodes = (
"205 372 LINE",
"178 389 OFFCURVE",
"159 410 OFFCURVE",
"159 439 CURVE SMOOTH",
"159 477 OFFCURVE",
"189 496 OFFCURVE",
"232 496 CURVE SMOOTH",
"254 496 OFFCURVE",
"273 493 OFFCURVE",
"292 487 CURVE",
"270 599 LINE",
"246 604 OFFCURVE",
"219 607 OFFCURVE",
"193 607 CURVE SMOOTH",
"99 607 OFFCURVE",
"44 561 OFFCURVE",
"44 491 CURVE SMOOTH",
"44 422 OFFCURVE",
"98 378 OFFCURVE",
"160 348 CURVE"
);
},
{
closed = 1;
nodes = (
"624 -5 OFFCURVE",
"652 13 OFFCURVE",
"672 31 CURVE",
"619 128 LINE",
"593 98 OFFCURVE",
"562 79 OFFCURVE",
"540 79 CURVE SMOOTH",
"534 79 OFFCURVE",
"530 82 OFFCURVE",
"530 89 CURVE SMOOTH",
"530 579 LINE",
"409 612 LINE",
"409 149 LINE SMOOTH",
"409 99 OFFCURVE",
"433 71 OFFCURVE",
"476 40 CURVE SMOOTH",
"516 11 OFFCURVE",
"548 -5 OFFCURVE",
"587 -5 CURVE SMOOTH"
);
}
);
width = 628;
}
);
leftKerningGroup = "GUJ_gha-L";
rightKerningGroup = "GUJ_kana-R";
unicode = 0A98;
script = gujarati;
category = Letter;
subCategory = Other;
},
{
glyphname = "nga-gujarati";
layers = (
{
anchors = (
{
name = bottom;
position = "{271, 0}";
},
{
name = bottomleft;
position = "{271, -125}";
},
{
name = bottomright;
position = "{262, 0}";
},
{
name = bottomround;
position = "{271, 73}";
},
{
name = top;
position = "{351, 592}";
},
{
name = topright;
position = "{283, 592}";
}
);
layerId = "ACBF538B-D069-4B9F-8DD8-08CC286AACA9";
paths = (
{
closed = 1;
nodes = (
"385 -5 OFFCURVE",
"467 42 OFFCURVE",
"467 139 CURVE SMOOTH",
"467 325 OFFCURVE",
"212 310 OFFCURVE",
"212 438 CURVE SMOOTH",
"212 498 OFFCURVE",
"264 525 OFFCURVE",
"339 525 CURVE SMOOTH",
"359 525 OFFCURVE",
"379 523 OFFCURVE",
"395 521 CURVE",
"377 598 LINE",
"358 601 OFFCURVE",
"336 603 OFFCURVE",
"315 603 CURVE SMOOTH",
"212 603 OFFCURVE",
"132 554 OFFCURVE",
"132 464 CURVE SMOOTH",
"132 295 OFFCURVE",
"385 306 OFFCURVE",
"385 161 CURVE SMOOTH",
"385 103 OFFCURVE",
"339 69 OFFCURVE",
"273 69 CURVE SMOOTH",
"212 69 OFFCURVE",
"139 102 OFFCURVE",
"70 182 CURVE",
"36 154 LINE",
"92 84 OFFCURVE",
"188 -5 OFFCURVE",
"302 -5 CURVE SMOOTH"
);
},
{
closed = 1;
nodes = (
"465 345 OFFCURVE",
"489 358 OFFCURVE",
"489 401 CURVE SMOOTH",
"489 444 OFFCURVE",
"465 458 OFFCURVE",
"436 458 CURVE SMOOTH",
"407 458 OFFCURVE",
"383 444 OFFCURVE",
"383 401 CURVE SMOOTH",
"383 358 OFFCURVE",
"407 345 OFFCURVE",
"436 345 CURVE SMOOTH"
);
}
);
width = 513;
},
{
anchors = (
{
name = bottom;
position = "{302, 0}";
},
{
name = bottomleft;
position = "{302, -125}";
},
{
name = bottomright;
position = "{260, 0}";
},
{
name = bottomround;
position = "{302, 59}";
},
{
name = top;
position = "{352, 592}";
},
{
name = topright;
position = "{309, 592}";
}
);
layerId = "07EDFDFD-5D57-4B5D-B56C-4C47BCD544BF";
paths = (
{
closed = 1;
nodes = (
"400 -5 OFFCURVE",
"469 56 OFFCURVE",
"469 134 CURVE SMOOTH",
"469 319 OFFCURVE",
"162 308 OFFCURVE",
"162 467 CURVE SMOOTH",
"162 534 OFFCURVE",
"217 578 OFFCURVE",
"310 578 CURVE SMOOTH",
"337 578 OFFCURVE",
"357 576 OFFCURVE",
"386 570 CURVE",
"380 596 LINE",
"357 600 OFFCURVE",
"334 603 OFFCURVE",
"309 603 CURVE SMOOTH",
"207 603 OFFCURVE",
"135 551 OFFCURVE",
"135 469 CURVE SMOOTH",
"135 292 OFFCURVE",
"442 299 OFFCURVE",
"442 136 CURVE SMOOTH",
"442 65 OFFCURVE",
"391 19 OFFCURVE",
"309 19 CURVE SMOOTH",
"205 19 OFFCURVE",
"122 89 OFFCURVE",
"61 167 CURVE",
"42 152 LINE",
"111 67 OFFCURVE",
"201 -5 OFFCURVE",
"310 -5 CURVE SMOOTH"
);
},
{
closed = 1;
nodes = (
"466 386 OFFCURVE",
"478 393 OFFCURVE",
"478 416 CURVE SMOOTH",
"478 439 OFFCURVE",
"466 447 OFFCURVE",
"450 447 CURVE SMOOTH",
"435 447 OFFCURVE",
"422 439 OFFCURVE",
"422 416 CURVE SMOOTH",
"422 393 OFFCURVE",
"435 386 OFFCURVE",
"450 386 CURVE SMOOTH"
);
}
);
width = 502;
},
{
anchors = (
{
name = bottom;
position = "{310, 0}";
},
{
name = bottomleft;
position = "{310, -125}";
},
{
name = bottomright;
position = "{310, 0}";
},
{
name = bottomround;
position = "{310, 71}";
},
{
name = top;
position = "{396, 592}";
},
{
name = topright;
position = "{328, 592}";
}
);
layerId = "939FCF6B-2DD7-48E5-8D7B-BBFD097386C5";
paths = (
{
closed = 1;
nodes = (
"448 -7 OFFCURVE",
"522 41 OFFCURVE",
"522 136 CURVE SMOOTH",
"522 301 OFFCURVE",
"289 318 OFFCURVE",
"289 408 CURVE SMOOTH",
"289 449 OFFCURVE",
"328 469 OFFCURVE",
"383 469 CURVE SMOOTH",
"408 469 OFFCURVE",
"432 466 OFFCURVE",
"451 462 CURVE",
"422 599 LINE",
"395 604 OFFCURVE",
"359 607 OFFCURVE",
"328 607 CURVE SMOOTH",
"216 607 OFFCURVE",
"128 556 OFFCURVE",
"128 457 CURVE SMOOTH",
"128 300 OFFCURVE",
"356 283 OFFCURVE",
"356 178 CURVE SMOOTH",
"356 141 OFFCURVE",
"325 120 OFFCURVE",
"280 120 CURVE SMOOTH",
"217 120 OFFCURVE",
"156 153 OFFCURVE",
"86 215 CURVE",
"32 165 LINE",
"110 76 OFFCURVE",
"204 -7 OFFCURVE",
"353 -7 CURVE SMOOTH"
);
},
{
closed = 1;
nodes = (
"540 303 OFFCURVE",
"572 319 OFFCURVE",
"572 369 CURVE SMOOTH",
"572 419 OFFCURVE",
"540 436 OFFCURVE",
"500 436 CURVE SMOOTH",
"459 436 OFFCURVE",
"427 419 OFFCURVE",
"427 369 CURVE SMOOTH",
"427 319 OFFCURVE",
"459 303 OFFCURVE",
"500 303 CURVE SMOOTH"
);
}
);
width = 590;
},
{
anchors = (
{
name = bottom;
position = "{292, 0}";
},
{
name = bottomleft;
position = "{292, -125}";
},
{
name = bottomright;
position = "{285, 0}";
},
{
name = bottomround;
position = "{292, 72}";
},
{
name = top;
position = "{377, 592}";
},
{
name = topright;
position = "{310, 592}";
}
);
layerId = "419046E3-5D27-4998-A2CB-16719C068B75";
paths = (
{
closed = 1;
nodes = (
"422 -6 OFFCURVE",
"500 42 OFFCURVE",
"500 138 CURVE SMOOTH",
"500 311 OFFCURVE",
"257 315 OFFCURVE",
"257 420 CURVE SMOOTH",
"257 469 OFFCURVE",
"301 493 OFFCURVE",
"365 493 CURVE SMOOTH",
"388 493 OFFCURVE",
"410 490 OFFCURVE",
"428 486 CURVE",
"403 599 LINE",
"380 603 OFFCURVE",
"350 605 OFFCURVE",
"323 605 CURVE SMOOTH",
"215 605 OFFCURVE",
"130 555 OFFCURVE",
"130 460 CURVE SMOOTH",
"130 298 OFFCURVE",
"369 292 OFFCURVE",
"369 171 CURVE SMOOTH",
"369 125 OFFCURVE",
"331 99 OFFCURVE",
"277 99 CURVE SMOOTH",
"215 99 OFFCURVE",
"149 131 OFFCURVE",
"80 201 CURVE",
"34 161 LINE",
"103 80 OFFCURVE",
"197 -6 OFFCURVE",
"332 -6 CURVE SMOOTH"
);
},
{
closed = 1;
nodes = (
"509 320 OFFCURVE",
"537 335 OFFCURVE",
"537 383 CURVE SMOOTH",
"537 430 OFFCURVE",
"509 445 OFFCURVE",
"473 445 CURVE SMOOTH",
"438 445 OFFCURVE",
"409 430 OFFCURVE",
"409 383 CURVE SMOOTH",
"409 335 OFFCURVE",
"438 320 OFFCURVE",
"473 320 CURVE SMOOTH"
);
}
);
width = 559;
}
);
leftKerningGroup = "GUJ_nga-L";
unicode = 0A99;
script = gujarati;
category = Letter;
subCategory = Other;
},
{
glyphname = "ca-gujarati";
layers = (
{
anchors = (
{
name = bottom;
position = "{491, 0}";
},
{
name = bottomleft;
position = "{161, 49}";
},
{
name = bottomright;
position = "{592, 0}";
},
{
name = top;
position = "{492, 592}";
},
{
name = topright;
position = "{492, 592}";
}
);
layerId = "ACBF538B-D069-4B9F-8DD8-08CC286AACA9";
paths = (
{
closed = 1;
nodes = (
"218 239 OFFCURVE",
"331 316 OFFCURVE",
"331 417 CURVE SMOOTH",
"331 461 OFFCURVE",
"309 494 OFFCURVE",
"272 534 CURVE SMOOTH",
"237 572 OFFCURVE",
"194 602 OFFCURVE",
"147 602 CURVE SMOOTH",
"106 602 OFFCURVE",
"76 594 OFFCURVE",
"49 584 CURVE",
"93 504 LINE",
"119 515 OFFCURVE",
"148 525 OFFCURVE",
"179 525 CURVE SMOOTH",
"236 525 OFFCURVE",
"259 495 OFFCURVE",
"259 458 CURVE SMOOTH",
"259 410 OFFCURVE",
"218 349 OFFCURVE",
"156 326 CURVE",
"137 348 OFFCURVE",
"117 360 OFFCURVE",
"95 360 CURVE SMOOTH",
"57 360 OFFCURVE",
"36 335 OFFCURVE",
"36 307 CURVE SMOOTH",
"36 271 OFFCURVE",
"64 239 OFFCURVE",
"116 239 CURVE SMOOTH"
);
},
{
closed = 1;
nodes = (
"429 127 OFFCURVE",
"479 173 OFFCURVE",
"520 221 CURVE",
"486 301 LINE",
"453 254 OFFCURVE",
"391 191 OFFCURVE",
"301 191 CURVE SMOOTH",
"254 191 OFFCURVE",
"215 211 OFFCURVE",
"183 259 CURVE",
"138 248 LINE",
"170 195 OFFCURVE",
"230 127 OFFCURVE",
"336 127 CURVE SMOOTH"
);
},
{
closed = 1;
nodes = (
"618 -5 OFFCURVE",
"643 12 OFFCURVE",
"659 25 CURVE",
"618 93 LINE",
"596 67 OFFCURVE",
"564 51 OFFCURVE",
"541 51 CURVE SMOOTH",
"535 51 OFFCURVE",
"532 53 OFFCURVE",
"532 61 CURVE SMOOTH",
"532 579 LINE",
"451 612 LINE",
"451 125 LINE SMOOTH",
"451 85 OFFCURVE",
"461 62 OFFCURVE",
"502 31 CURVE SMOOTH",
"532 8 OFFCURVE",
"555 -5 OFFCURVE",
"586 -5 CURVE SMOOTH"
);
}
);
width = 617;
},
{
anchors = (
{
name = bottom;
position = "{494, 0}";
},
{
name = bottomleft;
position = "{169, 49}";
},
{
name = bottomright;
position = "{494, 0}";
},
{
name = top;
position = "{492, 592}";
},
{
name = topright;
position = "{492, 592}";
}
);
layerId = "07EDFDFD-5D57-4B5D-B56C-4C47BCD544BF";
paths = (
{
closed = 1;
nodes = (
"218 260 OFFCURVE",
"312 332 OFFCURVE",
"312 430 CURVE SMOOTH",
"312 474 OFFCURVE",
"297 515 OFFCURVE",
"270 545 CURVE SMOOTH",
"239 580 OFFCURVE",
"193 602 OFFCURVE",
"138 602 CURVE SMOOTH",
"117 602 OFFCURVE",
"88 600 OFFCURVE",
"55 590 CURVE",
"65 565 LINE",
"96 576 OFFCURVE",
"122 578 OFFCURVE",
"139 578 CURVE SMOOTH",
"228 578 OFFCURVE",
"285 515 OFFCURVE",
"285 432 CURVE SMOOTH",
"285 359 OFFCURVE",
"228 301 OFFCURVE",
"142 285 CURVE",
"116 326 OFFCURVE",
"102 345 OFFCURVE",
"76 345 CURVE SMOOTH",
"60 345 OFFCURVE",
"40 335 OFFCURVE",
"40 312 CURVE SMOOTH",
"40 285 OFFCURVE",
"66 260 OFFCURVE",
"115 260 CURVE SMOOTH"
);
},
{
closed = 1;
nodes = (
"395 141 OFFCURVE",
"451 176 OFFCURVE",
"496 224 CURVE",
"483 245 LINE",
"436 195 OFFCURVE",
"387 165 OFFCURVE",
"326 165 CURVE SMOOTH",
"236 165 OFFCURVE",
"189 214 OFFCURVE",
"142 281 CURVE",
"124 272 LINE",
"173 196 OFFCURVE",
"230 141 OFFCURVE",
"327 141 CURVE SMOOTH"
);
},
{
closed = 1;
nodes = (
"573 -5 OFFCURVE",
"597 13 OFFCURVE",
"621 35 CURVE",
"605 61 LINE",
"583 36 OFFCURVE",
"555 20 OFFCURVE",
"529 20 CURVE SMOOTH",
"516 20 OFFCURVE",
"506 26 OFFCURVE",
"506 42 CURVE SMOOTH",
"506 594 LINE",
"479 607 LINE",
"479 55 LINE SMOOTH",
"479 34 OFFCURVE",
"487 18 OFFCURVE",
"500 8 CURVE SMOOTH",
"510 0 OFFCURVE",
"523 -5 OFFCURVE",
"538 -5 CURVE SMOOTH"
);
}
);
width = 585;
},
{
anchors = (
{
name = bottom;
position = "{537, 0}";
},
{
name = bottomleft;
position = "{166, 49}";
},
{
name = bottomright;
position = "{537, 0}";
},
{
name = top;
position = "{537, 592}";
},
{
name = topright;
position = "{537, 592}";
}
);
layerId = "939FCF6B-2DD7-48E5-8D7B-BBFD097386C5";
paths = (
{
closed = 1;
nodes = (
"272 203 OFFCURVE",
"380 274 OFFCURVE",
"380 385 CURVE SMOOTH",
"380 431 OFFCURVE",
"363 479 OFFCURVE",
"334 518 CURVE SMOOTH",
"295 570 OFFCURVE",
"236 607 OFFCURVE",
"168 607 CURVE SMOOTH",
"124 607 OFFCURVE",
"83 598 OFFCURVE",
"48 580 CURVE",
"126 441 LINE",
"167 471 OFFCURVE",
"207 490 OFFCURVE",
"242 490 CURVE SMOOTH",
"265 490 OFFCURVE",
"279 477 OFFCURVE",
"279 455 CURVE SMOOTH",
"279 410 OFFCURVE",
"238 374 OFFCURVE",
"187 350 CURVE",
"167 366 OFFCURVE",
"146 380 OFFCURVE",
"112 380 CURVE SMOOTH",
"65 380 OFFCURVE",
"30 349 OFFCURVE",
"30 303 CURVE SMOOTH",
"30 239 OFFCURVE",
"90 203 OFFCURVE",
"159 203 CURVE SMOOTH"
);
},
{
closed = 1;
nodes = (
"448 103 OFFCURVE",
"497 132 OFFCURVE",
"540 182 CURVE",
"481 316 LINE",
"437 251 OFFCURVE",
"385 203 OFFCURVE",
"325 203 CURVE SMOOTH",
"283 203 OFFCURVE",
"257 229 OFFCURVE",
"233 273 CURVE",
"151 255 LINE",
"184 177 OFFCURVE",
"263 103 OFFCURVE",
"368 103 CURVE SMOOTH"
);
},
{
closed = 1;
nodes = (
"712 -5 OFFCURVE",
"742 13 OFFCURVE",
"764 35 CURVE",
"702 154 LINE",
"674 120 OFFCURVE",
"644 100 OFFCURVE",
"622 100 CURVE SMOOTH",
"616 100 OFFCURVE",
"612 102 OFFCURVE",
"612 109 CURVE SMOOTH",
"612 579 LINE",
"461 612 LINE",
"461 167 LINE SMOOTH",
"461 109 OFFCURVE",
"497 76 OFFCURVE",
"540 46 CURVE SMOOTH",
"587 13 OFFCURVE",
"626 -5 OFFCURVE",
"671 -5 CURVE SMOOTH"
);
}
);
width = 718;
},
{
anchors = (
{
name = bottom;
position = "{517, 0}";
},
{
name = bottomleft;
position = "{164, 49}";
},
{
name = bottomright;
position = "{517, 0}";
},
{
name = top;
position = "{518, 592}";
},
{
name = topright;
position = "{518, 592}";
}
);
layerId = "419046E3-5D27-4998-A2CB-16719C068B75";
paths = (
{
closed = 1;
nodes = (
"249 218 OFFCURVE",
"359 292 OFFCURVE",
"359 398 CURVE SMOOTH",
"359 444 OFFCURVE",
"340 485 OFFCURVE",
"308 525 CURVE SMOOTH",
"271 571 OFFCURVE",
"218 605 OFFCURVE",
"159 605 CURVE SMOOTH",
"116 605 OFFCURVE",
"80 596 OFFCURVE",
"48 582 CURVE",
"112 467 LINE",
"146 489 OFFCURVE",
"182 504 OFFCURVE",
"215 504 CURVE SMOOTH",
"252 504 OFFCURVE",
"271 485 OFFCURVE",
"271 457 CURVE SMOOTH",
"271 410 OFFCURVE",
"229 363 OFFCURVE",
"173 340 CURVE",
"154 358 OFFCURVE",
"133 372 OFFCURVE",
"104 372 CURVE SMOOTH",
"61 372 OFFCURVE",
"32 343 OFFCURVE",
"32 305 CURVE SMOOTH",
"32 252 OFFCURVE",
"79 218 OFFCURVE",
"140 218 CURVE SMOOTH"
);
},
{
closed = 1;
nodes = (
"439 113 OFFCURVE",
"489 149 OFFCURVE",
"531 199 CURVE",
"483 310 LINE",
"443 252 OFFCURVE",
"387 198 OFFCURVE",
"314 198 CURVE SMOOTH",
"271 198 OFFCURVE",
"239 222 OFFCURVE",
"212 267 CURVE",
"146 252 LINE",
"177 185 OFFCURVE",
"249 113 OFFCURVE",
"354 113 CURVE SMOOTH"
);
},
{
closed = 1;
nodes = (
"672 -5 OFFCURVE",
"700 13 OFFCURVE",
"719 31 CURVE",
"667 128 LINE",
"641 98 OFFCURVE",
"610 79 OFFCURVE",
"587 79 CURVE SMOOTH",
"582 79 OFFCURVE",
"578 82 OFFCURVE",
"578 89 CURVE SMOOTH",
"578 579 LINE",
"457 612 LINE",
"457 149 LINE SMOOTH",
"457 99 OFFCURVE",
"482 70 OFFCURVE",
"524 40 CURVE SMOOTH",
"564 11 OFFCURVE",
"596 -5 OFFCURVE",
"635 -5 CURVE SMOOTH"
);
}
);
width = 675;
}
);
leftKerningGroup = "GUJ_ca-L";
rightKerningGroup = "GUJ_kana-R";
unicode = 0A9A;
script = gujarati;
category = Letter;
subCategory = Other;
},
{
glyphname = "cha-gujarati";
layers = (
{
anchors = (
{
name = bottom;
position = "{394, 0}";
},
{
name = bottomleft;
position = "{335, -129}";
},
{
name = bottomright;
position = "{347, 0}";
},
{
name = bottomround;
position = "{335, 59}";
},
{
name = top;
position = "{460, 592}";
},
{
name = topright;
position = "{311, 592}";
}
);
layerId = "ACBF538B-D069-4B9F-8DD8-08CC286AACA9";
paths = (
{
closed = 1;
nodes = (
"510 -4 OFFCURVE",
"640 139 OFFCURVE",
"640 313 CURVE SMOOTH",
"640 422 OFFCURVE",
"598 492 OFFCURVE",
"551 546 CURVE SMOOTH",
"521 581 OFFCURVE",
"482 605 OFFCURVE",
"440 605 CURVE SMOOTH",
"372 605 OFFCURVE",
"334 550 OFFCURVE",
"334 494 CURVE SMOOTH",
"334 358 OFFCURVE",
"446 275 OFFCURVE",
"550 227 CURVE",
"559 271 LINE",
"463 321 OFFCURVE",
"413 387 OFFCURVE",
"413 456 CURVE SMOOTH",
"413 510 OFFCURVE",
"445 532 OFFCURVE",
"479 532 CURVE SMOOTH",
"527 532 OFFCURVE",
"563 469 OFFCURVE",
"563 363 CURVE SMOOTH",
"563 194 OFFCURVE",
"447 63 OFFCURVE",
"289 63 CURVE SMOOTH",
"209 63 OFFCURVE",
"169 110 OFFCURVE",
"169 163 CURVE SMOOTH",
"169 248 OFFCURVE",
"267 270 OFFCURVE",
"320 280 CURVE",
"284 355 LINE",
"208 347 OFFCURVE",
"93 308 OFFCURVE",
"93 196 CURVE SMOOTH",
"93 145 OFFCURVE",
"125 102 OFFCURVE",
"156 73 CURVE SMOOTH",
"233 0 OFFCURVE",
"307 -4 OFFCURVE",
"352 -4 CURVE SMOOTH"
);
},
{
closed = 1;
nodes = (
"198 330 LINE",
"157 366 OFFCURVE",
"133 402 OFFCURVE",
"133 451 CURVE SMOOTH",
"133 508 OFFCURVE",
"176 529 OFFCURVE",
"222 529 CURVE SMOOTH",
"234 529 OFFCURVE",
"247 527 OFFCURVE",
"258 525 CURVE",
"247 603 LINE",
"232 606 OFFCURVE",
"215 608 OFFCURVE",
"195 608 CURVE SMOOTH",
"112 608 OFFCURVE",
"54 555 OFFCURVE",
"54 478 CURVE SMOOTH",
"54 396 OFFCURVE",
"111 339 OFFCURVE",
"167 304 CURVE"
);
}
);
width = 676;
},
{
anchors = (
{
name = bottom;
position = "{424, 0}";
},
{
name = bottomleft;
position = "{405, -232}";
},
{
name = bottomright;
position = "{358, 0}";
},
{
name = bottomround;
position = "{366, 59}";
},
{
name = top;
position = "{471, 592}";
},
{
name = topright;
position = "{322, 592}";
}
);
layerId = "939FCF6B-2DD7-48E5-8D7B-BBFD097386C5";
paths = (
{
closed = 1;
nodes = (
"533 -4 OFFCURVE",
"666 130 OFFCURVE",
"666 294 CURVE SMOOTH",
"666 376 OFFCURVE",
"634 458 OFFCURVE",
"593 513 CURVE SMOOTH",
"549 572 OFFCURVE",
"499 608 OFFCURVE",
"441 608 CURVE SMOOTH",
"375 608 OFFCURVE",
"331 557 OFFCURVE",
"331 492 CURVE SMOOTH",
"331 366 OFFCURVE",
"429 291 OFFCURVE",
"569 207 CURVE",
"601 261 LINE",
"517 308 OFFCURVE",
"462 363 OFFCURVE",
"462 424 CURVE SMOOTH",
"462 457 OFFCURVE",
"480 476 OFFCURVE",
"505 476 CURVE SMOOTH",
"538 476 OFFCURVE",
"559 445 OFFCURVE",
"559 396 CURVE SMOOTH",
"559 264 OFFCURVE",
"444 114 OFFCURVE",
"258 114 CURVE SMOOTH",
"215 114 OFFCURVE",
"193 131 OFFCURVE",
"193 156 CURVE SMOOTH",
"193 193 OFFCURVE",
"263 218 OFFCURVE",
"363 231 CURVE",
"294 379 LINE",
"208 370 OFFCURVE",
"76 329 OFFCURVE",
"76 210 CURVE SMOOTH",
"76 148 OFFCURVE",
"117 102 OFFCURVE",
"168 63 CURVE SMOOTH",
"220 23 OFFCURVE",
"278 -4 OFFCURVE",
"362 -4 CURVE SMOOTH"
);
},
{
closed = 1;
nodes = (
"253 316 LINE",
"212 343 OFFCURVE",
"187 370 OFFCURVE",
"187 406 CURVE SMOOTH",
"187 441 OFFCURVE",
"212 462 OFFCURVE",
"251 462 CURVE SMOOTH",
"264 462 OFFCURVE",
"277 460 OFFCURVE",
"287 457 CURVE",
"256 601 LINE",
"237 605 OFFCURVE",
"215 608 OFFCURVE",
"190 608 CURVE SMOOTH",
"108 608 OFFCURVE",
"50 555 OFFCURVE",
"50 478 CURVE SMOOTH",
"50 391 OFFCURVE",
"124 332 OFFCURVE",
"196 295 CURVE"
);
}
);
width = 698;
},
{
anchors = (
{
name = bottom;
position = "{405, 0}";
},
{
name = bottomleft;
position = "{346, -129}";
},
{
name = bottomright;
position = "{353, 0}";
},
{
name = bottomround;
position = "{346, 59}";
},
{
name = top;
position = "{501, 592}";
},
{
name = topright;
position = "{352, 592}";
}
);
layerId = "07EDFDFD-5D57-4B5D-B56C-4C47BCD544BF";
paths = (
{
closed = 1;
nodes = (
"488 -8 OFFCURVE",
"646 145 OFFCURVE",
"646 339 CURVE SMOOTH",
"646 406 OFFCURVE",
"628 474 OFFCURVE",
"595 525 CURVE SMOOTH",
"564 573 OFFCURVE",
"522 605 OFFCURVE",
"469 605 CURVE SMOOTH",
"411 605 OFFCURVE",
"356 565 OFFCURVE",
"356 484 CURVE SMOOTH",
"356 374 OFFCURVE",
"452 264 OFFCURVE",
"620 218 CURVE",
"626 240 LINE",
"473 285 OFFCURVE",
"383 391 OFFCURVE",
"383 482 CURVE SMOOTH",
"383 540 OFFCURVE",
"421 581 OFFCURVE",
"470 581 CURVE SMOOTH",
"553 581 OFFCURVE",
"619 471 OFFCURVE",
"619 340 CURVE SMOOTH",
"619 159 OFFCURVE",
"472 17 OFFCURVE",
"313 17 CURVE SMOOTH",
"220 17 OFFCURVE",
"127 64 OFFCURVE",
"127 171 CURVE SMOOTH",
"127 242 OFFCURVE",
"167 310 OFFCURVE",
"298 326 CURVE",
"289 350 LINE",
"150 333 OFFCURVE",
"100 258 OFFCURVE",
"100 176 CURVE SMOOTH",
"100 128 OFFCURVE",
"117 88 OFFCURVE",
"146 57 CURVE SMOOTH",
"184 16 OFFCURVE",
"241 -8 OFFCURVE",
"311 -8 CURVE SMOOTH"
);
},
{
closed = 1;
nodes = (
"207 309 LINE",
"144 340 OFFCURVE",
"87 399 OFFCURVE",
"87 469 CURVE SMOOTH",
"87 542 OFFCURVE",
"150 580 OFFCURVE",
"225 580 CURVE SMOOTH",
"237 580 OFFCURVE",
"254 579 OFFCURVE",
"275 574 CURVE",
"272 598 LINE",
"258 602 OFFCURVE",
"242 604 OFFCURVE",
"224 604 CURVE SMOOTH",
"132 604 OFFCURVE",
"60 553 OFFCURVE",
"60 471 CURVE SMOOTH",
"60 395 OFFCURVE",
"121 332 OFFCURVE",
"186 296 CURVE"
);
}
);
width = 688;
},
{
anchors = (
{
name = bottom;
position = "{424, 0}";
},
{
name = bottomleft;
position = "{400, -212}";
},
{
name = bottomright;
position = "{353, 0}";
},
{
name = bottomround;
position = "{366, 59}";
},
{
name = top;
position = "{467, 592}";
},
{
name = topright;
position = "{318, 592}";
}
);
layerId = "419046E3-5D27-4998-A2CB-16719C068B75";
paths = (
{
closed = 1;
nodes = (
"523 -4 OFFCURVE",
"655 134 OFFCURVE",
"655 302 CURVE SMOOTH",
"655 396 OFFCURVE",
"620 472 OFFCURVE",
"576 527 CURVE SMOOTH",
"537 575 OFFCURVE",
"493 607 OFFCURVE",
"441 607 CURVE SMOOTH",
"374 607 OFFCURVE",
"333 554 OFFCURVE",
"333 493 CURVE SMOOTH",
"333 363 OFFCURVE",
"437 284 OFFCURVE",
"562 215 CURVE",
"584 265 LINE",
"495 313 OFFCURVE",
"442 373 OFFCURVE",
"442 438 CURVE SMOOTH",
"442 479 OFFCURVE",
"465 499 OFFCURVE",
"495 499 CURVE SMOOTH",
"534 499 OFFCURVE",
"561 455 OFFCURVE",
"561 382 CURVE SMOOTH",
"561 234 OFFCURVE",
"446 93 OFFCURVE",
"272 93 CURVE SMOOTH",
"213 93 OFFCURVE",
"183 122 OFFCURVE",
"183 159 CURVE SMOOTH",
"183 216 OFFCURVE",
"265 240 OFFCURVE",
"345 252 CURVE",
"291 369 LINE",
"208 360 OFFCURVE",
"84 320 OFFCURVE",
"84 205 CURVE SMOOTH",
"84 147 OFFCURVE",
"121 102 OFFCURVE",
"164 67 CURVE SMOOTH",
"228 15 OFFCURVE",
"291 -4 OFFCURVE",
"358 -4 CURVE SMOOTH"
);
},
{
closed = 1;
nodes = (
"230 322 LINE",
"189 353 OFFCURVE",
"165 384 OFFCURVE",
"165 425 CURVE SMOOTH",
"165 469 OFFCURVE",
"197 490 OFFCURVE",
"239 490 CURVE SMOOTH",
"252 490 OFFCURVE",
"265 488 OFFCURVE",
"275 485 CURVE",
"252 602 LINE",
"236 605 OFFCURVE",
"215 608 OFFCURVE",
"193 608 CURVE SMOOTH",
"110 608 OFFCURVE",
"52 555 OFFCURVE",
"52 478 CURVE SMOOTH",
"52 393 OFFCURVE",
"119 335 OFFCURVE",
"184 299 CURVE"
);
}
);
width = 689;
}
);
leftKerningGroup = "GUJ_cha-L";
rightKerningGroup = "GUJ_cha-R";
unicode = 0A9B;
script = gujarati;
category = Letter;
subCategory = Other;
},
{
glyphname = "ja-gujarati";
layers = (
{
anchors = (
{
name = bottom;
position = "{456, 0}";
},
{
name = bottomleft;
position = "{173, 90}";
},
{
name = bottomright;
position = "{456, 0}";
},
{
name = top;
position = "{648, 592}";
},
{
name = topright;
position = "{450, 592}";
}
);
layerId = "ACBF538B-D069-4B9F-8DD8-08CC286AACA9";
paths = (
{
closed = 1;
nodes = (
"562 -5 OFFCURVE",
"613 63 OFFCURVE",
"613 155 CURVE SMOOTH",
"613 237 OFFCURVE",
"573 321 OFFCURVE",
"491 418 CURVE SMOOTH",
"383 545 OFFCURVE",
"291 601 OFFCURVE",
"194 601 CURVE SMOOTH",
"87 601 OFFCURVE",
"22 539 OFFCURVE",
"22 453 CURVE SMOOTH",
"22 412 OFFCURVE",
"40 374 OFFCURVE",
"67 345 CURVE SMOOTH",
"97 312 OFFCURVE",
"141 292 OFFCURVE",
"187 292 CURVE SMOOTH",
"273 292 OFFCURVE",
"324 344 OFFCURVE",
"324 427 CURVE SMOOTH",
"324 479 OFFCURVE",
"303 522 OFFCURVE",
"266 559 CURVE",
"233 563 LINE",
"250 536 OFFCURVE",
"261 502 OFFCURVE",
"261 469 CURVE SMOOTH",
"261 409 OFFCURVE",
"227 350 OFFCURVE",
"159 350 CURVE SMOOTH",
"122 350 OFFCURVE",
"88 377 OFFCURVE",
"88 423 CURVE SMOOTH",
"88 484 OFFCURVE",
"140 530 OFFCURVE",
"218 530 CURVE SMOOTH",
"292 530 OFFCURVE",
"384 470 OFFCURVE",
"449 390 CURVE SMOOTH",
"499 329 OFFCURVE",
"533 255 OFFCURVE",
"533 188 CURVE SMOOTH",
"533 99 OFFCURVE",
"487 56 OFFCURVE",
"442 56 CURVE SMOOTH",
"404 56 OFFCURVE",
"361 78 OFFCURVE",
"361 138 CURVE SMOOTH",
"361 200 OFFCURVE",
"402 243 OFFCURVE",
"491 333 CURVE SMOOTH",
"710 553 LINE",
"650 611 LINE",
"440 394 LINE SMOOTH",
"353 304 OFFCURVE",
"292 256 OFFCURVE",
"292 163 CURVE SMOOTH",
"292 117 OFFCURVE",
"314 76 OFFCURVE",
"350 43 CURVE SMOOTH",
"382 14 OFFCURVE",
"417 -5 OFFCURVE",
"470 -5 CURVE SMOOTH"
);
}
);
width = 702;
},
{
anchors = (
{
name = bottom;
position = "{472, 0}";
},
{
name = bottomleft;
position = "{187, 110}";
},
{
name = bottomright;
position = "{472, 0}";
},
{
name = top;
position = "{662, 592}";
},
{
name = topright;
position = "{472, 592}";
}
);
layerId = "07EDFDFD-5D57-4B5D-B56C-4C47BCD544BF";
paths = (
{
closed = 1;
nodes = (
"563 -5 OFFCURVE",
"621 63 OFFCURVE",
"621 155 CURVE SMOOTH",
"621 238 OFFCURVE",
"573 340 OFFCURVE",
"501 425 CURVE SMOOTH",
"417 525 OFFCURVE",
"300 601 OFFCURVE",
"196 601 CURVE SMOOTH",
"92 601 OFFCURVE",
"28 540 OFFCURVE",
"28 456 CURVE SMOOTH",
"28 409 OFFCURVE",
"49 369 OFFCURVE",
"82 341 CURVE SMOOTH",
"111 317 OFFCURVE",
"147 302 OFFCURVE",
"187 302 CURVE SMOOTH",
"275 302 OFFCURVE",
"327 362 OFFCURVE",
"327 446 CURVE SMOOTH",
"327 491 OFFCURVE",
"312 536 OFFCURVE",
"290 569 CURVE",
"268 571 LINE",
"289 532 OFFCURVE",
"299 491 OFFCURVE",
"299 448 CURVE SMOOTH",
"299 382 OFFCURVE",
"262 326 OFFCURVE",
"186 326 CURVE SMOOTH",
"116 326 OFFCURVE",
"56 374 OFFCURVE",
"56 454 CURVE SMOOTH",
"56 524 OFFCURVE",
"112 577 OFFCURVE",
"197 577 CURVE SMOOTH",
"297 577 OFFCURVE",
"405 503 OFFCURVE",
"483 411 CURVE SMOOTH",
"551 331 OFFCURVE",
"594 242 OFFCURVE",
"594 157 CURVE SMOOTH",
"594 74 OFFCURVE",
"546 20 OFFCURVE",
"471 20 CURVE SMOOTH",
"397 20 OFFCURVE",
"340 71 OFFCURVE",
"340 152 CURVE SMOOTH",
"340 219 OFFCURVE",
"374 274 OFFCURVE",
"479 377 CURVE SMOOTH",
"697 591 LINE",
"677 611 LINE",
"459 394 LINE SMOOTH",
"355 290 OFFCURVE",
"313 231 OFFCURVE",
"313 154 CURVE SMOOTH",
"313 105 OFFCURVE",
"334 63 OFFCURVE",
"368 34 CURVE SMOOTH",
"397 9 OFFCURVE",
"433 -5 OFFCURVE",
"472 -5 CURVE SMOOTH"
);
}
);
width = 693;
},
{
anchors = (
{
name = bottom;
position = "{488, 0}";
},
{
name = bottomleft;
position = "{178, 110}";
},
{
name = bottomright;
position = "{490, 0}";
},
{
name = top;
position = "{695, 592}";
},
{
name = topright;
position = "{478, 592}";
}
);
layerId = "939FCF6B-2DD7-48E5-8D7B-BBFD097386C5";
paths = (
{
closed = 1;
nodes = (
"605 -5 OFFCURVE",
"672 55 OFFCURVE",
"672 144 CURVE SMOOTH",
"672 249 OFFCURVE",
"606 340 OFFCURVE",
"520 433 CURVE SMOOTH",
"427 533 OFFCURVE",
"315 607 OFFCURVE",
"187 607 CURVE SMOOTH",
"84 607 OFFCURVE",
"10 539 OFFCURVE",
"10 449 CURVE SMOOTH",
"10 397 OFFCURVE",
"28 361 OFFCURVE",
"61 327 CURVE SMOOTH",
"94 293 OFFCURVE",
"138 271 OFFCURVE",
"189 271 CURVE SMOOTH",
"278 271 OFFCURVE",
"329 329 OFFCURVE",
"329 408 CURVE SMOOTH",
"329 445 OFFCURVE",
"317 482 OFFCURVE",
"289 514 CURVE",
"220 544 LINE",
"228 527 OFFCURVE",
"235 501 OFFCURVE",
"235 475 CURVE SMOOTH",
"235 412 OFFCURVE",
"208 366 OFFCURVE",
"166 366 CURVE SMOOTH",
"147 366 OFFCURVE",
"136 377 OFFCURVE",
"136 396 CURVE SMOOTH",
"136 437 OFFCURVE",
"183 471 OFFCURVE",
"240 471 CURVE SMOOTH",
"320 471 OFFCURVE",
"399 448 OFFCURVE",
"453 393 CURVE SMOOTH",
"508 337 OFFCURVE",
"531 262 OFFCURVE",
"531 183 CURVE SMOOTH",
"531 116 OFFCURVE",
"506 80 OFFCURVE",
"475 80 CURVE SMOOTH",
"451 80 OFFCURVE",
"438 96 OFFCURVE",
"438 124 CURVE SMOOTH",
"438 175 OFFCURVE",
"479 225 OFFCURVE",
"560 293 CURVE SMOOTH",
"804 497 LINE",
"697 611 LINE",
"463 413 LINE SMOOTH",
"353 320 OFFCURVE",
"301 258 OFFCURVE",
"301 179 CURVE SMOOTH",
"301 130 OFFCURVE",
"322 83 OFFCURVE",
"359 52 CURVE SMOOTH",
"398 19 OFFCURVE",
"444 -5 OFFCURVE",
"502 -5 CURVE SMOOTH"
);
}
);
width = 790;
},
{
anchors = (
{
name = bottom;
position = "{479, 0}";
},
{
name = bottomleft;
position = "{180, 100}";
},
{
name = bottomright;
position = "{479, 0}";
},
{
name = top;
position = "{680, 592}";
},
{
name = topright;
position = "{471, 592}";
}
);
layerId = "419046E3-5D27-4998-A2CB-16719C068B75";
paths = (
{
closed = 1;
nodes = (
"591 -5 OFFCURVE",
"652 58 OFFCURVE",
"652 148 CURVE SMOOTH",
"652 244 OFFCURVE",
"597 333 OFFCURVE",
"513 427 CURVE SMOOTH",
"413 538 OFFCURVE",
"310 605 OFFCURVE",
"194 605 CURVE SMOOTH",
"90 605 OFFCURVE",
"20 539 OFFCURVE",
"20 450 CURVE SMOOTH",
"20 403 OFFCURVE",
"38 366 OFFCURVE",
"68 334 CURVE SMOOTH",
"99 300 OFFCURVE",
"144 280 OFFCURVE",
"192 280 CURVE SMOOTH",
"281 280 OFFCURVE",
"332 335 OFFCURVE",
"332 416 CURVE SMOOTH",
"332 459 OFFCURVE",
"316 499 OFFCURVE",
"284 533 CURVE",
"230 552 LINE",
"242 531 OFFCURVE",
"250 501 OFFCURVE",
"250 472 CURVE SMOOTH",
"250 411 OFFCURVE",
"221 359 OFFCURVE",
"167 359 CURVE SMOOTH",
"141 359 OFFCURVE",
"121 377 OFFCURVE",
"121 408 CURVE SMOOTH",
"121 457 OFFCURVE",
"169 496 OFFCURVE",
"235 496 CURVE SMOOTH",
"313 496 OFFCURVE",
"397 457 OFFCURVE",
"456 392 CURVE SMOOTH",
"509 334 OFFCURVE",
"536 259 OFFCURVE",
"536 185 CURVE SMOOTH",
"536 109 OFFCURVE",
"502 70 OFFCURVE",
"465 70 CURVE SMOOTH",
"436 70 OFFCURVE",
"410 88 OFFCURVE",
"410 130 CURVE SMOOTH",
"410 186 OFFCURVE",
"450 233 OFFCURVE",
"535 310 CURVE SMOOTH",
"769 521 LINE",
"682 611 LINE",
"458 405 LINE SMOOTH",
"357 313 OFFCURVE",
"302 257 OFFCURVE",
"302 172 CURVE SMOOTH",
"302 125 OFFCURVE",
"324 80 OFFCURVE",
"360 48 CURVE SMOOTH",
"396 16 OFFCURVE",
"438 -5 OFFCURVE",
"493 -5 CURVE SMOOTH"
);
}
);
width = 757;
}
);
leftKerningGroup = "GUJ_ja-L";
rightKerningGroup = "GUJ_ja-R";
unicode = 0A9C;
script = gujarati;
category = Letter;
subCategory = Other;
},
{
glyphname = "jha-gujarati";
layers = (
{
anchors = (
{
name = bottom;
position = "{466, 0}";
},
{
name = bottomleft;
position = "{209, 0}";
},
{
name = bottomright;
position = "{465, 0}";
},
{
name = top;
position = "{516, 592}";
},
{
name = topright;
position = "{516, 592}";
}
);
layerId = "ACBF538B-D069-4B9F-8DD8-08CC286AACA9";
paths = (
{
closed = 1;
nodes = (
"305 105 OFFCURVE",
"368 182 OFFCURVE",
"368 278 CURVE SMOOTH",
"368 368 OFFCURVE",
"352 426 OFFCURVE",
"292 498 CURVE SMOOTH",
"247 552 OFFCURVE",
"205 572 OFFCURVE",
"152 572 CURVE SMOOTH",
"125 572 OFFCURVE",
"90 566 OFFCURVE",
"63 551 CURVE",
"114 472 LINE",
"137 486 OFFCURVE",
"167 497 OFFCURVE",
"194 497 CURVE SMOOTH",
"245 497 OFFCURVE",
"293 455 OFFCURVE",
"293 352 CURVE SMOOTH",
"293 258 OFFCURVE",
"259 178 OFFCURVE",
"180 178 CURVE SMOOTH",
"131 178 OFFCURVE",
"100 210 OFFCURVE",
"68 261 CURVE",
"32 235 LINE",
"67 172 OFFCURVE",
"123 105 OFFCURVE",
"209 105 CURVE SMOOTH"
);
},
{
closed = 1;
nodes = (
"586 25 OFFCURVE",
"665 90 OFFCURVE",
"665 188 CURVE SMOOTH",
"665 236 OFFCURVE",
"654 279 OFFCURVE",
"600 338 CURVE SMOOTH",
"547 395 OFFCURVE",
"496 411 OFFCURVE",
"445 411 CURVE SMOOTH",
"404 411 OFFCURVE",
"362 394 OFFCURVE",
"328 365 CURVE",
"360 280 LINE",
"396 314 OFFCURVE",
"447 334 OFFCURVE",
"490 334 CURVE SMOOTH",
"553 334 OFFCURVE",
"594 291 OFFCURVE",
"594 232 CURVE SMOOTH",
"594 155 OFFCURVE",
"533 99 OFFCURVE",
"444 67 CURVE",
"488 -7 LINE"
);
},
{
closed = 1;
nodes = (
"556 579 LINE",
"476 612 LINE",
"476 374 LINE",
"556 349 LINE"
);
}
);
width = 693;
},
{
anchors = (
{
name = bottom;
position = "{485, 0}";
},
{
name = bottomleft;
position = "{220, 5}";
},
{
name = bottomright;
position = "{484, 0}";
},
{
name = top;
position = "{531, 592}";
},
{
name = topright;
position = "{531, 592}";
}
);
layerId = "07EDFDFD-5D57-4B5D-B56C-4C47BCD544BF";
paths = (
{
closed = 1;
nodes = (
"326 111 OFFCURVE",
"391 199 OFFCURVE",
"391 332 CURVE SMOOTH",
"391 404 OFFCURVE",
"371 466 OFFCURVE",
"335 507 CURVE SMOOTH",
"301 545 OFFCURVE",
"256 568 OFFCURVE",
"199 568 CURVE SMOOTH",
"158 568 OFFCURVE",
"119 559 OFFCURVE",
"82 543 CURVE",
"94 519 LINE",
"132 535 OFFCURVE",
"160 544 OFFCURVE",
"200 544 CURVE SMOOTH",
"309 544 OFFCURVE",
"363 466 OFFCURVE",
"363 333 CURVE SMOOTH",
"363 213 OFFCURVE",
"310 135 OFFCURVE",
"215 135 CURVE SMOOTH",
"138 135 OFFCURVE",
"94 186 OFFCURVE",
"57 243 CURVE",
"38 230 LINE",
"77 165 OFFCURVE",
"131 111 OFFCURVE",
"216 111 CURVE SMOOTH"
);
},
{
closed = 1;
nodes = (
"574 32 OFFCURVE",
"665 100 OFFCURVE",
"665 216 CURVE SMOOTH",
"665 260 OFFCURVE",
"648 306 OFFCURVE",
"618 341 CURVE SMOOTH",
"588 376 OFFCURVE",
"543 400 OFFCURVE",
"488 400 CURVE SMOOTH",
"447 400 OFFCURVE",
"410 389 OFFCURVE",
"378 373 CURVE",
"378 341 LINE",
"411 363 OFFCURVE",
"451 376 OFFCURVE",
"489 376 CURVE SMOOTH",
"588 376 OFFCURVE",
"638 299 OFFCURVE",
"638 218 CURVE SMOOTH",
"638 108 OFFCURVE",
"551 52 OFFCURVE",
"477 20 CURVE",
"493 -6 LINE"
);
},
{
closed = 1;
nodes = (
"545 594 LINE",
"518 607 LINE",
"518 391 LINE",
"545 385 LINE"
);
}
);
width = 699;
},
{
anchors = (
{
name = bottom;
position = "{511, 0}";
},
{
name = bottomleft;
position = "{250, 0}";
},
{
name = bottomright;
position = "{512, 0}";
},
{
name = top;
position = "{542, 592}";
},
{
name = topright;
position = "{542, 592}";
}
);
layerId = "939FCF6B-2DD7-48E5-8D7B-BBFD097386C5";
paths = (
{
closed = 1;
nodes = (
"365 95 OFFCURVE",
"423 180 OFFCURVE",
"423 285 CURVE SMOOTH",
"423 361 OFFCURVE",
"398 412 OFFCURVE",
"347 471 CURVE SMOOTH",
"293 533 OFFCURVE",
"244 568 OFFCURVE",
"174 568 CURVE SMOOTH",
"126 568 OFFCURVE",
"91 555 OFFCURVE",
"61 538 CURVE",
"144 408 LINE",
"168 434 OFFCURVE",
"200 454 OFFCURVE",
"233 454 CURVE SMOOTH",
"274 454 OFFCURVE",
"291 419 OFFCURVE",
"291 365 CURVE SMOOTH",
"291 285 OFFCURVE",
"250 218 OFFCURVE",
"180 218 CURVE SMOOTH",
"136 218 OFFCURVE",
"108 245 OFFCURVE",
"83 285 CURVE",
"26 249 LINE",
"77 159 OFFCURVE",
"149 95 OFFCURVE",
"258 95 CURVE SMOOTH"
);
},
{
closed = 1;
nodes = (
"642 29 OFFCURVE",
"717 89 OFFCURVE",
"717 185 CURVE SMOOTH",
"717 242 OFFCURVE",
"692 295 OFFCURVE",
"652 340 CURVE SMOOTH",
"606 391 OFFCURVE",
"547 426 OFFCURVE",
"467 426 CURVE SMOOTH",
"419 426 OFFCURVE",
"377 410 OFFCURVE",
"340 384 CURVE",
"397 261 LINE",
"438 298 OFFCURVE",
"486 321 OFFCURVE",
"537 321 CURVE SMOOTH",
"580 321 OFFCURVE",
"602 295 OFFCURVE",
"602 262 CURVE SMOOTH",
"602 199 OFFCURVE",
"544 157 OFFCURVE",
"471 120 CURVE",
"550 -8 LINE"
);
},
{
closed = 1;
nodes = (
"617 579 LINE",
"466 612 LINE",
"466 374 LINE",
"617 349 LINE"
);
}
);
width = 741;
},
{
anchors = (
{
name = bottom;
position = "{493, 0}";
},
{
name = bottomleft;
position = "{234, 0}";
},
{
name = bottomright;
position = "{493, 0}";
},
{
name = top;
position = "{532, 592}";
},
{
name = topright;
position = "{532, 592}";
}
);
layerId = "419046E3-5D27-4998-A2CB-16719C068B75";
paths = (
{
closed = 1;
nodes = (
"340 99 OFFCURVE",
"401 181 OFFCURVE",
"401 282 CURVE SMOOTH",
"401 364 OFFCURVE",
"380 418 OFFCURVE",
"325 482 CURVE SMOOTH",
"275 541 OFFCURVE",
"229 570 OFFCURVE",
"166 570 CURVE SMOOTH",
"127 570 OFFCURVE",
"92 560 OFFCURVE",
"63 543 CURVE",
"132 435 LINE",
"156 456 OFFCURVE",
"187 472 OFFCURVE",
"218 472 CURVE SMOOTH",
"263 472 OFFCURVE",
"293 434 OFFCURVE",
"293 359 CURVE SMOOTH",
"293 274 OFFCURVE",
"255 201 OFFCURVE",
"181 201 CURVE SMOOTH",
"135 201 OFFCURVE",
"105 230 OFFCURVE",
"77 275 CURVE",
"30 243 LINE",
"74 164 OFFCURVE",
"139 99 OFFCURVE",
"238 99 CURVE SMOOTH"
);
},
{
closed = 1;
nodes = (
"620 27 OFFCURVE",
"696 89 OFFCURVE",
"696 187 CURVE SMOOTH",
"696 240 OFFCURVE",
"677 288 OFFCURVE",
"631 339 CURVE SMOOTH",
"583 392 OFFCURVE",
"526 419 OFFCURVE",
"459 419 CURVE SMOOTH",
"414 419 OFFCURVE",
"372 403 OFFCURVE",
"336 376 CURVE",
"383 269 LINE",
"421 305 OFFCURVE",
"471 326 OFFCURVE",
"519 326 CURVE SMOOTH",
"569 326 OFFCURVE",
"600 293 OFFCURVE",
"600 250 CURVE SMOOTH",
"600 180 OFFCURVE",
"540 132 OFFCURVE",
"460 98 CURVE",
"525 -8 LINE"
);
},
{
closed = 1;
nodes = (
"593 579 LINE",
"471 612 LINE",
"471 374 LINE",
"593 349 LINE"
);
}
);
width = 722;
}
);
leftKerningGroup = "GUJ_jha-L";
unicode = 0A9D;
script = gujarati;
category = Letter;
subCategory = Other;
},
{
glyphname = "nya-gujarati";
layers = (
{
anchors = (
{
name = bottom;
position = "{554, 0}";
},
{
name = bottomleft;
position = "{192, 0}";
},
{
name = bottomright;
position = "{655, 0}";
},
{
name = top;
position = "{555, 592}";
},
{
name = topright;
position = "{555, 592}";
}
);
layerId = "ACBF538B-D069-4B9F-8DD8-08CC286AACA9";
paths = (
{
closed = 1;
nodes = (
"292 194 OFFCURVE",
"357 269 OFFCURVE",
"357 367 CURVE SMOOTH",
"357 418 OFFCURVE",
"343 469 OFFCURVE",
"291 529 CURVE SMOOTH",
"244 583 OFFCURVE",
"202 603 OFFCURVE",
"148 603 CURVE SMOOTH",
"122 603 OFFCURVE",
"87 597 OFFCURVE",
"59 582 CURVE",
"110 502 LINE",
"134 517 OFFCURVE",
"164 527 OFFCURVE",
"191 527 CURVE SMOOTH",
"245 527 OFFCURVE",
"280 498 OFFCURVE",
"280 411 CURVE SMOOTH",
"280 329 OFFCURVE",
"238 266 OFFCURVE",
"164 266 CURVE SMOOTH",
"115 266 OFFCURVE",
"83 292 OFFCURVE",
"52 341 CURVE",
"16 316 LINE",
"51 254 OFFCURVE",
"106 194 OFFCURVE",
"192 194 CURVE SMOOTH"
);
},
{
closed = 1;
nodes = (
"488 294 OFFCURVE",
"504 300 OFFCURVE",
"519 307 CURVE",
"519 405 LINE",
"503 381 OFFCURVE",
"460 361 OFFCURVE",
"403 361 CURVE SMOOTH",
"377 361 OFFCURVE",
"354 367 OFFCURVE",
"336 375 CURVE",
"320 352 LINE",
"347 323 OFFCURVE",
"392 294 OFFCURVE",
"452 294 CURVE SMOOTH"
);
},
{
closed = 1;
nodes = (
"681 -5 OFFCURVE",
"706 12 OFFCURVE",
"722 25 CURVE",
"681 93 LINE",
"659 67 OFFCURVE",
"627 51 OFFCURVE",
"604 51 CURVE SMOOTH",
"598 51 OFFCURVE",
"595 53 OFFCURVE",
"595 61 CURVE SMOOTH",
"595 579 LINE",
"514 612 LINE",
"514 125 LINE SMOOTH",
"514 85 OFFCURVE",
"524 63 OFFCURVE",
"565 31 CURVE SMOOTH",
"594 8 OFFCURVE",
"618 -5 OFFCURVE",
"649 -5 CURVE SMOOTH"
);
}
);
width = 680;
},
{
anchors = (
{
name = bottom;
position = "{555, 0}";
},
{
name = bottomleft;
position = "{242, 34}";
},
{
name = bottomright;
position = "{555, 0}";
},
{
name = top;
position = "{553, 592}";
},
{
name = topright;
position = "{553, 592}";
}
);
layerId = "07EDFDFD-5D57-4B5D-B56C-4C47BCD544BF";
paths = (
{
closed = 1;
nodes = (
"301 189 OFFCURVE",
"364 279 OFFCURVE",
"364 389 CURVE SMOOTH",
"364 439 OFFCURVE",
"348 486 OFFCURVE",
"319 523 CURVE SMOOTH",
"286 565 OFFCURVE",
"239 593 OFFCURVE",
"181 593 CURVE SMOOTH",
"147 593 OFFCURVE",
"113 584 OFFCURVE",
"80 571 CURVE",
"92 547 LINE",
"126 561 OFFCURVE",
"154 568 OFFCURVE",
"182 568 CURVE SMOOTH",
"282 568 OFFCURVE",
"337 484 OFFCURVE",
"337 391 CURVE SMOOTH",
"337 291 OFFCURVE",
"288 213 OFFCURVE",
"197 213 CURVE SMOOTH",
"121 213 OFFCURVE",
"78 263 OFFCURVE",
"41 320 CURVE",
"22 309 LINE",
"61 243 OFFCURVE",
"114 189 OFFCURVE",
"198 189 CURVE SMOOTH"
);
},
{
closed = 1;
nodes = (
"490 315 OFFCURVE",
"521 323 OFFCURVE",
"544 334 CURVE",
"544 367 LINE",
"519 350 OFFCURVE",
"487 340 OFFCURVE",
"457 340 CURVE SMOOTH",
"436 340 OFFCURVE",
"401 344 OFFCURVE",
"360 363 CURVE",
"349 350 LINE",
"378 329 OFFCURVE",
"417 315 OFFCURVE",
"458 315 CURVE SMOOTH"
);
},
{
closed = 1;
nodes = (
"634 -5 OFFCURVE",
"658 13 OFFCURVE",
"682 35 CURVE",
"666 61 LINE",
"644 36 OFFCURVE",
"616 20 OFFCURVE",
"590 20 CURVE SMOOTH",
"577 20 OFFCURVE",
"567 26 OFFCURVE",
"567 42 CURVE SMOOTH",
"567 594 LINE",
"540 607 LINE",
"540 55 LINE SMOOTH",
"540 34 OFFCURVE",
"548 18 OFFCURVE",
"561 8 CURVE SMOOTH",
"571 0 OFFCURVE",
"584 -5 OFFCURVE",
"599 -5 CURVE SMOOTH"
);
}
);
width = 646;
},
{
anchors = (
{
name = bottom;
position = "{586, 0}";
},
{
name = bottomleft;
position = "{210, 0}";
},
{
name = bottomright;
position = "{586, 0}";
},
{
name = top;
position = "{586, 592}";
},
{
name = topright;
position = "{586, 592}";
}
);
layerId = "939FCF6B-2DD7-48E5-8D7B-BBFD097386C5";
paths = (
{
closed = 1;
nodes = (
"350 159 OFFCURVE",
"409 240 OFFCURVE",
"409 338 CURVE SMOOTH",
"409 413 OFFCURVE",
"383 460 OFFCURVE",
"328 520 CURVE SMOOTH",
"276 576 OFFCURVE",
"223 607 OFFCURVE",
"160 607 CURVE SMOOTH",
"111 607 OFFCURVE",
"77 594 OFFCURVE",
"46 577 CURVE",
"129 447 LINE",
"154 473 OFFCURVE",
"185 493 OFFCURVE",
"219 493 CURVE SMOOTH",
"260 493 OFFCURVE",
"276 464 OFFCURVE",
"276 418 CURVE SMOOTH",
"276 345 OFFCURVE",
"235 282 OFFCURVE",
"166 282 CURVE SMOOTH",
"121 282 OFFCURVE",
"93 309 OFFCURVE",
"68 350 CURVE",
"12 313 LINE",
"62 223 OFFCURVE",
"134 159 OFFCURVE",
"243 159 CURVE SMOOTH"
);
},
{
closed = 1;
nodes = (
"498 295 OFFCURVE",
"520 301 OFFCURVE",
"533 308 CURVE",
"533 440 LINE",
"519 415 OFFCURVE",
"474 393 OFFCURVE",
"427 393 CURVE SMOOTH",
"401 393 OFFCURVE",
"374 403 OFFCURVE",
"352 416 CURVE",
"334 359 LINE",
"362 326 OFFCURVE",
"418 295 OFFCURVE",
"472 295 CURVE SMOOTH"
);
},
{
closed = 1;
nodes = (
"761 -5 OFFCURVE",
"792 13 OFFCURVE",
"813 35 CURVE",
"751 154 LINE",
"723 120 OFFCURVE",
"693 100 OFFCURVE",
"671 100 CURVE SMOOTH",
"665 100 OFFCURVE",
"662 102 OFFCURVE",
"662 109 CURVE SMOOTH",
"662 579 LINE",
"510 612 LINE",
"510 167 LINE SMOOTH",
"510 109 OFFCURVE",
"546 76 OFFCURVE",
"589 46 CURVE SMOOTH",
"637 13 OFFCURVE",
"676 -5 OFFCURVE",
"721 -5 CURVE SMOOTH"
);
}
);
width = 767;
},
{
anchors = (
{
name = bottom;
position = "{573, 0}";
},
{
name = bottomleft;
position = "{203, 0}";
},
{
name = bottomright;
position = "{573, 0}";
},
{
name = top;
position = "{573, 592}";
},
{
name = topright;
position = "{573, 592}";
}
);
layerId = "419046E3-5D27-4998-A2CB-16719C068B75";
paths = (
{
closed = 1;
nodes = (
"326 174 OFFCURVE",
"387 252 OFFCURVE",
"387 350 CURVE SMOOTH",
"387 415 OFFCURVE",
"367 463 OFFCURVE",
"313 523 CURVE SMOOTH",
"263 579 OFFCURVE",
"214 605 OFFCURVE",
"155 605 CURVE SMOOTH",
"116 605 OFFCURVE",
"82 596 OFFCURVE",
"52 579 CURVE",
"122 470 LINE",
"146 492 OFFCURVE",
"176 507 OFFCURVE",
"208 507 CURVE SMOOTH",
"254 507 OFFCURVE",
"278 479 OFFCURVE",
"278 415 CURVE SMOOTH",
"278 338 OFFCURVE",
"237 275 OFFCURVE",
"165 275 CURVE SMOOTH",
"119 275 OFFCURVE",
"89 302 OFFCURVE",
"62 346 CURVE",
"14 314 LINE",
"58 236 OFFCURVE",
"123 174 OFFCURVE",
"222 174 CURVE SMOOTH"
);
},
{
closed = 1;
nodes = (
"494 294 OFFCURVE",
"514 301 OFFCURVE",
"527 308 CURVE",
"527 425 LINE",
"512 401 OFFCURVE",
"468 379 OFFCURVE",
"418 379 CURVE SMOOTH",
"392 379 OFFCURVE",
"366 388 OFFCURVE",
"346 399 CURVE",
"329 356 LINE",
"356 325 OFFCURVE",
"408 294 OFFCURVE",
"464 294 CURVE SMOOTH"
);
},
{
closed = 1;
nodes = (
"728 -5 OFFCURVE",
"756 13 OFFCURVE",
"775 31 CURVE",
"722 128 LINE",
"696 98 OFFCURVE",
"666 79 OFFCURVE",
"643 79 CURVE SMOOTH",
"637 79 OFFCURVE",
"634 82 OFFCURVE",
"634 89 CURVE SMOOTH",
"634 579 LINE",
"512 612 LINE",
"512 149 LINE SMOOTH",
"512 99 OFFCURVE",
"537 71 OFFCURVE",
"580 40 CURVE SMOOTH",
"619 12 OFFCURVE",
"652 -5 OFFCURVE",
"691 -5 CURVE SMOOTH"
);
}
);
width = 731;
}
);
leftKerningGroup = "GUJ_nya-L";
rightKerningGroup = "GUJ_kana-R";
unicode = 0A9E;
script = gujarati;
category = Letter;
subCategory = Other;
},
{
glyphname = "tta-gujarati";
layers = (
{
anchors = (
{
name = bottom;
position = "{281, 0}";
},
{
name = bottomleft;
position = "{281, -125}";
},
{
name = bottomright;
position = "{279, 0}";
},
{
name = bottomround;
position = "{281, 73}";
},
{
name = top;
position = "{352, 592}";
},
{
name = topright;
position = "{266, 592}";
}
);
layerId = "ACBF538B-D069-4B9F-8DD8-08CC286AACA9";
paths = (
{
closed = 1;
nodes = (
"373 -2 OFFCURVE",
"440 42 OFFCURVE",
"474 68 CURVE",
"426 139 LINE",
"363 90 OFFCURVE",
"290 64 OFFCURVE",
"226 64 CURVE SMOOTH",
"185 64 OFFCURVE",
"138 87 OFFCURVE",
"138 141 CURVE SMOOTH",
"138 287 OFFCURVE",
"446 253 OFFCURVE",
"446 430 CURVE SMOOTH",
"446 466 OFFCURVE",
"429 495 OFFCURVE",
"394 535 CURVE SMOOTH",
"359 575 OFFCURVE",
"308 598 OFFCURVE",
"261 598 CURVE SMOOTH",
"200 598 OFFCURVE",
"135 575 OFFCURVE",
"99 558 CURVE",
"135 482 LINE",
"189 507 OFFCURVE",
"256 526 OFFCURVE",
"299 526 CURVE SMOOTH",
"338 526 OFFCURVE",
"376 507 OFFCURVE",
"376 460 CURVE SMOOTH",
"376 342 OFFCURVE",
"64 351 OFFCURVE",
"64 177 CURVE SMOOTH",
"64 130 OFFCURVE",
"85 96 OFFCURVE",
"126 58 CURVE SMOOTH",
"187 2 OFFCURVE",
"245 -2 OFFCURVE",
"281 -2 CURVE SMOOTH"
);
}
);
width = 482;
},
{
anchors = (
{
name = bottom;
position = "{263, 0}";
},
{
name = bottomleft;
position = "{263, -125}";
},
{
name = bottomright;
position = "{262, 0}";
},
{
name = bottomround;
position = "{263, 63}";
},
{
name = top;
position = "{361, 592}";
},
{
name = topright;
position = "{279, 592}";
}
);
layerId = "07EDFDFD-5D57-4B5D-B56C-4C47BCD544BF";
paths = (
{
closed = 1;
nodes = (
"357 -2 OFFCURVE",
"432 34 OFFCURVE",
"479 68 CURVE",
"462 93 LINE",
"423 61 OFFCURVE",
"355 22 OFFCURVE",
"261 22 CURVE SMOOTH",
"145 22 OFFCURVE",
"96 83 OFFCURVE",
"96 144 CURVE SMOOTH",
"96 302 OFFCURVE",
"451 271 OFFCURVE",
"451 456 CURVE SMOOTH",
"451 494 OFFCURVE",
"435 526 OFFCURVE",
"408 551 CURVE SMOOTH",
"376 580 OFFCURVE",
"330 598 OFFCURVE",
"279 598 CURVE SMOOTH",
"218 598 OFFCURVE",
"173 586 OFFCURVE",
"105 558 CURVE",
"117 531 LINE",
"185 560 OFFCURVE",
"230 573 OFFCURVE",
"280 573 CURVE SMOOTH",
"363 573 OFFCURVE",
"423 528 OFFCURVE",
"423 458 CURVE SMOOTH",
"423 291 OFFCURVE",
"68 333 OFFCURVE",
"68 146 CURVE SMOOTH",
"68 101 OFFCURVE",
"88 65 OFFCURVE",
"121 39 CURVE SMOOTH",
"155 12 OFFCURVE",
"206 -2 OFFCURVE",
"265 -2 CURVE SMOOTH"
);
}
);
width = 493;
},
{
anchors = (
{
name = bottom;
position = "{299, 0}";
},
{
name = bottomleft;
position = "{299, -125}";
},
{
name = bottomright;
position = "{299, 0}";
},
{
name = bottomround;
position = "{299, 71}";
},
{
name = top;
position = "{378, 592}";
},
{
name = topright;
position = "{299, 592}";
}
);
layerId = "939FCF6B-2DD7-48E5-8D7B-BBFD097386C5";
paths = (
{
closed = 1;
nodes = (
"403 -7 OFFCURVE",
"471 26 OFFCURVE",
"530 73 CURVE",
"450 198 LINE",
"372 138 OFFCURVE",
"296 99 OFFCURVE",
"239 99 CURVE SMOOTH",
"210 99 OFFCURVE",
"195 113 OFFCURVE",
"195 135 CURVE SMOOTH",
"195 227 OFFCURVE",
"494 237 OFFCURVE",
"494 411 CURVE SMOOTH",
"494 446 OFFCURVE",
"477 481 OFFCURVE",
"455 513 CURVE SMOOTH",
"417 568 OFFCURVE",
"360 608 OFFCURVE",
"262 608 CURVE SMOOTH",
"207 608 OFFCURVE",
"144 592 OFFCURVE",
"91 571 CURVE",
"151 445 LINE",
"216 475 OFFCURVE",
"282 500 OFFCURVE",
"331 500 CURVE SMOOTH",
"358 500 OFFCURVE",
"373 490 OFFCURVE",
"373 468 CURVE SMOOTH",
"373 386 OFFCURVE",
"58 358 OFFCURVE",
"58 194 CURVE SMOOTH",
"58 144 OFFCURVE",
"88 103 OFFCURVE",
"130 65 CURVE SMOOTH",
"179 21 OFFCURVE",
"231 -7 OFFCURVE",
"309 -7 CURVE SMOOTH"
);
}
);
width = 534;
},
{
anchors = (
{
name = bottom;
position = "{291, 0}";
},
{
name = bottomleft;
position = "{288, -125}";
},
{
name = bottomright;
position = "{291, 0}";
},
{
name = bottomround;
position = "{288, 72}";
},
{
name = top;
position = "{373, 592}";
},
{
name = topright;
position = "{273, 592}";
}
);
layerId = "419046E3-5D27-4998-A2CB-16719C068B75";
paths = (
{
closed = 1;
nodes = (
"390 -5 OFFCURVE",
"458 33 OFFCURVE",
"506 71 CURVE",
"439 173 LINE",
"368 118 OFFCURVE",
"293 84 OFFCURVE",
"233 84 CURVE SMOOTH",
"199 84 OFFCURVE",
"171 102 OFFCURVE",
"171 137 CURVE SMOOTH",
"171 252 OFFCURVE",
"474 244 OFFCURVE",
"474 419 CURVE SMOOTH",
"474 455 OFFCURVE",
"456 487 OFFCURVE",
"429 522 CURVE SMOOTH",
"391 571 OFFCURVE",
"337 604 OFFCURVE",
"261 604 CURVE SMOOTH",
"204 604 OFFCURVE",
"140 585 OFFCURVE",
"94 565 CURVE",
"144 461 LINE",
"204 489 OFFCURVE",
"270 512 OFFCURVE",
"316 512 CURVE SMOOTH",
"349 512 OFFCURVE",
"374 498 OFFCURVE",
"374 465 CURVE SMOOTH",
"374 368 OFFCURVE",
"60 355 OFFCURVE",
"60 187 CURVE SMOOTH",
"60 138 OFFCURVE",
"87 100 OFFCURVE",
"128 62 CURVE SMOOTH",
"182 13 OFFCURVE",
"236 -5 OFFCURVE",
"297 -5 CURVE SMOOTH"
);
}
);
width = 512;
}
);
leftKerningGroup = "GUJ_tta-L";
unicode = 0A9F;
script = gujarati;
category = Letter;
subCategory = Other;
},
{
glyphname = "ttha-gujarati";
layers = (
{
anchors = (
{
name = bottom;
position = "{270, 0}";
},
{
name = bottomleft;
position = "{270, -125}";
},
{
name = bottomright;
position = "{264, 0}";
},
{
name = bottomround;
position = "{270, 73}";
},
{
name = top;
position = "{352, 592}";
},
{
name = topright;
position = "{285, 592}";
}
);
layerId = "ACBF538B-D069-4B9F-8DD8-08CC286AACA9";
paths = (
{
closed = 1;
nodes = (
"415 -3 OFFCURVE",
"475 70 OFFCURVE",
"475 152 CURVE SMOOTH",
"475 214 OFFCURVE",
"437 279 OFFCURVE",
"360 323 CURVE SMOOTH",
"277 371 OFFCURVE",
"210 393 OFFCURVE",
"210 451 CURVE SMOOTH",
"210 502 OFFCURVE",
"262 525 OFFCURVE",
"338 525 CURVE SMOOTH",
"358 525 OFFCURVE",
"378 523 OFFCURVE",
"394 521 CURVE",
"376 598 LINE",
"357 601 OFFCURVE",
"335 603 OFFCURVE",
"314 603 CURVE SMOOTH",
"207 603 OFFCURVE",
"130 558 OFFCURVE",
"130 473 CURVE SMOOTH",
"130 398 OFFCURVE",
"205 345 OFFCURVE",
"290 318 CURVE",
"323 312 LINE",
"290 330 OFFCURVE",
"252 340 OFFCURVE",
"216 340 CURVE SMOOTH",
"129 340 OFFCURVE",
"54 282 OFFCURVE",
"54 196 CURVE SMOOTH",
"54 133 OFFCURVE",
"93 85 OFFCURVE",
"141 49 CURVE SMOOTH",
"190 12 OFFCURVE",
"238 -3 OFFCURVE",
"297 -3 CURVE SMOOTH"
);
},
{
closed = 1;
nodes = (
"184 52 OFFCURVE",
"138 110 OFFCURVE",
"138 169 CURVE SMOOTH",
"138 251 OFFCURVE",
"202 300 OFFCURVE",
"272 300 CURVE SMOOTH",
"341 300 OFFCURVE",
"392 248 OFFCURVE",
"392 183 CURVE SMOOTH",
"392 102 OFFCURVE",
"333 52 OFFCURVE",
"259 52 CURVE SMOOTH"
);
}
);
width = 489;
},
{
anchors = (
{
name = bottom;
position = "{284, 0}";
},
{
name = bottomleft;
position = "{283, -125}";
},
{
name = bottomright;
position = "{283, 0}";
},
{
name = bottomround;
position = "{283, 63}";
},
{
name = top;
position = "{365, 592}";
},
{
name = topright;
position = "{299, 592}";
}
);
layerId = "07EDFDFD-5D57-4B5D-B56C-4C47BCD544BF";
paths = (
{
closed = 1;
nodes = (
"380 -3 OFFCURVE",
"478 48 OFFCURVE",
"478 163 CURVE SMOOTH",
"478 267 OFFCURVE",
"392 308 OFFCURVE",
"312 345 CURVE SMOOTH",
"240 378 OFFCURVE",
"173 410 OFFCURVE",
"173 481 CURVE SMOOTH",
"173 552 OFFCURVE",
"234 578 OFFCURVE",
"317 578 CURVE SMOOTH",
"333 578 OFFCURVE",
"363 578 OFFCURVE",
"396 573 CURVE",
"391 597 LINE",
"358 602 OFFCURVE",
"333 603 OFFCURVE",
"316 603 CURVE SMOOTH",
"220 603 OFFCURVE",
"146 562 OFFCURVE",
"146 483 CURVE SMOOTH",
"146 396 OFFCURVE",
"229 357 OFFCURVE",
"310 326 CURVE",
"310 330 LINE",
"298 333 OFFCURVE",
"279 337 OFFCURVE",
"258 337 CURVE SMOOTH",
"141 337 OFFCURVE",
"64 269 OFFCURVE",
"64 177 CURVE SMOOTH",
"64 124 OFFCURVE",
"90 77 OFFCURVE",
"133 44 CURVE SMOOTH",
"172 14 OFFCURVE",
"226 -3 OFFCURVE",
"283 -3 CURVE SMOOTH"
);
},
{
closed = 1;
nodes = (
"172 21 OFFCURVE",
"91 88 OFFCURVE",
"91 175 CURVE SMOOTH",
"91 257 OFFCURVE",
"156 316 OFFCURVE",
"259 316 CURVE SMOOTH",
"366 316 OFFCURVE",
"451 257 OFFCURVE",
"451 165 CURVE SMOOTH",
"451 61 OFFCURVE",
"366 21 OFFCURVE",
"282 21 CURVE SMOOTH"
);
}
);
width = 498;
},
{
anchors = (
{
name = bottom;
position = "{275, 0}";
},
{
name = bottomleft;
position = "{274, -125}";
},
{
name = bottomright;
position = "{280, 0}";
},
{
name = bottomround;
position = "{275, 73}";
},
{
name = top;
position = "{365, 592}";
},
{
name = topright;
position = "{299, 592}";
}
);
layerId = "939FCF6B-2DD7-48E5-8D7B-BBFD097386C5";
paths = (
{
closed = 1;
nodes = (
"445 -7 OFFCURVE",
"513 66 OFFCURVE",
"513 147 CURVE SMOOTH",
"513 254 OFFCURVE",
"421 305 OFFCURVE",
"351 348 CURVE SMOOTH",
"307 375 OFFCURVE",
"271 396 OFFCURVE",
"271 427 CURVE SMOOTH",
"271 458 OFFCURVE",
"306 471 OFFCURVE",
"357 471 CURVE SMOOTH",
"384 471 OFFCURVE",
"410 468 OFFCURVE",
"430 464 CURVE",
"401 600 LINE",
"374 604 OFFCURVE",
"341 607 OFFCURVE",
"312 607 CURVE SMOOTH",
"204 607 OFFCURVE",
"125 560 OFFCURVE",
"125 473 CURVE SMOOTH",
"125 398 OFFCURVE",
"192 350 OFFCURVE",
"260 313 CURVE",
"336 319 LINE",
"302 340 OFFCURVE",
"263 353 OFFCURVE",
"224 353 CURVE SMOOTH",
"128 353 OFFCURVE",
"48 292 OFFCURVE",
"48 203 CURVE SMOOTH",
"48 147 OFFCURVE",
"77 97 OFFCURVE",
"123 60 CURVE SMOOTH",
"173 20 OFFCURVE",
"242 -7 OFFCURVE",
"311 -7 CURVE SMOOTH"
);
},
{
closed = 1;
nodes = (
"225 84 OFFCURVE",
"203 111 OFFCURVE",
"203 146 CURVE SMOOTH",
"203 209 OFFCURVE",
"248 272 OFFCURVE",
"304 272 CURVE SMOOTH",
"338 272 OFFCURVE",
"357 246 OFFCURVE",
"357 211 CURVE SMOOTH",
"357 140 OFFCURVE",
"313 84 OFFCURVE",
"259 84 CURVE SMOOTH"
);
}
);
width = 523;
},
{
anchors = (
{
name = bottom;
position = "{277, 0}";
},
{
name = bottomleft;
position = "{276, -125}";
},
{
name = bottomright;
position = "{273, 0}";
},
{
name = bottomround;
position = "{277, 73}";
},
{
name = top;
position = "{359, 592}";
},
{
name = topright;
position = "{292, 592}";
}
);
layerId = "419046E3-5D27-4998-A2CB-16719C068B75";
paths = (
{
closed = 1;
nodes = (
"432 -5 OFFCURVE",
"496 68 OFFCURVE",
"496 149 CURVE SMOOTH",
"496 238 OFFCURVE",
"427 294 OFFCURVE",
"354 337 CURVE SMOOTH",
"294 373 OFFCURVE",
"245 395 OFFCURVE",
"245 438 CURVE SMOOTH",
"245 477 OFFCURVE",
"287 494 OFFCURVE",
"349 494 CURVE SMOOTH",
"373 494 OFFCURVE",
"396 491 OFFCURVE",
"415 488 CURVE",
"390 599 LINE",
"367 603 OFFCURVE",
"338 605 OFFCURVE",
"313 605 CURVE SMOOTH",
"205 605 OFFCURVE",
"126 559 OFFCURVE",
"126 473 CURVE SMOOTH",
"126 398 OFFCURVE",
"197 348 OFFCURVE",
"272 315 CURVE",
"330 316 LINE",
"296 335 OFFCURVE",
"258 348 OFFCURVE",
"220 348 CURVE SMOOTH",
"128 348 OFFCURVE",
"50 288 OFFCURVE",
"50 200 CURVE SMOOTH",
"50 141 OFFCURVE",
"83 92 OFFCURVE",
"130 55 CURVE SMOOTH",
"180 16 OFFCURVE",
"240 -5 OFFCURVE",
"305 -5 CURVE SMOOTH"
);
},
{
closed = 1;
nodes = (
"208 71 OFFCURVE",
"175 111 OFFCURVE",
"175 156 CURVE SMOOTH",
"175 227 OFFCURVE",
"228 284 OFFCURVE",
"291 284 CURVE SMOOTH",
"339 284 OFFCURVE",
"372 247 OFFCURVE",
"372 199 CURVE SMOOTH",
"372 124 OFFCURVE",
"321 71 OFFCURVE",
"259 71 CURVE SMOOTH"
);
}
);
width = 508;
}
);
leftKerningGroup = "GUJ_ttha-L";
unicode = 0AA0;
script = gujarati;
category = Letter;
subCategory = Other;
},
{
glyphname = "dda-gujarati";
layers = (
{
anchors = (
{
name = bottom;
position = "{271, 0}";
},
{
name = bottomleft;
position = "{271, -125}";
},
{
name = bottomright;
position = "{251, 0}";
},
{
name = bottomround;
position = "{271, 73}";
},
{
name = top;
position = "{353, 592}";
},
{
name = topright;
position = "{306, 592}";
}
);
layerId = "ACBF538B-D069-4B9F-8DD8-08CC286AACA9";
paths = (
{
closed = 1;
nodes = (
"385 -5 OFFCURVE",
"467 42 OFFCURVE",
"467 139 CURVE SMOOTH",
"467 325 OFFCURVE",
"212 310 OFFCURVE",
"212 438 CURVE SMOOTH",
"212 498 OFFCURVE",
"264 525 OFFCURVE",
"339 525 CURVE SMOOTH",
"359 525 OFFCURVE",
"379 523 OFFCURVE",
"395 521 CURVE",
"377 598 LINE",
"358 601 OFFCURVE",
"336 603 OFFCURVE",
"315 603 CURVE SMOOTH",
"212 603 OFFCURVE",
"132 554 OFFCURVE",
"132 464 CURVE SMOOTH",
"132 295 OFFCURVE",
"385 306 OFFCURVE",
"385 161 CURVE SMOOTH",
"385 103 OFFCURVE",
"339 69 OFFCURVE",
"273 69 CURVE SMOOTH",
"212 69 OFFCURVE",
"139 102 OFFCURVE",
"70 182 CURVE",
"36 154 LINE",
"92 84 OFFCURVE",
"188 -5 OFFCURVE",
"302 -5 CURVE SMOOTH"
);
}
);
width = 481;
},
{
anchors = (
{
name = bottom;
position = "{302, 0}";
},
{
name = bottomleft;
position = "{302, -125}";
},
{
name = bottomright;
position = "{305, 0}";
},
{
name = bottomround;
position = "{302, 59}";
},
{
name = top;
position = "{355, 592}";
},
{
name = topright;
position = "{312, 592}";
}
);
layerId = "07EDFDFD-5D57-4B5D-B56C-4C47BCD544BF";
paths = (
{
closed = 1;
nodes = (
"400 -5 OFFCURVE",
"469 56 OFFCURVE",
"469 134 CURVE SMOOTH",
"469 319 OFFCURVE",
"162 308 OFFCURVE",
"162 467 CURVE SMOOTH",
"162 534 OFFCURVE",
"217 578 OFFCURVE",
"310 578 CURVE SMOOTH",
"337 578 OFFCURVE",
"357 576 OFFCURVE",
"386 570 CURVE",
"380 596 LINE",
"357 600 OFFCURVE",
"334 603 OFFCURVE",
"309 603 CURVE SMOOTH",
"207 603 OFFCURVE",
"135 551 OFFCURVE",
"135 469 CURVE SMOOTH",
"135 292 OFFCURVE",
"442 299 OFFCURVE",
"442 136 CURVE SMOOTH",
"442 65 OFFCURVE",
"391 19 OFFCURVE",
"309 19 CURVE SMOOTH",
"205 19 OFFCURVE",
"122 89 OFFCURVE",
"61 167 CURVE",
"42 152 LINE",
"111 67 OFFCURVE",
"201 -5 OFFCURVE",
"310 -5 CURVE SMOOTH"
);
}
);
width = 485;
},
{
anchors = (
{
name = bottom;
position = "{310, 0}";
},
{
name = bottomleft;
position = "{310, -125}";
},
{
name = bottomright;
position = "{307, 0}";
},
{
name = bottomround;
position = "{310, 71}";
},
{
name = top;
position = "{378, 592}";
},
{
name = topright;
position = "{332, 592}";
}
);
layerId = "939FCF6B-2DD7-48E5-8D7B-BBFD097386C5";
paths = (
{
closed = 1;
nodes = (
"448 -7 OFFCURVE",
"522 44 OFFCURVE",
"522 136 CURVE SMOOTH",
"522 301 OFFCURVE",
"289 318 OFFCURVE",
"289 408 CURVE SMOOTH",
"289 449 OFFCURVE",
"328 469 OFFCURVE",
"383 469 CURVE SMOOTH",
"408 469 OFFCURVE",
"432 466 OFFCURVE",
"451 462 CURVE",
"422 599 LINE",
"395 604 OFFCURVE",
"359 607 OFFCURVE",
"328 607 CURVE SMOOTH",
"216 607 OFFCURVE",
"128 556 OFFCURVE",
"128 457 CURVE SMOOTH",
"128 300 OFFCURVE",
"356 283 OFFCURVE",
"356 178 CURVE SMOOTH",
"356 141 OFFCURVE",
"325 120 OFFCURVE",
"280 120 CURVE SMOOTH",
"217 120 OFFCURVE",
"156 153 OFFCURVE",
"86 215 CURVE",
"32 165 LINE",
"110 76 OFFCURVE",
"204 -7 OFFCURVE",
"353 -7 CURVE SMOOTH"
);
}
);
width = 530;
},
{
anchors = (
{
name = bottom;
position = "{292, 0}";
},
{
name = bottomleft;
position = "{292, -125}";
},
{
name = bottomright;
position = "{296, 0}";
},
{
name = bottomround;
position = "{292, 72}";
},
{
name = top;
position = "{368, 592}";
},
{
name = topright;
position = "{321, 592}";
}
);
layerId = "419046E3-5D27-4998-A2CB-16719C068B75";
paths = (
{
closed = 1;
nodes = (
"422 -6 OFFCURVE",
"500 42 OFFCURVE",
"500 138 CURVE SMOOTH",
"500 311 OFFCURVE",
"257 315 OFFCURVE",
"257 420 CURVE SMOOTH",
"257 469 OFFCURVE",
"301 493 OFFCURVE",
"365 493 CURVE SMOOTH",
"388 493 OFFCURVE",
"410 490 OFFCURVE",
"428 486 CURVE",
"403 599 LINE",
"380 603 OFFCURVE",
"350 605 OFFCURVE",
"323 605 CURVE SMOOTH",
"215 605 OFFCURVE",
"130 555 OFFCURVE",
"130 460 CURVE SMOOTH",
"130 298 OFFCURVE",
"369 292 OFFCURVE",
"369 171 CURVE SMOOTH",
"369 125 OFFCURVE",
"331 99 OFFCURVE",
"277 99 CURVE SMOOTH",
"215 99 OFFCURVE",
"149 131 OFFCURVE",
"80 201 CURVE",
"34 161 LINE",
"103 80 OFFCURVE",
"197 -6 OFFCURVE",
"332 -6 CURVE SMOOTH"
);
}
);
width = 510;
}
);
leftKerningGroup = "GUJ_nga-L";
unicode = 0AA1;
script = gujarati;
category = Letter;
subCategory = Other;
},
{
glyphname = "ddha-gujarati";
layers = (
{
anchors = (
{
name = bottom;
position = "{294, 0}";
},
{
name = bottomleft;
position = "{294, -125}";
},
{
name = bottomright;
position = "{277, 0}";
},
{
name = bottomround;
position = "{294, 73}";
},
{
name = top;
position = "{341, 592}";
},
{
name = topright;
position = "{327, 592}";
}
);
layerId = "ACBF538B-D069-4B9F-8DD8-08CC286AACA9";
paths = (
{
closed = 1;
nodes = (
"433 -4 OFFCURVE",
"500 57 OFFCURVE",
"500 128 CURVE SMOOTH",
"500 167 OFFCURVE",
"481 200 OFFCURVE",
"450 232 CURVE SMOOTH",
"412 271 OFFCURVE",
"374 282 OFFCURVE",
"342 282 CURVE SMOOTH",
"267 282 OFFCURVE",
"220 227 OFFCURVE",
"220 161 CURVE SMOOTH",
"220 112 OFFCURVE",
"235 83 OFFCURVE",
"260 52 CURVE",
"294 52 LINE",
"292 67 OFFCURVE",
"292 82 OFFCURVE",
"292 94 CURVE SMOOTH",
"292 188 OFFCURVE",
"341 217 OFFCURVE",
"379 217 CURVE SMOOTH",
"409 217 OFFCURVE",
"427 198 OFFCURVE",
"427 172 CURVE SMOOTH",
"427 123 OFFCURVE",
"376 62 OFFCURVE",
"282 62 CURVE SMOOTH",
"207 62 OFFCURVE",
"128 113 OFFCURVE",
"128 205 CURVE SMOOTH",
"128 373 OFFCURVE",
"405 348 OFFCURVE",
"405 489 CURVE SMOOTH",
"405 525 OFFCURVE",
"386 561 OFFCURVE",
"335 600 CURVE",
"301 572 LINE",
"315 560 OFFCURVE",
"330 543 OFFCURVE",
"330 521 CURVE SMOOTH",
"330 432 OFFCURVE",
"54 434 OFFCURVE",
"54 238 CURVE SMOOTH",
"54 167 OFFCURVE",
"94 108 OFFCURVE",
"149 64 CURVE SMOOTH",
"201 23 OFFCURVE",
"254 -4 OFFCURVE",
"327 -4 CURVE SMOOTH"
);
}
);
width = 502;
},
{
anchors = (
{
name = bottom;
position = "{336, 0}";
},
{
name = bottomleft;
position = "{336, -125}";
},
{
name = bottomright;
position = "{312, 0}";
},
{
name = bottomround;
position = "{336, 63}";
},
{
name = top;
position = "{346, 592}";
},
{
name = topright;
position = "{362, 592}";
}
);
layerId = "07EDFDFD-5D57-4B5D-B56C-4C47BCD544BF";
paths = (
{
closed = 1;
nodes = (
"465 -4 OFFCURVE",
"536 63 OFFCURVE",
"536 145 CURVE SMOOTH",
"536 183 OFFCURVE",
"519 220 OFFCURVE",
"493 245 CURVE SMOOTH",
"469 268 OFFCURVE",
"439 282 OFFCURVE",
"400 282 CURVE SMOOTH",
"323 282 OFFCURVE",
"264 229 OFFCURVE",
"264 143 CURVE SMOOTH",
"264 92 OFFCURVE",
"281 49 OFFCURVE",
"310 8 CURVE",
"330 8 LINE",
"302 55 OFFCURVE",
"292 92 OFFCURVE",
"292 141 CURVE SMOOTH",
"292 214 OFFCURVE",
"339 257 OFFCURVE",
"401 257 CURVE SMOOTH",
"465 257 OFFCURVE",
"508 210 OFFCURVE",
"508 147 CURVE SMOOTH",
"508 80 OFFCURVE",
"452 21 OFFCURVE",
"346 21 CURVE SMOOTH",
"233 21 OFFCURVE",
"115 103 OFFCURVE",
"115 225 CURVE SMOOTH",
"115 411 OFFCURVE",
"412 397 OFFCURVE",
"412 519 CURVE SMOOTH",
"412 548 OFFCURVE",
"397 571 OFFCURVE",
"359 600 CURVE",
"346 585 LINE",
"372 564 OFFCURVE",
"385 548 OFFCURVE",
"385 521 CURVE SMOOTH",
"385 423 OFFCURVE",
"88 424 OFFCURVE",
"88 227 CURVE SMOOTH",
"88 162 OFFCURVE",
"119 107 OFFCURVE",
"163 69 CURVE SMOOTH",
"214 24 OFFCURVE",
"279 -4 OFFCURVE",
"347 -4 CURVE SMOOTH"
);
}
);
width = 550;
},
{
anchors = (
{
name = bottom;
position = "{299, 0}";
},
{
name = bottomleft;
position = "{299, -125}";
},
{
name = bottomright;
position = "{291, 0}";
},
{
name = bottomround;
position = "{299, 71}";
},
{
name = top;
position = "{365, 592}";
},
{
name = topright;
position = "{351, 592}";
}
);
layerId = "939FCF6B-2DD7-48E5-8D7B-BBFD097386C5";
paths = (
{
closed = 1;
nodes = (
"461 -7 OFFCURVE",
"539 40 OFFCURVE",
"539 130 CURVE SMOOTH",
"539 173 OFFCURVE",
"514 219 OFFCURVE",
"479 250 CURVE SMOOTH",
"447 279 OFFCURVE",
"409 298 OFFCURVE",
"362 298 CURVE SMOOTH",
"293 298 OFFCURVE",
"242 249 OFFCURVE",
"242 182 CURVE SMOOTH",
"242 132 OFFCURVE",
"267 90 OFFCURVE",
"309 52 CURVE",
"338 52 LINE",
"336 67 OFFCURVE",
"335 82 OFFCURVE",
"335 94 CURVE SMOOTH",
"335 171 OFFCURVE",
"375 211 OFFCURVE",
"410 211 CURVE SMOOTH",
"431 211 OFFCURVE",
"441 199 OFFCURVE",
"441 182 CURVE SMOOTH",
"441 145 OFFCURVE",
"372 103 OFFCURVE",
"266 103 CURVE SMOOTH",
"212 103 OFFCURVE",
"170 134 OFFCURVE",
"170 186 CURVE SMOOTH",
"170 331 OFFCURVE",
"443 320 OFFCURVE",
"443 470 CURVE SMOOTH",
"443 525 OFFCURVE",
"409 570 OFFCURVE",
"338 617 CURVE",
"279 570 LINE",
"293 558 OFFCURVE",
"301 548 OFFCURVE",
"301 531 CURVE SMOOTH",
"301 452 OFFCURVE",
"44 442 OFFCURVE",
"44 260 CURVE SMOOTH",
"44 186 OFFCURVE",
"79 127 OFFCURVE",
"134 80 CURVE SMOOTH",
"199 25 OFFCURVE",
"265 -7 OFFCURVE",
"353 -7 CURVE SMOOTH"
);
}
);
width = 549;
},
{
anchors = (
{
name = bottom;
position = "{306, 0}";
},
{
name = bottomleft;
position = "{303, -125}";
},
{
name = bottomright;
position = "{285, 0}";
},
{
name = bottomround;
position = "{303, 72}";
},
{
name = top;
position = "{355, 592}";
},
{
name = topright;
position = "{341, 592}";
}
);
layerId = "419046E3-5D27-4998-A2CB-16719C068B75";
paths = (
{
closed = 1;
nodes = (
"449 -5 OFFCURVE",
"522 47 OFFCURVE",
"522 129 CURVE SMOOTH",
"522 171 OFFCURVE",
"500 211 OFFCURVE",
"467 243 CURVE SMOOTH",
"433 275 OFFCURVE",
"394 291 OFFCURVE",
"354 291 CURVE SMOOTH",
"282 291 OFFCURVE",
"233 240 OFFCURVE",
"233 173 CURVE SMOOTH",
"233 124 OFFCURVE",
"253 87 OFFCURVE",
"288 52 CURVE",
"320 52 LINE",
"318 67 OFFCURVE",
"317 82 OFFCURVE",
"317 94 CURVE SMOOTH",
"317 178 OFFCURVE",
"361 214 OFFCURVE",
"397 214 CURVE SMOOTH",
"421 214 OFFCURVE",
"435 199 OFFCURVE",
"435 178 CURVE SMOOTH",
"435 136 OFFCURVE",
"374 85 OFFCURVE",
"272 85 CURVE SMOOTH",
"210 85 OFFCURVE",
"153 125 OFFCURVE",
"153 194 CURVE SMOOTH",
"153 349 OFFCURVE",
"427 332 OFFCURVE",
"427 478 CURVE SMOOTH",
"427 525 OFFCURVE",
"399 566 OFFCURVE",
"337 610 CURVE",
"288 571 LINE",
"302 559 OFFCURVE",
"313 546 OFFCURVE",
"313 527 CURVE SMOOTH",
"313 444 OFFCURVE",
"48 438 OFFCURVE",
"48 250 CURVE SMOOTH",
"48 178 OFFCURVE",
"85 120 OFFCURVE",
"141 73 CURVE SMOOTH",
"199 24 OFFCURVE",
"260 -5 OFFCURVE",
"342 -5 CURVE SMOOTH"
);
}
);
width = 530;
}
);
leftKerningGroup = "GUJ_ddha-L";
rightKerningGroup = "GUJ_DDHA-R";
unicode = 0AA2;
script = gujarati;
category = Letter;
subCategory = Other;
},
{
glyphname = "nna-gujarati";
layers = (
{
anchors = (
{
name = bottom;
position = "{680, 0}";
},
{
name = bottomleft;
position = "{252, -82}";
},
{
name = bottomright;
position = "{781, 0}";
},
{
name = top;
position = "{680, 592}";
},
{
name = topright;
position = "{680, 592}";
}
);
layerId = "ACBF538B-D069-4B9F-8DD8-08CC286AACA9";
paths = (
{
closed = 1;
nodes = (
"550 -180 OFFCURVE",
"574 -152 OFFCURVE",
"574 -111 CURVE SMOOTH",
"574 -15 OFFCURVE",
"469 17 OFFCURVE",
"378 54 CURVE SMOOTH",
"226 116 OFFCURVE",
"167 130 OFFCURVE",
"167 198 CURVE SMOOTH",
"167 579 LINE",
"86 612 LINE",
"86 227 LINE SMOOTH",
"86 111 OFFCURVE",
"159 96 OFFCURVE",
"343 20 CURVE SMOOTH",
"455 -26 OFFCURVE",
"489 -53 OFFCURVE",
"489 -93 CURVE SMOOTH",
"489 -113 OFFCURVE",
"479 -132 OFFCURVE",
"455 -146 CURVE",
"522 -197 LINE"
);
},
{
closed = 1;
nodes = (
"487 202 OFFCURVE",
"548 273 OFFCURVE",
"548 367 CURVE SMOOTH",
"548 429 OFFCURVE",
"534 462 OFFCURVE",
"482 520 CURVE SMOOTH",
"435 573 OFFCURVE",
"393 593 OFFCURVE",
"340 593 CURVE SMOOTH",
"319 593 OFFCURVE",
"295 591 OFFCURVE",
"273 583 CURVE",
"320 502 LINE",
"338 512 OFFCURVE",
"361 521 OFFCURVE",
"382 521 CURVE SMOOTH",
"437 521 OFFCURVE",
"471 479 OFFCURVE",
"471 411 CURVE SMOOTH",
"471 333 OFFCURVE",
"433 274 OFFCURVE",
"364 274 CURVE SMOOTH",
"330 274 OFFCURVE",
"308 288 OFFCURVE",
"285 313 CURVE",
"249 288 LINE",
"278 244 OFFCURVE",
"323 202 OFFCURVE",
"393 202 CURVE SMOOTH"
);
},
{
closed = 1;
nodes = (
"806 -5 OFFCURVE",
"831 12 OFFCURVE",
"848 25 CURVE",
"806 93 LINE",
"784 67 OFFCURVE",
"753 51 OFFCURVE",
"730 51 CURVE SMOOTH",
"724 51 OFFCURVE",
"720 53 OFFCURVE",
"720 61 CURVE SMOOTH",
"720 579 LINE",
"640 612 LINE",
"640 125 LINE SMOOTH",
"640 82 OFFCURVE",
"651 63 OFFCURVE",
"691 31 CURVE SMOOTH",
"719 9 OFFCURVE",
"744 -5 OFFCURVE",
"774 -5 CURVE SMOOTH"
);
}
);
width = 806;
},
{
anchors = (
{
name = bottom;
position = "{656, 0}";
},
{
name = bottomleft;
position = "{251, -82}";
},
{
name = bottomright;
position = "{656, 0}";
},
{
name = top;
position = "{654, 592}";
},
{
name = topright;
position = "{654, 592}";
}
);
layerId = "07EDFDFD-5D57-4B5D-B56C-4C47BCD544BF";
paths = (
{
closed = 1;
nodes = (
"519 -139 OFFCURVE",
"523 -114 OFFCURVE",
"523 -93 CURVE SMOOTH",
"523 -23 OFFCURVE",
"417 12 OFFCURVE",
"326 50 CURVE SMOOTH",
"174 113 OFFCURVE",
"117 132 OFFCURVE",
"117 218 CURVE SMOOTH",
"117 598 LINE",
"90 612 LINE",
"90 227 LINE SMOOTH",
"90 111 OFFCURVE",
"162 96 OFFCURVE",
"346 20 CURVE SMOOTH",
"458 -26 OFFCURVE",
"496 -54 OFFCURVE",
"496 -92 CURVE SMOOTH",
"496 -102 OFFCURVE",
"496 -123 OFFCURVE",
"463 -149 CURVE",
"486 -167 LINE"
);
},
{
closed = 1;
nodes = (
"467 202 OFFCURVE",
"521 284 OFFCURVE",
"521 382 CURVE SMOOTH",
"521 429 OFFCURVE",
"508 478 OFFCURVE",
"482 516 CURVE SMOOTH",
"451 562 OFFCURVE",
"404 593 OFFCURVE",
"342 593 CURVE SMOOTH",
"317 593 OFFCURVE",
"291 588 OFFCURVE",
"264 578 CURVE",
"278 554 LINE",
"300 564 OFFCURVE",
"321 569 OFFCURVE",
"343 569 CURVE SMOOTH",
"448 569 OFFCURVE",
"494 477 OFFCURVE",
"494 384 CURVE SMOOTH",
"494 299 OFFCURVE",
"451 226 OFFCURVE",
"368 226 CURVE SMOOTH",
"309 226 OFFCURVE",
"269 265 OFFCURVE",
"246 295 CURVE",
"226 281 LINE",
"262 238 OFFCURVE",
"306 202 OFFCURVE",
"369 202 CURVE SMOOTH"
);
},
{
closed = 1;
nodes = (
"735 -5 OFFCURVE",
"759 13 OFFCURVE",
"783 35 CURVE",
"767 61 LINE",
"745 36 OFFCURVE",
"717 20 OFFCURVE",
"691 20 CURVE SMOOTH",
"678 20 OFFCURVE",
"668 26 OFFCURVE",
"668 42 CURVE SMOOTH",
"668 594 LINE",
"641 607 LINE",
"641 55 LINE SMOOTH",
"641 34 OFFCURVE",
"649 18 OFFCURVE",
"662 8 CURVE SMOOTH",
"672 0 OFFCURVE",
"685 -5 OFFCURVE",
"700 -5 CURVE SMOOTH"
);
}
);
width = 747;
},
{
anchors = (
{
name = bottom;
position = "{828, 0}";
},
{
name = bottomleft;
position = "{302, -82}";
},
{
name = bottomright;
position = "{778, 0}";
},
{
name = top;
position = "{778, 592}";
},
{
name = topright;
position = "{778, 592}";
}
);
layerId = "939FCF6B-2DD7-48E5-8D7B-BBFD097386C5";
paths = (
{
closed = 1;
nodes = (
"596 -183 OFFCURVE",
"639 -145 OFFCURVE",
"639 -87 CURVE SMOOTH",
"639 -14 OFFCURVE",
"581 23 OFFCURVE",
"441 79 CURVE SMOOTH",
"271 147 OFFCURVE",
"231 165 OFFCURVE",
"231 242 CURVE SMOOTH",
"231 579 LINE",
"80 612 LINE",
"80 271 LINE SMOOTH",
"80 141 OFFCURVE",
"139 118 OFFCURVE",
"383 18 CURVE SMOOTH",
"482 -22 OFFCURVE",
"510 -39 OFFCURVE",
"510 -69 CURVE SMOOTH",
"510 -97 OFFCURVE",
"484 -116 OFFCURVE",
"441 -136 CURVE",
"546 -215 LINE"
);
},
{
closed = 1;
nodes = (
"585 169 OFFCURVE",
"644 243 OFFCURVE",
"644 333 CURVE SMOOTH",
"644 405 OFFCURVE",
"617 457 OFFCURVE",
"563 520 CURVE SMOOTH",
"514 577 OFFCURVE",
"466 607 OFFCURVE",
"401 607 CURVE SMOOTH",
"366 607 OFFCURVE",
"335 599 OFFCURVE",
"311 587 CURVE",
"389 458 LINE",
"410 478 OFFCURVE",
"433 493 OFFCURVE",
"459 493 CURVE SMOOTH",
"496 493 OFFCURVE",
"511 464 OFFCURVE",
"511 420 CURVE SMOOTH",
"511 352 OFFCURVE",
"477 292 OFFCURVE",
"418 292 CURVE SMOOTH",
"388 292 OFFCURVE",
"370 307 OFFCURVE",
"353 329 CURVE",
"297 292 LINE",
"338 221 OFFCURVE",
"395 169 OFFCURVE",
"481 169 CURVE SMOOTH"
);
},
{
closed = 1;
nodes = (
"953 -5 OFFCURVE",
"983 13 OFFCURVE",
"1005 35 CURVE",
"943 154 LINE",
"915 120 OFFCURVE",
"885 100 OFFCURVE",
"863 100 CURVE SMOOTH",
"857 100 OFFCURVE",
"854 102 OFFCURVE",
"854 109 CURVE SMOOTH",
"854 579 LINE",
"702 612 LINE",
"702 167 LINE SMOOTH",
"702 109 OFFCURVE",
"738 76 OFFCURVE",
"781 46 CURVE SMOOTH",
"829 13 OFFCURVE",
"868 -5 OFFCURVE",
"913 -5 CURVE SMOOTH"
);
}
);
width = 959;
},
{
anchors = (
{
name = bottom;
position = "{767, 0}";
},
{
name = bottomleft;
position = "{282, -82}";
},
{
name = bottomright;
position = "{737, 0}";
},
{
name = top;
position = "{737, 592}";
},
{
name = topright;
position = "{737, 592}";
}
);
layerId = "419046E3-5D27-4998-A2CB-16719C068B75";
paths = (
{
closed = 1;
nodes = (
"577 -182 OFFCURVE",
"612 -147 OFFCURVE",
"612 -97 CURVE SMOOTH",
"612 -14 OFFCURVE",
"535 21 OFFCURVE",
"416 68 CURVE SMOOTH",
"252 133 OFFCURVE",
"205 150 OFFCURVE",
"205 224 CURVE SMOOTH",
"205 579 LINE",
"84 612 LINE",
"84 252 LINE SMOOTH",
"84 128 OFFCURVE",
"147 110 OFFCURVE",
"367 19 CURVE SMOOTH",
"471 -24 OFFCURVE",
"502 -45 OFFCURVE",
"502 -79 CURVE SMOOTH",
"502 -104 OFFCURVE",
"482 -123 OFFCURVE",
"448 -140 CURVE",
"537 -208 LINE"
);
},
{
closed = 1;
nodes = (
"544 183 OFFCURVE",
"604 256 OFFCURVE",
"604 348 CURVE SMOOTH",
"604 416 OFFCURVE",
"583 459 OFFCURVE",
"529 520 CURVE SMOOTH",
"481 575 OFFCURVE",
"436 602 OFFCURVE",
"376 602 CURVE SMOOTH",
"347 602 OFFCURVE",
"319 596 OFFCURVE",
"296 585 CURVE",
"360 477 LINE",
"380 492 OFFCURVE",
"403 505 OFFCURVE",
"428 505 CURVE SMOOTH",
"472 505 OFFCURVE",
"495 471 OFFCURVE",
"495 416 CURVE SMOOTH",
"495 344 OFFCURVE",
"459 284 OFFCURVE",
"396 284 CURVE SMOOTH",
"364 284 OFFCURVE",
"344 299 OFFCURVE",
"325 322 CURVE",
"277 291 LINE",
"314 230 OFFCURVE",
"365 183 OFFCURVE",
"445 183 CURVE SMOOTH"
);
},
{
closed = 1;
nodes = (
"892 -5 OFFCURVE",
"920 13 OFFCURVE",
"939 31 CURVE",
"886 128 LINE",
"861 98 OFFCURVE",
"830 79 OFFCURVE",
"808 79 CURVE SMOOTH",
"802 79 OFFCURVE",
"798 82 OFFCURVE",
"798 89 CURVE SMOOTH",
"798 579 LINE",
"676 612 LINE",
"676 149 LINE SMOOTH",
"676 99 OFFCURVE",
"701 71 OFFCURVE",
"744 40 CURVE SMOOTH",
"784 11 OFFCURVE",
"816 -5 OFFCURVE",
"855 -5 CURVE SMOOTH"
);
}
);
width = 895;
}
);
leftKerningGroup = "GUJ_nna-L";
rightKerningGroup = "GUJ_kana-R";
unicode = 0AA3;
script = gujarati;
category = Letter;
subCategory = Other;
},
{
glyphname = "nna-gujarati.calt";
layers = (
{
anchors = (
{
name = bottom;
position = "{680, 0}";
},
{
name = bottomleft;
position = "{233, -67}";
},
{
name = bottomright;
position = "{781, 0}";
},
{
name = top;
position = "{680, 592}";
},
{
name = topright;
position = "{680, 592}";
}
);
layerId = "ACBF538B-D069-4B9F-8DD8-08CC286AACA9";
paths = (
{
closed = 1;
nodes = (
"432 -127 OFFCURVE",
"456 -98 OFFCURVE",
"456 -58 CURVE SMOOTH",
"456 34 OFFCURVE",
"354 64 OFFCURVE",
"270 99 CURVE SMOOTH",
"193 131 OFFCURVE",
"167 151 OFFCURVE",
"167 198 CURVE SMOOTH",
"167 579 LINE",
"86 612 LINE",
"86 227 LINE SMOOTH",
"86 136 OFFCURVE",
"128 110 OFFCURVE",
"234 65 CURVE SMOOTH",
"338 21 OFFCURVE",
"371 -3 OFFCURVE",
"371 -40 CURVE SMOOTH",
"371 -61 OFFCURVE",
"360 -79 OFFCURVE",
"336 -93 CURVE",
"404 -145 LINE"
);
},
{
closed = 1;
nodes = (
"487 202 OFFCURVE",
"548 273 OFFCURVE",
"548 367 CURVE SMOOTH",
"548 429 OFFCURVE",
"534 462 OFFCURVE",
"482 520 CURVE SMOOTH",
"435 573 OFFCURVE",
"393 593 OFFCURVE",
"340 593 CURVE SMOOTH",
"319 593 OFFCURVE",
"295 591 OFFCURVE",
"273 583 CURVE",
"320 502 LINE",
"338 512 OFFCURVE",
"361 521 OFFCURVE",
"382 521 CURVE SMOOTH",
"437 521 OFFCURVE",
"471 479 OFFCURVE",
"471 411 CURVE SMOOTH",
"471 333 OFFCURVE",
"433 274 OFFCURVE",
"364 274 CURVE SMOOTH",
"330 274 OFFCURVE",
"308 288 OFFCURVE",
"285 313 CURVE",
"249 288 LINE",
"278 244 OFFCURVE",
"323 202 OFFCURVE",
"393 202 CURVE SMOOTH"
);
},
{
closed = 1;
nodes = (
"806 -5 OFFCURVE",
"831 12 OFFCURVE",
"848 25 CURVE",
"806 93 LINE",
"784 67 OFFCURVE",
"753 51 OFFCURVE",
"730 51 CURVE SMOOTH",
"724 51 OFFCURVE",
"720 53 OFFCURVE",
"720 61 CURVE SMOOTH",
"720 579 LINE",
"640 612 LINE",
"640 125 LINE SMOOTH",
"640 85 OFFCURVE",
"649 63 OFFCURVE",
"691 31 CURVE SMOOTH",
"721 8 OFFCURVE",
"744 -5 OFFCURVE",
"774 -5 CURVE SMOOTH"
);
}
);
width = 806;
},
{
anchors = (
{
name = bottom;
position = "{646, 0}";
},
{
name = bottomleft;
position = "{251, -82}";
},
{
name = bottomright;
position = "{646, 0}";
},
{
name = top;
position = "{645, 592}";
},
{
name = topright;
position = "{645, 592}";
}
);
layerId = "07EDFDFD-5D57-4B5D-B56C-4C47BCD544BF";
paths = (
{
closed = 1;
nodes = (
"450 -105 OFFCURVE",
"455 -80 OFFCURVE",
"455 -59 CURVE SMOOTH",
"455 18 OFFCURVE",
"347 53 OFFCURVE",
"258 89 CURVE SMOOTH",
"143 136 OFFCURVE",
"117 171 OFFCURVE",
"117 252 CURVE SMOOTH",
"117 598 LINE",
"90 612 LINE",
"90 261 LINE SMOOTH",
"90 150 OFFCURVE",
"128 121 OFFCURVE",
"278 59 CURVE SMOOTH",
"390 13 OFFCURVE",
"428 -15 OFFCURVE",
"428 -58 CURVE SMOOTH",
"428 -67 OFFCURVE",
"427 -89 OFFCURVE",
"395 -115 CURVE",
"417 -132 LINE"
);
},
{
closed = 1;
nodes = (
"467 208 OFFCURVE",
"521 296 OFFCURVE",
"521 391 CURVE SMOOTH",
"521 434 OFFCURVE",
"509 479 OFFCURVE",
"484 516 CURVE SMOOTH",
"454 561 OFFCURVE",
"406 593 OFFCURVE",
"342 593 CURVE SMOOTH",
"317 593 OFFCURVE",
"291 588 OFFCURVE",
"264 578 CURVE",
"278 554 LINE",
"300 564 OFFCURVE",
"321 569 OFFCURVE",
"343 569 CURVE SMOOTH",
"448 569 OFFCURVE",
"494 478 OFFCURVE",
"494 393 CURVE SMOOTH",
"494 311 OFFCURVE",
"451 233 OFFCURVE",
"368 233 CURVE SMOOTH",
"309 233 OFFCURVE",
"269 272 OFFCURVE",
"246 302 CURVE",
"226 288 LINE",
"262 245 OFFCURVE",
"306 208 OFFCURVE",
"369 208 CURVE SMOOTH"
);
},
{
closed = 1;
nodes = (
"725 -5 OFFCURVE",
"750 13 OFFCURVE",
"773 35 CURVE",
"757 61 LINE",
"735 36 OFFCURVE",
"708 20 OFFCURVE",
"682 20 CURVE SMOOTH",
"668 20 OFFCURVE",
"658 26 OFFCURVE",
"658 42 CURVE SMOOTH",
"658 594 LINE",
"631 607 LINE",
"631 55 LINE SMOOTH",
"631 34 OFFCURVE",
"639 18 OFFCURVE",
"652 8 CURVE SMOOTH",
"662 0 OFFCURVE",
"675 -5 OFFCURVE",
"690 -5 CURVE SMOOTH"
);
}
);
width = 737;
},
{
anchors = (
{
name = bottom;
position = "{828, 0}";
},
{
name = bottomleft;
position = "{268, -72}";
},
{
name = bottomright;
position = "{778, 0}";
},
{
name = top;
position = "{778, 592}";
},
{
name = topright;
position = "{778, 592}";
}
);
layerId = "939FCF6B-2DD7-48E5-8D7B-BBFD097386C5";
paths = (
{
closed = 1;
nodes = (
"509 -152 OFFCURVE",
"549 -110 OFFCURVE",
"549 -57 CURVE SMOOTH",
"549 17 OFFCURVE",
"491 53 OFFCURVE",
"352 109 CURVE SMOOTH",
"248 151 OFFCURVE",
"231 179 OFFCURVE",
"231 242 CURVE SMOOTH",
"231 579 LINE",
"80 612 LINE",
"80 271 LINE SMOOTH",
"80 156 OFFCURVE",
"116 125 OFFCURVE",
"293 48 CURVE SMOOTH",
"392 5 OFFCURVE",
"420 -8 OFFCURVE",
"420 -39 CURVE SMOOTH",
"420 -66 OFFCURVE",
"396 -84 OFFCURVE",
"358 -105 CURVE",
"463 -185 LINE"
);
},
{
closed = 1;
nodes = (
"585 169 OFFCURVE",
"644 243 OFFCURVE",
"644 333 CURVE SMOOTH",
"644 405 OFFCURVE",
"617 457 OFFCURVE",
"563 520 CURVE SMOOTH",
"514 577 OFFCURVE",
"466 607 OFFCURVE",
"401 607 CURVE SMOOTH",
"366 607 OFFCURVE",
"335 599 OFFCURVE",
"311 587 CURVE",
"389 458 LINE",
"410 478 OFFCURVE",
"433 493 OFFCURVE",
"459 493 CURVE SMOOTH",
"496 493 OFFCURVE",
"511 464 OFFCURVE",
"511 420 CURVE SMOOTH",
"511 352 OFFCURVE",
"477 292 OFFCURVE",
"418 292 CURVE SMOOTH",
"388 292 OFFCURVE",
"370 307 OFFCURVE",
"353 329 CURVE",
"297 292 LINE",
"338 221 OFFCURVE",
"395 169 OFFCURVE",
"481 169 CURVE SMOOTH"
);
},
{
closed = 1;
nodes = (
"953 -5 OFFCURVE",
"983 13 OFFCURVE",
"1005 35 CURVE",
"943 154 LINE",
"915 120 OFFCURVE",
"885 100 OFFCURVE",
"863 100 CURVE SMOOTH",
"857 100 OFFCURVE",
"854 102 OFFCURVE",
"854 109 CURVE SMOOTH",
"854 579 LINE",
"702 612 LINE",
"702 167 LINE SMOOTH",
"702 109 OFFCURVE",
"738 76 OFFCURVE",
"781 46 CURVE SMOOTH",
"829 13 OFFCURVE",
"868 -5 OFFCURVE",
"913 -5 CURVE SMOOTH"
);
}
);
width = 959;
},
{
anchors = (
{
name = bottom;
position = "{767, 0}";
},
{
name = bottomleft;
position = "{254, -70}";
},
{
name = bottomright;
position = "{737, 0}";
},
{
name = top;
position = "{737, 592}";
},
{
name = topright;
position = "{737, 592}";
}
);
layerId = "419046E3-5D27-4998-A2CB-16719C068B75";
paths = (
{
closed = 1;
nodes = (
"477 -142 OFFCURVE",
"510 -105 OFFCURVE",
"510 -57 CURVE SMOOTH",
"510 24 OFFCURVE",
"435 57 OFFCURVE",
"318 105 CURVE SMOOTH",
"225 143 OFFCURVE",
"205 167 OFFCURVE",
"205 224 CURVE SMOOTH",
"205 579 LINE",
"84 612 LINE",
"84 252 LINE SMOOTH",
"84 148 OFFCURVE",
"122 119 OFFCURVE",
"269 55 CURVE SMOOTH",
"370 11 OFFCURVE",
"400 -6 OFFCURVE",
"400 -39 CURVE SMOOTH",
"400 -64 OFFCURVE",
"382 -82 OFFCURVE",
"350 -100 CURVE",
"439 -168 LINE"
);
},
{
closed = 1;
nodes = (
"544 183 OFFCURVE",
"604 256 OFFCURVE",
"604 348 CURVE SMOOTH",
"604 416 OFFCURVE",
"583 459 OFFCURVE",
"529 520 CURVE SMOOTH",
"481 575 OFFCURVE",
"436 602 OFFCURVE",
"376 602 CURVE SMOOTH",
"347 602 OFFCURVE",
"319 596 OFFCURVE",
"296 585 CURVE",
"360 477 LINE",
"380 492 OFFCURVE",
"403 505 OFFCURVE",
"428 505 CURVE SMOOTH",
"472 505 OFFCURVE",
"495 471 OFFCURVE",
"495 416 CURVE SMOOTH",
"495 344 OFFCURVE",
"459 284 OFFCURVE",
"396 284 CURVE SMOOTH",
"364 284 OFFCURVE",
"344 299 OFFCURVE",
"325 322 CURVE",
"277 291 LINE",
"314 230 OFFCURVE",
"365 183 OFFCURVE",
"445 183 CURVE SMOOTH"
);
},
{
closed = 1;
nodes = (
"892 -5 OFFCURVE",
"920 13 OFFCURVE",
"939 31 CURVE",
"886 128 LINE",
"861 98 OFFCURVE",
"830 79 OFFCURVE",
"808 79 CURVE SMOOTH",
"802 79 OFFCURVE",
"798 82 OFFCURVE",
"798 89 CURVE SMOOTH",
"798 579 LINE",
"676 612 LINE",
"676 149 LINE SMOOTH",
"676 99 OFFCURVE",
"701 71 OFFCURVE",
"744 40 CURVE SMOOTH",
"784 11 OFFCURVE",
"816 -5 OFFCURVE",
"855 -5 CURVE SMOOTH"
);
}
);
width = 895;
}
);
leftKerningGroup = "GUJ_nna-L";
rightKerningGroup = "GUJ_kana-R";
script = gujarati;
category = Letter;
subCategory = Other;
userData = {
com.typemytype.robofont.layerData = {
background = {
anchors = (
);
components = (
);
contours = (
{
points = (
{
segmentType = line;
smooth = 0;
x = 1306;
y = -259;
},
{
smooth = 0;
x = 1341;
y = -228;
},
{
smooth = 0;
x = 1400;
y = -199;
},
{
segmentType = curve;
smooth = 1;
x = 1456;
y = -199;
},
{
smooth = 0;
x = 1519;
y = -199;
},
{
smooth = 0;
x = 1587;
y = -230;
},
{
segmentType = curve;
smooth = 1;
x = 1587;
y = -311;
},
{
smooth = 0;
x = 1587;
y = -391;
},
{
smooth = 0;
x = 1492;
y = -469;
},
{
segmentType = curve;
smooth = 1;
x = 1351;
y = -469;
},
{
smooth = 0;
x = 1202;
y = -469;
},
{
smooth = 0;
x = 1105;
y = -367;
},
{
segmentType = curve;
smooth = 0;
x = 1043;
y = -279;
},
{
segmentType = line;
smooth = 0;
x = 939;
y = -366;
},
{
smooth = 0;
x = 1055;
y = -485;
},
{
smooth = 0;
x = 1254;
y = -604;
},
{
segmentType = curve;
smooth = 1;
x = 1440;
y = -604;
},
{
smooth = 0;
x = 1604;
y = -604;
},
{
smooth = 0;
x = 1711;
y = -498;
},
{
segmentType = curve;
smooth = 1;
x = 1711;
y = -363;
},
{
smooth = 0;
x = 1711;
y = -300;
},
{
smooth = 0;
x = 1673;
y = -229;
},
{
segmentType = curve;
smooth = 1;
x = 1634;
y = -176;
},
{
smooth = 0;
x = 1580;
y = -103;
},
{
smooth = 0;
x = 1504;
y = -51;
},
{
segmentType = curve;
smooth = 1;
x = 1401;
y = -51;
},
{
smooth = 0;
x = 1340;
y = -51;
},
{
smooth = 0;
x = 1276;
y = -68;
},
{
segmentType = curve;
smooth = 0;
x = 1203;
y = -112;
}
);
}
);
lib = {
};
name = gjNNA.matrau;
unicodes = (
);
width = 1648;
};
};
};
},
{
glyphname = "ta-gujarati";
layers = (
{
anchors = (
{
name = bottom;
position = "{417, 0}";
},
{
name = bottomleft;
position = "{185, -105}";
},
{
name = bottomright;
position = "{518, 0}";
},
{
name = top;
position = "{417, 592}";
},
{
name = topright;
position = "{417, 592}";
}
);
layerId = "ACBF538B-D069-4B9F-8DD8-08CC286AACA9";
paths = (
{
closed = 1;
nodes = (
"262 29 LINE",
"194 91 OFFCURVE",
"143 164 OFFCURVE",
"143 237 CURVE SMOOTH",
"143 313 OFFCURVE",
"193 352 OFFCURVE",
"281 352 CURVE SMOOTH",
"396 352 LINE",
"396 434 LINE",
"247 434 LINE SMOOTH",
"136 434 OFFCURVE",
"56 375 OFFCURVE",
"56 272 CURVE SMOOTH",
"56 162 OFFCURVE",
"139 70 OFFCURVE",
"227 -3 CURVE"
);
},
{
closed = 1;
nodes = (
"543 -5 OFFCURVE",
"568 12 OFFCURVE",
"585 25 CURVE",
"543 93 LINE",
"521 67 OFFCURVE",
"490 51 OFFCURVE",
"467 51 CURVE SMOOTH",
"461 51 OFFCURVE",
"458 53 OFFCURVE",
"458 61 CURVE SMOOTH",
"458 579 LINE",
"377 612 LINE",
"377 125 LINE SMOOTH",
"377 85 OFFCURVE",
"386 63 OFFCURVE",
"428 31 CURVE SMOOTH",
"457 9 OFFCURVE",
"481 -5 OFFCURVE",
"512 -5 CURVE SMOOTH"
);
}
);
width = 543;
},
{
anchors = (
{
name = bottom;
position = "{422, 0}";
},
{
name = bottomleft;
position = "{186, -76}";
},
{
name = bottomright;
position = "{422, 0}";
},
{
name = top;
position = "{420, 592}";
},
{
name = topright;
position = "{420, 592}";
}
);
layerId = "07EDFDFD-5D57-4B5D-B56C-4C47BCD544BF";
paths = (
{
closed = 1;
nodes = (
"250 12 LINE",
"167 83 OFFCURVE",
"89 165 OFFCURVE",
"89 269 CURVE SMOOTH",
"89 365 OFFCURVE",
"154 410 OFFCURVE",
"267 410 CURVE SMOOTH",
"421 410 LINE",
"421 434 LINE",
"266 434 LINE SMOOTH",
"134 434 OFFCURVE",
"62 374 OFFCURVE",
"62 271 CURVE SMOOTH",
"62 162 OFFCURVE",
"145 69 OFFCURVE",
"233 -3 CURVE"
);
},
{
closed = 1;
nodes = (
"501 -5 OFFCURVE",
"525 13 OFFCURVE",
"549 35 CURVE",
"533 61 LINE",
"510 36 OFFCURVE",
"483 20 OFFCURVE",
"457 20 CURVE SMOOTH",
"443 20 OFFCURVE",
"434 26 OFFCURVE",
"434 42 CURVE SMOOTH",
"434 594 LINE",
"406 607 LINE",
"406 55 LINE SMOOTH",
"406 34 OFFCURVE",
"415 18 OFFCURVE",
"427 8 CURVE SMOOTH",
"437 0 OFFCURVE",
"451 -5 OFFCURVE",
"465 -5 CURVE SMOOTH"
);
}
);
width = 513;
},
{
anchors = (
{
name = bottom;
position = "{441, 0}";
},
{
name = bottomleft;
position = "{191, -105}";
},
{
name = bottomright;
position = "{441, 0}";
},
{
name = top;
position = "{441, 592}";
},
{
name = topright;
position = "{441, 592}";
}
);
layerId = "939FCF6B-2DD7-48E5-8D7B-BBFD097386C5";
paths = (
{
closed = 1;
nodes = (
"291 51 LINE",
"241 102 OFFCURVE",
"203 163 OFFCURVE",
"203 224 CURVE SMOOTH",
"203 284 OFFCURVE",
"243 317 OFFCURVE",
"309 317 CURVE SMOOTH",
"412 317 LINE",
"412 458 LINE",
"262 458 LINE SMOOTH",
"140 458 OFFCURVE",
"52 393 OFFCURVE",
"52 280 CURVE SMOOTH",
"52 162 OFFCURVE",
"143 71 OFFCURVE",
"240 -5 CURVE"
);
},
{
closed = 1;
nodes = (
"616 -5 OFFCURVE",
"647 13 OFFCURVE",
"668 35 CURVE",
"606 154 LINE",
"578 120 OFFCURVE",
"548 100 OFFCURVE",
"526 100 CURVE SMOOTH",
"520 100 OFFCURVE",
"517 102 OFFCURVE",
"517 109 CURVE SMOOTH",
"517 579 LINE",
"365 612 LINE",
"365 167 LINE SMOOTH",
"365 109 OFFCURVE",
"401 76 OFFCURVE",
"444 46 CURVE SMOOTH",
"492 13 OFFCURVE",
"531 -5 OFFCURVE",
"576 -5 CURVE SMOOTH"
);
}
);
width = 622;
},
{
anchors = (
{
name = bottom;
position = "{431, 0}";
},
{
name = bottomleft;
position = "{189, -105}";
},
{
name = bottomright;
position = "{431, 0}";
},
{
name = top;
position = "{432, 592}";
},
{
name = topright;
position = "{432, 592}";
}
);
layerId = "419046E3-5D27-4998-A2CB-16719C068B75";
paths = (
{
closed = 1;
nodes = (
"279 42 LINE",
"222 97 OFFCURVE",
"178 163 OFFCURVE",
"178 229 CURVE SMOOTH",
"178 296 OFFCURVE",
"222 332 OFFCURVE",
"297 332 CURVE SMOOTH",
"406 332 LINE",
"406 448 LINE",
"256 448 LINE SMOOTH",
"139 448 OFFCURVE",
"54 385 OFFCURVE",
"54 276 CURVE SMOOTH",
"54 162 OFFCURVE",
"141 70 OFFCURVE",
"235 -4 CURVE"
);
},
{
closed = 1;
nodes = (
"586 -5 OFFCURVE",
"614 13 OFFCURVE",
"633 31 CURVE",
"581 128 LINE",
"555 98 OFFCURVE",
"524 79 OFFCURVE",
"501 79 CURVE SMOOTH",
"496 79 OFFCURVE",
"492 82 OFFCURVE",
"492 89 CURVE SMOOTH",
"492 579 LINE",
"371 612 LINE",
"371 149 LINE SMOOTH",
"371 99 OFFCURVE",
"395 71 OFFCURVE",
"438 40 CURVE SMOOTH",
"478 11 OFFCURVE",
"510 -5 OFFCURVE",
"549 -5 CURVE SMOOTH"
);
}
);
width = 589;
}
);
leftKerningGroup = "GUJ_ta-L";
rightKerningGroup = "GUJ_kana-R";
unicode = 0AA4;
script = gujarati;
category = Letter;
subCategory = Other;
},
{
glyphname = "tha-gujarati";
layers = (
{
anchors = (
{
name = bottom;
position = "{451, 0}";
},
{
name = bottomleft;
position = "{189, 44}";
},
{
name = bottomright;
position = "{552, 0}";
},
{
name = top;
position = "{452, 592}";
},
{
name = topright;
position = "{452, 592}";
}
);
layerId = "ACBF538B-D069-4B9F-8DD8-08CC286AACA9";
paths = (
{
closed = 1;
nodes = (
"360 166 OFFCURVE",
"409 192 OFFCURVE",
"443 227 CURVE",
"438 328 LINE",
"392 259 OFFCURVE",
"317 231 OFFCURVE",
"245 231 CURVE SMOOTH",
"188 231 OFFCURVE",
"147 256 OFFCURVE",
"147 276 CURVE SMOOTH",
"147 288 OFFCURVE",
"161 294 OFFCURVE",
"212 327 CURVE SMOOTH",
"277 369 OFFCURVE",
"310 422 OFFCURVE",
"310 475 CURVE SMOOTH",
"310 518 OFFCURVE",
"295 548 OFFCURVE",
"261 583 CURVE SMOOTH",
"234 611 OFFCURVE",
"203 634 OFFCURVE",
"161 634 CURVE SMOOTH",
"100 634 OFFCURVE",
"54 597 OFFCURVE",
"54 525 CURVE SMOOTH",
"54 458 OFFCURVE",
"112 404 OFFCURVE",
"172 375 CURVE",
"190 402 LINE",
"154 430 OFFCURVE",
"137 467 OFFCURVE",
"137 506 CURVE SMOOTH",
"137 545 OFFCURVE",
"161 570 OFFCURVE",
"193 570 CURVE SMOOTH",
"223 570 OFFCURVE",
"241 543 OFFCURVE",
"241 517 CURVE SMOOTH",
"241 431 OFFCURVE",
"129 371 OFFCURVE",
"34 334 CURVE",
"87 245 OFFCURVE",
"168 166 OFFCURVE",
"303 166 CURVE SMOOTH"
);
},
{
closed = 1;
nodes = (
"578 -5 OFFCURVE",
"603 12 OFFCURVE",
"619 25 CURVE",
"578 93 LINE",
"556 67 OFFCURVE",
"524 51 OFFCURVE",
"501 51 CURVE SMOOTH",
"495 51 OFFCURVE",
"492 53 OFFCURVE",
"492 61 CURVE SMOOTH",
"492 579 LINE",
"411 612 LINE",
"411 125 LINE SMOOTH",
"411 85 OFFCURVE",
"420 63 OFFCURVE",
"462 31 CURVE SMOOTH",
"492 8 OFFCURVE",
"515 -5 OFFCURVE",
"546 -5 CURVE SMOOTH"
);
}
);
width = 577;
},
{
anchors = (
{
name = bottom;
position = "{439, 0}";
},
{
name = bottomleft;
position = "{226, 44}";
},
{
name = bottomright;
position = "{439, 0}";
},
{
name = top;
position = "{437, 592}";
},
{
name = topright;
position = "{437, 592}";
}
);
layerId = "07EDFDFD-5D57-4B5D-B56C-4C47BCD544BF";
paths = (
{
closed = 1;
nodes = (
"345 176 OFFCURVE",
"402 206 OFFCURVE",
"441 246 CURVE",
"441 284 LINE",
"401 233 OFFCURVE",
"340 201 OFFCURVE",
"265 201 CURVE SMOOTH",
"160 201 OFFCURVE",
"83 273 OFFCURVE",
"83 296 CURVE SMOOTH",
"83 301 OFFCURVE",
"87 304 OFFCURVE",
"96 308 CURVE SMOOTH",
"186 348 OFFCURVE",
"272 411 OFFCURVE",
"272 517 CURVE SMOOTH",
"272 549 OFFCURVE",
"262 577 OFFCURVE",
"243 598 CURVE SMOOTH",
"223 620 OFFCURVE",
"195 634 OFFCURVE",
"163 634 CURVE SMOOTH",
"110 634 OFFCURVE",
"60 594 OFFCURVE",
"60 529 CURVE SMOOTH",
"60 451 OFFCURVE",
"132 400 OFFCURVE",
"180 377 CURVE",
"194 395 LINE",
"148 418 OFFCURVE",
"87 460 OFFCURVE",
"87 527 CURVE SMOOTH",
"87 568 OFFCURVE",
"114 610 OFFCURVE",
"164 610 CURVE SMOOTH",
"213 610 OFFCURVE",
"245 572 OFFCURVE",
"245 519 CURVE SMOOTH",
"245 414 OFFCURVE",
"156 364 OFFCURVE",
"40 315 CURVE",
"81 239 OFFCURVE",
"167 176 OFFCURVE",
"266 176 CURVE SMOOTH"
);
},
{
closed = 1;
nodes = (
"518 -5 OFFCURVE",
"542 13 OFFCURVE",
"566 35 CURVE",
"550 61 LINE",
"527 36 OFFCURVE",
"500 20 OFFCURVE",
"474 20 CURVE SMOOTH",
"460 20 OFFCURVE",
"451 26 OFFCURVE",
"451 42 CURVE SMOOTH",
"451 594 LINE",
"423 607 LINE",
"423 55 LINE SMOOTH",
"423 34 OFFCURVE",
"432 18 OFFCURVE",
"444 8 CURVE SMOOTH",
"454 -1 OFFCURVE",
"468 -5 OFFCURVE",
"482 -5 CURVE SMOOTH"
);
}
);
width = 530;
},
{
anchors = (
{
name = bottom;
position = "{487, 0}";
},
{
name = bottomleft;
position = "{178, 44}";
},
{
name = bottomright;
position = "{487, 0}";
},
{
name = top;
position = "{487, 592}";
},
{
name = topright;
position = "{487, 592}";
}
);
layerId = "939FCF6B-2DD7-48E5-8D7B-BBFD097386C5";
paths = (
{
closed = 1;
nodes = (
"390 146 OFFCURVE",
"432 163 OFFCURVE",
"462 188 CURVE",
"447 372 LINE",
"397 305 OFFCURVE",
"316 261 OFFCURVE",
"248 261 CURVE SMOOTH",
"213 261 OFFCURVE",
"197 268 OFFCURVE",
"197 278 CURVE SMOOTH",
"197 285 OFFCURVE",
"205 288 OFFCURVE",
"222 297 CURVE SMOOTH",
"304 341 OFFCURVE",
"349 397 OFFCURVE",
"349 466 CURVE SMOOTH",
"349 511 OFFCURVE",
"326 559 OFFCURVE",
"293 594 CURVE SMOOTH",
"262 627 OFFCURVE",
"223 649 OFFCURVE",
"178 649 CURVE SMOOTH",
"106 649 OFFCURVE",
"55 604 OFFCURVE",
"55 537 CURVE SMOOTH",
"55 453 OFFCURVE",
"135 398 OFFCURVE",
"218 375 CURVE",
"237 412 LINE",
"199 437 OFFCURVE",
"181 473 OFFCURVE",
"181 508 CURVE SMOOTH",
"181 542 OFFCURVE",
"198 564 OFFCURVE",
"222 564 CURVE SMOOTH",
"240 564 OFFCURVE",
"251 551 OFFCURVE",
"251 530 CURVE SMOOTH",
"251 468 OFFCURVE",
"156 407 OFFCURVE",
"30 354 CURVE",
"103 229 OFFCURVE",
"202 146 OFFCURVE",
"334 146 CURVE SMOOTH"
);
},
{
closed = 1;
nodes = (
"663 -5 OFFCURVE",
"693 13 OFFCURVE",
"714 35 CURVE",
"653 154 LINE",
"625 120 OFFCURVE",
"594 100 OFFCURVE",
"572 100 CURVE SMOOTH",
"566 100 OFFCURVE",
"563 102 OFFCURVE",
"563 109 CURVE SMOOTH",
"563 579 LINE",
"412 612 LINE",
"412 152 LINE SMOOTH",
"412 102 OFFCURVE",
"449 75 OFFCURVE",
"491 46 CURVE SMOOTH",
"538 13 OFFCURVE",
"577 -5 OFFCURVE",
"622 -5 CURVE SMOOTH"
);
}
);
width = 668;
},
{
anchors = (
{
name = bottom;
position = "{473, 0}";
},
{
name = bottomleft;
position = "{183, 44}";
},
{
name = bottomright;
position = "{473, 0}";
},
{
name = top;
position = "{473, 592}";
},
{
name = topright;
position = "{473, 592}";
}
);
layerId = "419046E3-5D27-4998-A2CB-16719C068B75";
paths = (
{
closed = 1;
nodes = (
"378 154 OFFCURVE",
"423 175 OFFCURVE",
"454 204 CURVE",
"443 354 LINE",
"395 286 OFFCURVE",
"317 249 OFFCURVE",
"247 249 CURVE SMOOTH",
"203 249 OFFCURVE",
"176 263 OFFCURVE",
"176 277 CURVE SMOOTH",
"176 287 OFFCURVE",
"187 292 OFFCURVE",
"218 310 CURVE SMOOTH",
"292 353 OFFCURVE",
"333 408 OFFCURVE",
"333 470 CURVE SMOOTH",
"333 514 OFFCURVE",
"314 554 OFFCURVE",
"280 589 CURVE SMOOTH",
"250 620 OFFCURVE",
"215 643 OFFCURVE",
"171 643 CURVE SMOOTH",
"104 643 OFFCURVE",
"55 601 OFFCURVE",
"55 532 CURVE SMOOTH",
"55 455 OFFCURVE",
"126 400 OFFCURVE",
"199 375 CURVE",
"218 408 LINE",
"181 434 OFFCURVE",
"163 470 OFFCURVE",
"163 507 CURVE SMOOTH",
"163 543 OFFCURVE",
"183 566 OFFCURVE",
"210 566 CURVE SMOOTH",
"233 566 OFFCURVE",
"247 548 OFFCURVE",
"247 525 CURVE SMOOTH",
"247 452 OFFCURVE",
"145 392 OFFCURVE",
"32 346 CURVE",
"97 235 OFFCURVE",
"188 154 OFFCURVE",
"322 154 CURVE SMOOTH"
);
},
{
closed = 1;
nodes = (
"627 -5 OFFCURVE",
"655 13 OFFCURVE",
"675 31 CURVE",
"622 128 LINE",
"596 98 OFFCURVE",
"565 79 OFFCURVE",
"543 79 CURVE SMOOTH",
"537 79 OFFCURVE",
"534 82 OFFCURVE",
"534 89 CURVE SMOOTH",
"534 579 LINE",
"412 612 LINE",
"412 141 LINE SMOOTH",
"412 95 OFFCURVE",
"438 70 OFFCURVE",
"479 40 CURVE SMOOTH",
"519 11 OFFCURVE",
"552 -5 OFFCURVE",
"590 -5 CURVE SMOOTH"
);
}
);
width = 631;
}
);
leftKerningGroup = "GUJ_tha-L";
rightKerningGroup = "GUJ_kana-R";
unicode = 0AA5;
script = gujarati;
category = Letter;
subCategory = Other;
},
{
glyphname = "da-gujarati";
layers = (
{
anchors = (
{
name = bottom;
position = "{282, 0}";
},
{
name = bottomleft;
position = "{282, -125}";
},
{
name = bottomright;
position = "{259, 0}";
},
{
name = bottomround;
position = "{282, 73}";
},
{
name = top;
position = "{299, 592}";
},
{
name = topright;
position = "{253, 592}";
}
);
layerId = "ACBF538B-D069-4B9F-8DD8-08CC286AACA9";
paths = (
{
closed = 1;
nodes = (
"366 -3 OFFCURVE",
"418 15 OFFCURVE",
"460 48 CURVE",
"408 116 LINE",
"362 85 OFFCURVE",
"316 72 OFFCURVE",
"257 72 CURVE SMOOTH",
"183 72 OFFCURVE",
"141 106 OFFCURVE",
"141 160 CURVE SMOOTH",
"141 252 OFFCURVE",
"284 275 OFFCURVE",
"369 280 CURVE",
"332 357 LINE",
"225 353 OFFCURVE",
"73 317 OFFCURVE",
"73 197 CURVE SMOOTH",
"73 157 OFFCURVE",
"89 120 OFFCURVE",
"123 82 CURVE SMOOTH",
"182 15 OFFCURVE",
"238 -3 OFFCURVE",
"306 -3 CURVE"
);
},
{
closed = 1;
nodes = (
"198 322 LINE",
"151 356 OFFCURVE",
"134 385 OFFCURVE",
"134 428 CURVE SMOOTH",
"134 496 OFFCURVE",
"207 518 OFFCURVE",
"261 518 CURVE SMOOTH",
"292 518 OFFCURVE",
"319 514 OFFCURVE",
"348 509 CURVE",
"330 590 LINE",
"302 595 OFFCURVE",
"272 598 OFFCURVE",
"239 598 CURVE SMOOTH",
"129 598 OFFCURVE",
"58 545 OFFCURVE",
"58 457 CURVE SMOOTH",
"58 385 OFFCURVE",
"112 325 OFFCURVE",
"168 298 CURVE"
);
}
);
width = 424;
},
{
anchors = (
{
name = bottom;
position = "{302, 0}";
},
{
name = bottomleft;
position = "{302, -125}";
},
{
name = bottomright;
position = "{267, 0}";
},
{
name = bottomround;
position = "{302, 59}";
},
{
name = top;
position = "{304, 592}";
},
{
name = topright;
position = "{277, 592}";
}
);
layerId = "07EDFDFD-5D57-4B5D-B56C-4C47BCD544BF";
paths = (
{
closed = 1;
nodes = (
"369 -3 OFFCURVE",
"424 14 OFFCURVE",
"471 43 CURVE",
"455 66 LINE",
"412 38 OFFCURVE",
"362 21 OFFCURVE",
"310 21 CURVE SMOOTH",
"219 21 OFFCURVE",
"127 70 OFFCURVE",
"127 167 CURVE SMOOTH",
"127 245 OFFCURVE",
"186 310 OFFCURVE",
"356 310 CURVE",
"347 334 LINE",
"171 334 OFFCURVE",
"100 256 OFFCURVE",
"100 169 CURVE SMOOTH",
"100 138 OFFCURVE",
"109 108 OFFCURVE",
"125 84 CURVE SMOOTH",
"160 32 OFFCURVE",
"227 -3 OFFCURVE",
"311 -3 CURVE SMOOTH"
);
},
{
closed = 1;
nodes = (
"202 303 LINE",
"138 338 OFFCURVE",
"91 387 OFFCURVE",
"91 453 CURVE SMOOTH",
"91 531 OFFCURVE",
"156 575 OFFCURVE",
"249 575 CURVE SMOOTH",
"281 575 OFFCURVE",
"308 572 OFFCURVE",
"345 566 CURVE",
"339 591 LINE",
"305 597 OFFCURVE",
"282 599 OFFCURVE",
"248 599 CURVE SMOOTH",
"144 599 OFFCURVE",
"64 540 OFFCURVE",
"64 455 CURVE SMOOTH",
"64 383 OFFCURVE",
"113 331 OFFCURVE",
"181 291 CURVE"
);
}
);
width = 441;
},
{
anchors = (
{
name = bottom;
position = "{289, 0}";
},
{
name = bottomleft;
position = "{289, -125}";
},
{
name = bottomright;
position = "{277, 0}";
},
{
name = bottomround;
position = "{289, 71}";
},
{
name = top;
position = "{305, 592}";
},
{
name = topright;
position = "{259, 592}";
}
);
layerId = "939FCF6B-2DD7-48E5-8D7B-BBFD097386C5";
paths = (
{
closed = 1;
nodes = (
"400 -7 OFFCURVE",
"455 12 OFFCURVE",
"503 48 CURVE",
"422 165 LINE",
"361 129 OFFCURVE",
"308 110 OFFCURVE",
"251 110 CURVE SMOOTH",
"216 110 OFFCURVE",
"193 126 OFFCURVE",
"193 152 CURVE SMOOTH",
"193 199 OFFCURVE",
"251 228 OFFCURVE",
"385 241 CURVE",
"326 376 LINE",
"186 365 OFFCURVE",
"71 305 OFFCURVE",
"71 195 CURVE SMOOTH",
"71 142 OFFCURVE",
"98 94 OFFCURVE",
"141 58 CURVE SMOOTH",
"188 18 OFFCURVE",
"255 -7 OFFCURVE",
"327 -7 CURVE SMOOTH"
);
},
{
closed = 1;
nodes = (
"228 320 LINE",
"205 345 OFFCURVE",
"193 365 OFFCURVE",
"193 396 CURVE SMOOTH",
"193 442 OFFCURVE",
"229 471 OFFCURVE",
"285 471 CURVE SMOOTH",
"311 471 OFFCURVE",
"333 468 OFFCURVE",
"354 462 CURVE",
"336 599 LINE",
"309 604 OFFCURVE",
"282 607 OFFCURVE",
"250 607 CURVE SMOOTH",
"129 607 OFFCURVE",
"52 549 OFFCURVE",
"52 453 CURVE SMOOTH",
"52 373 OFFCURVE",
"112 318 OFFCURVE",
"174 287 CURVE"
);
}
);
width = 463;
},
{
anchors = (
{
name = bottom;
position = "{291, 0}";
},
{
name = bottomleft;
position = "{288, -125}";
},
{
name = bottomright;
position = "{269, 0}";
},
{
name = bottomround;
position = "{288, 72}";
},
{
name = top;
position = "{302, 592}";
},
{
name = topright;
position = "{256, 592}";
}
);
layerId = "419046E3-5D27-4998-A2CB-16719C068B75";
paths = (
{
closed = 1;
nodes = (
"385 -5 OFFCURVE",
"439 13 OFFCURVE",
"485 48 CURVE",
"416 144 LINE",
"359 111 OFFCURVE",
"307 94 OFFCURVE",
"248 94 CURVE SMOOTH",
"199 94 OFFCURVE",
"171 118 OFFCURVE",
"171 155 CURVE SMOOTH",
"171 221 OFFCURVE",
"265 248 OFFCURVE",
"378 258 CURVE",
"328 368 LINE",
"202 360 OFFCURVE",
"71 311 OFFCURVE",
"71 196 CURVE SMOOTH",
"71 148 OFFCURVE",
"94 105 OFFCURVE",
"133 68 CURVE SMOOTH",
"186 17 OFFCURVE",
"248 -5 OFFCURVE",
"317 -5 CURVE SMOOTH"
);
},
{
closed = 1;
nodes = (
"215 321 LINE",
"182 350 OFFCURVE",
"168 373 OFFCURVE",
"168 409 CURVE SMOOTH",
"168 465 OFFCURVE",
"219 491 OFFCURVE",
"274 491 CURVE SMOOTH",
"303 491 OFFCURVE",
"327 487 OFFCURVE",
"351 482 CURVE",
"333 595 LINE",
"306 601 OFFCURVE",
"277 604 OFFCURVE",
"245 604 CURVE SMOOTH",
"128 604 OFFCURVE",
"54 547 OFFCURVE",
"54 455 CURVE SMOOTH",
"54 378 OFFCURVE",
"112 321 OFFCURVE",
"171 292 CURVE"
);
}
);
width = 447;
}
);
leftKerningGroup = "GUJ_da-L";
rightKerningGroup = "GUJ_da-R";
unicode = 0AA6;
script = gujarati;
category = Letter;
subCategory = Other;
},
{
glyphname = "dha-gujarati";
layers = (
{
anchors = (
{
name = bottom;
position = "{444, 0}";
},
{
name = bottomleft;
position = "{209, 9}";
},
{
name = bottomright;
position = "{545, 0}";
},
{
name = top;
position = "{445, 603}";
},
{
name = topright;
position = "{445, 592}";
}
);
layerId = "ACBF538B-D069-4B9F-8DD8-08CC286AACA9";
paths = (
{
closed = 1;
nodes = (
"571 -5 OFFCURVE",
"596 12 OFFCURVE",
"612 25 CURVE",
"571 93 LINE",
"549 67 OFFCURVE",
"518 51 OFFCURVE",
"494 51 CURVE SMOOTH",
"488 51 OFFCURVE",
"485 53 OFFCURVE",
"485 61 CURVE SMOOTH",
"485 579 LINE",
"404 612 LINE",
"404 125 LINE SMOOTH",
"404 85 OFFCURVE",
"414 63 OFFCURVE",
"456 31 CURVE SMOOTH",
"485 9 OFFCURVE",
"508 -5 OFFCURVE",
"539 -5 CURVE SMOOTH"
);
},
{
closed = 1;
nodes = (
"328 111 OFFCURVE",
"374 130 OFFCURVE",
"412 162 CURVE",
"407 260 LINE",
"379 222 OFFCURVE",
"309 179 OFFCURVE",
"238 179 CURVE SMOOTH",
"185 179 OFFCURVE",
"152 207 OFFCURVE",
"152 244 CURVE SMOOTH",
"152 319 OFFCURVE",
"233 345 OFFCURVE",
"300 355 CURVE",
"271 430 LINE",
"175 419 OFFCURVE",
"87 374 OFFCURVE",
"87 279 CURVE SMOOTH",
"87 228 OFFCURVE",
"113 192 OFFCURVE",
"148 163 CURVE SMOOTH",
"187 130 OFFCURVE",
"221 111 OFFCURVE",
"274 111 CURVE SMOOTH"
);
},
{
closed = 1;
nodes = (
"191 399 LINE",
"156 419 OFFCURVE",
"136 448 OFFCURVE",
"136 483 CURVE SMOOTH",
"136 531 OFFCURVE",
"168 563 OFFCURVE",
"221 596 CURVE",
"168 665 LINE",
"101 626 OFFCURVE",
"58 580 OFFCURVE",
"58 514 CURVE SMOOTH",
"58 449 OFFCURVE",
"112 403 OFFCURVE",
"159 376 CURVE"
);
}
);
width = 570;
},
{
anchors = (
{
name = bottom;
position = "{453, 0}";
},
{
name = bottomleft;
position = "{208, 9}";
},
{
name = bottomright;
position = "{453, 0}";
},
{
name = top;
position = "{453, 592}";
},
{
name = topright;
position = "{453, 592}";
}
);
layerId = "07EDFDFD-5D57-4B5D-B56C-4C47BCD544BF";
paths = (
{
closed = 1;
nodes = (
"533 -5 OFFCURVE",
"558 13 OFFCURVE",
"582 35 CURVE",
"565 61 LINE",
"543 36 OFFCURVE",
"516 20 OFFCURVE",
"490 20 CURVE SMOOTH",
"476 20 OFFCURVE",
"466 26 OFFCURVE",
"466 42 CURVE SMOOTH",
"466 594 LINE",
"439 607 LINE",
"439 55 LINE SMOOTH",
"439 34 OFFCURVE",
"447 18 OFFCURVE",
"460 8 CURVE SMOOTH",
"470 0 OFFCURVE",
"483 -5 OFFCURVE",
"498 -5 CURVE SMOOTH"
);
},
{
closed = 1;
nodes = (
"335 110 OFFCURVE",
"392 134 OFFCURVE",
"442 183 CURVE",
"442 219 LINE",
"392 160 OFFCURVE",
"330 135 OFFCURVE",
"271 135 CURVE SMOOTH",
"192 135 OFFCURVE",
"123 182 OFFCURVE",
"123 257 CURVE SMOOTH",
"123 329 OFFCURVE",
"184 383 OFFCURVE",
"300 387 CURVE",
"291 412 LINE",
"167 406 OFFCURVE",
"96 338 OFFCURVE",
"96 259 CURVE SMOOTH",
"96 212 OFFCURVE",
"121 173 OFFCURVE",
"158 146 CURVE SMOOTH",
"189 123 OFFCURVE",
"231 110 OFFCURVE",
"271 110 CURVE SMOOTH"
);
},
{
closed = 1;
nodes = (
"190 383 LINE",
"138 407 OFFCURVE",
"89 459 OFFCURVE",
"89 516 CURVE SMOOTH",
"89 564 OFFCURVE",
"125 610 OFFCURVE",
"188 644 CURVE",
"171 665 LINE",
"101 627 OFFCURVE",
"62 574 OFFCURVE",
"62 516 CURVE SMOOTH",
"62 448 OFFCURVE",
"116 398 OFFCURVE",
"172 371 CURVE"
);
}
);
width = 544;
},
{
anchors = (
{
name = bottom;
position = "{476, 0}";
},
{
name = bottomleft;
position = "{203, 9}";
},
{
name = bottomright;
position = "{476, 0}";
},
{
name = top;
position = "{476, 612}";
},
{
name = topright;
position = "{476, 592}";
}
);
layerId = "939FCF6B-2DD7-48E5-8D7B-BBFD097386C5";
paths = (
{
closed = 1;
nodes = (
"651 -5 OFFCURVE",
"681 13 OFFCURVE",
"703 35 CURVE",
"641 154 LINE",
"613 120 OFFCURVE",
"583 100 OFFCURVE",
"561 100 CURVE SMOOTH",
"555 100 OFFCURVE",
"551 102 OFFCURVE",
"551 109 CURVE SMOOTH",
"551 579 LINE",
"400 612 LINE",
"400 167 LINE SMOOTH",
"400 109 OFFCURVE",
"436 76 OFFCURVE",
"479 46 CURVE SMOOTH",
"526 13 OFFCURVE",
"565 -5 OFFCURVE",
"610 -5 CURVE SMOOTH"
);
},
{
closed = 1;
nodes = (
"376 102 OFFCURVE",
"430 125 OFFCURVE",
"474 163 CURVE",
"420 318 LINE",
"390 269 OFFCURVE",
"313 213 OFFCURVE",
"236 213 CURVE SMOOTH",
"209 213 OFFCURVE",
"193 226 OFFCURVE",
"193 243 CURVE SMOOTH",
"193 281 OFFCURVE",
"248 305 OFFCURVE",
"343 319 CURVE",
"290 455 LINE",
"169 435 OFFCURVE",
"76 388 OFFCURVE",
"76 293 CURVE SMOOTH",
"76 243 OFFCURVE",
"105 195 OFFCURVE",
"150 159 CURVE SMOOTH",
"193 124 OFFCURVE",
"252 102 OFFCURVE",
"313 102 CURVE SMOOTH"
);
},
{
closed = 1;
nodes = (
"226 402 LINE",
"195 419 OFFCURVE",
"179 436 OFFCURVE",
"179 466 CURVE SMOOTH",
"179 508 OFFCURVE",
"213 538 OFFCURVE",
"274 571 CURVE",
"157 681 LINE",
"90 643 OFFCURVE",
"52 588 OFFCURVE",
"52 525 CURVE SMOOTH",
"52 446 OFFCURVE",
"108 396 OFFCURVE",
"179 364 CURVE"
);
}
);
width = 657;
},
{
anchors = (
{
name = bottom;
position = "{462, 0}";
},
{
name = bottomleft;
position = "{205, 9}";
},
{
name = bottomright;
position = "{462, 0}";
},
{
name = top;
position = "{462, 604}";
},
{
name = topright;
position = "{462, 592}";
}
);
layerId = "419046E3-5D27-4998-A2CB-16719C068B75";
paths = (
{
closed = 1;
nodes = (
"617 -5 OFFCURVE",
"645 13 OFFCURVE",
"664 31 CURVE",
"611 128 LINE",
"585 98 OFFCURVE",
"555 79 OFFCURVE",
"532 79 CURVE SMOOTH",
"526 79 OFFCURVE",
"523 82 OFFCURVE",
"523 89 CURVE SMOOTH",
"523 579 LINE",
"401 612 LINE",
"401 149 LINE SMOOTH",
"401 99 OFFCURVE",
"426 72 OFFCURVE",
"469 40 CURVE SMOOTH",
"508 11 OFFCURVE",
"541 -5 OFFCURVE",
"580 -5 CURVE SMOOTH"
);
},
{
closed = 1;
nodes = (
"355 106 OFFCURVE",
"406 127 OFFCURVE",
"447 162 CURVE",
"414 294 LINE",
"385 249 OFFCURVE",
"311 199 OFFCURVE",
"237 199 CURVE SMOOTH",
"198 199 OFFCURVE",
"175 218 OFFCURVE",
"175 243 CURVE SMOOTH",
"175 297 OFFCURVE",
"241 321 OFFCURVE",
"325 334 CURVE",
"281 444 LINE",
"171 428 OFFCURVE",
"80 382 OFFCURVE",
"80 287 CURVE SMOOTH",
"80 237 OFFCURVE",
"108 194 OFFCURVE",
"148 161 CURVE SMOOTH",
"190 127 OFFCURVE",
"239 106 OFFCURVE",
"297 106 CURVE SMOOTH"
);
},
{
closed = 1;
nodes = (
"210 401 LINE",
"179 419 OFFCURVE",
"160 441 OFFCURVE",
"160 473 CURVE SMOOTH",
"160 518 OFFCURVE",
"194 548 OFFCURVE",
"251 582 CURVE",
"161 674 LINE",
"94 636 OFFCURVE",
"54 584 OFFCURVE",
"54 521 CURVE SMOOTH",
"54 447 OFFCURVE",
"110 399 OFFCURVE",
"170 369 CURVE"
);
}
);
width = 620;
}
);
leftKerningGroup = "GUJ_dha-L";
rightKerningGroup = "GUJ_kana-R";
unicode = 0AA7;
script = gujarati;
category = Letter;
subCategory = Other;
},
{
glyphname = "na-gujarati";
layers = (
{
anchors = (
{
name = bottom;
position = "{403, 0}";
},
{
name = bottomleft;
position = "{175, 83}";
},
{
name = bottomright;
position = "{504, 0}";
},
{
name = top;
position = "{403, 592}";
},
{
name = topright;
position = "{403, 592}";
}
);
layerId = "ACBF538B-D069-4B9F-8DD8-08CC286AACA9";
paths = (
{
closed = 1;
nodes = (
"529 -5 OFFCURVE",
"554 12 OFFCURVE",
"571 25 CURVE",
"529 93 LINE",
"507 67 OFFCURVE",
"476 51 OFFCURVE",
"453 51 CURVE SMOOTH",
"447 51 OFFCURVE",
"443 53 OFFCURVE",
"443 61 CURVE SMOOTH",
"443 579 LINE",
"363 612 LINE",
"363 125 LINE SMOOTH",
"363 85 OFFCURVE",
"373 62 OFFCURVE",
"414 31 CURVE SMOOTH",
"444 8 OFFCURVE",
"467 -5 OFFCURVE",
"498 -5 CURVE SMOOTH"
);
},
{
closed = 1;
nodes = (
"175 209 OFFCURVE",
"187 227 OFFCURVE",
"187 258 CURVE SMOOTH",
"187 292 LINE SMOOTH",
"187 314 OFFCURVE",
"193 322 OFFCURVE",
"255 322 CURVE SMOOTH",
"371 322 LINE",
"371 367 LINE",
"333 376 OFFCURVE",
"236 399 OFFCURVE",
"122 399 CURVE SMOOTH",
"57 399 OFFCURVE",
"28 378 OFFCURVE",
"28 341 CURVE SMOOTH",
"28 275 OFFCURVE",
"98 209 OFFCURVE",
"147 209 CURVE SMOOTH"
);
}
);
width = 529;
},
{
anchors = (
{
name = bottom;
position = "{398, 0}";
},
{
name = bottomleft;
position = "{174, 93}";
},
{
name = bottomright;
position = "{398, 0}";
},
{
name = top;
position = "{396, 592}";
},
{
name = topright;
position = "{396, 592}";
}
);
layerId = "07EDFDFD-5D57-4B5D-B56C-4C47BCD544BF";
paths = (
{
closed = 1;
nodes = (
"477 -5 OFFCURVE",
"501 13 OFFCURVE",
"525 35 CURVE",
"509 61 LINE",
"487 36 OFFCURVE",
"459 20 OFFCURVE",
"434 20 CURVE SMOOTH",
"420 20 OFFCURVE",
"410 26 OFFCURVE",
"410 42 CURVE SMOOTH",
"410 594 LINE",
"383 607 LINE",
"383 55 LINE SMOOTH",
"383 34 OFFCURVE",
"391 18 OFFCURVE",
"404 8 CURVE SMOOTH",
"414 0 OFFCURVE",
"427 -5 OFFCURVE",
"442 -5 CURVE SMOOTH"
);
},
{
closed = 1;
nodes = (
"110 247 OFFCURVE",
"115 259 OFFCURVE",
"115 278 CURVE SMOOTH",
"115 292 LINE SMOOTH",
"115 319 OFFCURVE",
"126 328 OFFCURVE",
"165 328 CURVE SMOOTH",
"393 328 LINE",
"393 348 LINE",
"302 354 OFFCURVE",
"154 357 OFFCURVE",
"84 357 CURVE SMOOTH",
"51 357 OFFCURVE",
"32 346 OFFCURVE",
"32 323 CURVE SMOOTH",
"32 285 OFFCURVE",
"69 247 OFFCURVE",
"95 247 CURVE SMOOTH"
);
}
);
width = 489;
},
{
anchors = (
{
name = bottom;
position = "{448, 0}";
},
{
name = bottomleft;
position = "{205, 54}";
},
{
name = bottomright;
position = "{448, 0}";
},
{
name = top;
position = "{448, 592}";
},
{
name = topright;
position = "{448, 592}";
}
);
layerId = "939FCF6B-2DD7-48E5-8D7B-BBFD097386C5";
paths = (
{
closed = 1;
nodes = (
"623 -5 OFFCURVE",
"653 13 OFFCURVE",
"675 35 CURVE",
"613 154 LINE",
"585 120 OFFCURVE",
"555 100 OFFCURVE",
"533 100 CURVE SMOOTH",
"527 100 OFFCURVE",
"523 102 OFFCURVE",
"523 109 CURVE SMOOTH",
"523 579 LINE",
"372 612 LINE",
"372 167 LINE SMOOTH",
"372 109 OFFCURVE",
"408 76 OFFCURVE",
"451 46 CURVE SMOOTH",
"499 13 OFFCURVE",
"538 -5 OFFCURVE",
"583 -5 CURVE SMOOTH"
);
},
{
closed = 1;
nodes = (
"216 162 OFFCURVE",
"230 182 OFFCURVE",
"230 220 CURVE SMOOTH",
"230 263 LINE SMOOTH",
"230 300 OFFCURVE",
"249 309 OFFCURVE",
"298 309 CURVE SMOOTH",
"415 309 LINE",
"415 380 LINE",
"355 400 OFFCURVE",
"256 421 OFFCURVE",
"169 421 CURVE SMOOTH",
"76 421 OFFCURVE",
"22 387 OFFCURVE",
"22 327 CURVE SMOOTH",
"22 247 OFFCURVE",
"119 162 OFFCURVE",
"183 162 CURVE SMOOTH"
);
}
);
width = 629;
},
{
anchors = (
{
name = bottom;
position = "{429, 0}";
},
{
name = bottomleft;
position = "{192, 66}";
},
{
name = bottomright;
position = "{429, 0}";
},
{
name = top;
position = "{429, 592}";
},
{
name = topright;
position = "{429, 592}";
}
);
layerId = "419046E3-5D27-4998-A2CB-16719C068B75";
paths = (
{
closed = 1;
nodes = (
"583 -5 OFFCURVE",
"611 13 OFFCURVE",
"631 31 CURVE",
"578 128 LINE",
"552 98 OFFCURVE",
"521 79 OFFCURVE",
"499 79 CURVE SMOOTH",
"493 79 OFFCURVE",
"489 82 OFFCURVE",
"489 89 CURVE SMOOTH",
"489 579 LINE",
"368 612 LINE",
"368 149 LINE SMOOTH",
"368 99 OFFCURVE",
"393 71 OFFCURVE",
"435 40 CURVE SMOOTH",
"475 11 OFFCURVE",
"507 -5 OFFCURVE",
"546 -5 CURVE SMOOTH"
);
},
{
closed = 1;
nodes = (
"198 182 OFFCURVE",
"212 201 OFFCURVE",
"212 236 CURVE SMOOTH",
"212 275 LINE SMOOTH",
"212 306 OFFCURVE",
"225 314 OFFCURVE",
"280 314 CURVE SMOOTH",
"396 314 LINE",
"396 375 LINE",
"346 390 OFFCURVE",
"248 412 OFFCURVE",
"149 412 CURVE SMOOTH",
"67 412 OFFCURVE",
"24 383 OFFCURVE",
"24 333 CURVE SMOOTH",
"24 259 OFFCURVE",
"110 182 OFFCURVE",
"167 182 CURVE SMOOTH"
);
}
);
width = 587;
}
);
leftKerningGroup = "GUJ_na-L";
rightKerningGroup = "GUJ_kana-R";
unicode = 0AA8;
script = gujarati;
category = Letter;
subCategory = Other;
},
{
glyphname = "pa-gujarati";
layers = (
{
anchors = (
{
name = bottom;
position = "{417, 0}";
},
{
name = bottomleft;
position = "{209, 63}";
},
{
name = bottomright;
position = "{518, 0}";
},
{
name = top;
position = "{418, 592}";
},
{
name = topright;
position = "{418, 592}";
}
);
layerId = "ACBF538B-D069-4B9F-8DD8-08CC286AACA9";
paths = (
{
closed = 1;
nodes = (
"326 180 OFFCURVE",
"367 197 OFFCURVE",
"390 222 CURVE",
"393 320 LINE",
"357 272 OFFCURVE",
"308 247 OFFCURVE",
"252 247 CURVE SMOOTH",
"195 247 OFFCURVE",
"189 269 OFFCURVE",
"189 354 CURVE SMOOTH",
"189 456 LINE SMOOTH",
"189 499 OFFCURVE",
"182 513 OFFCURVE",
"142 557 CURVE SMOOTH",
"119 582 OFFCURVE",
"97 603 OFFCURVE",
"50 603 CURVE SMOOTH",
"18 603 OFFCURVE",
"-5 595 OFFCURVE",
"-18 589 CURVE",
"20 513 LINE",
"49 524 OFFCURVE",
"78 532 OFFCURVE",
"108 535 CURVE",
"108 390 LINE SMOOTH",
"108 315 OFFCURVE",
"118 292 OFFCURVE",
"162 244 CURVE SMOOTH",
"198 204 OFFCURVE",
"229 180 OFFCURVE",
"284 180 CURVE SMOOTH"
);
},
{
closed = 1;
nodes = (
"543 -5 OFFCURVE",
"568 12 OFFCURVE",
"585 25 CURVE",
"543 93 LINE",
"522 67 OFFCURVE",
"490 51 OFFCURVE",
"467 51 CURVE SMOOTH",
"461 51 OFFCURVE",
"458 53 OFFCURVE",
"458 61 CURVE SMOOTH",
"458 579 LINE",
"377 612 LINE",
"377 125 LINE SMOOTH",
"377 85 OFFCURVE",
"386 63 OFFCURVE",
"428 31 CURVE SMOOTH",
"457 9 OFFCURVE",
"481 -5 OFFCURVE",
"512 -5 CURVE SMOOTH"
);
}
);
width = 543;
},
{
anchors = (
{
name = bottom;
position = "{429, 0}";
},
{
name = bottomleft;
position = "{208, 63}";
},
{
name = bottomright;
position = "{429, 0}";
},
{
name = top;
position = "{427, 592}";
},
{
name = topright;
position = "{427, 592}";
}
);
layerId = "07EDFDFD-5D57-4B5D-B56C-4C47BCD544BF";
paths = (
{
closed = 1;
nodes = (
"348 199 OFFCURVE",
"390 230 OFFCURVE",
"425 271 CURVE",
"425 313 LINE",
"384 257 OFFCURVE",
"331 224 OFFCURVE",
"272 224 CURVE SMOOTH",
"207 224 OFFCURVE",
"158 264 OFFCURVE",
"158 334 CURVE SMOOTH",
"158 563 LINE SMOOTH",
"158 578 OFFCURVE",
"156 587 OFFCURVE",
"148 593 CURVE SMOOTH",
"139 600 OFFCURVE",
"130 603 OFFCURVE",
"112 603 CURVE SMOOTH",
"81 603 OFFCURVE",
"44 596 OFFCURVE",
"20 589 CURVE",
"32 562 LINE",
"65 573 OFFCURVE",
"97 581 OFFCURVE",
"130 584 CURVE",
"130 336 LINE SMOOTH",
"130 298 OFFCURVE",
"144 265 OFFCURVE",
"172 238 CURVE SMOOTH",
"201 211 OFFCURVE",
"236 199 OFFCURVE",
"273 199 CURVE SMOOTH"
);
},
{
closed = 1;
nodes = (
"508 -5 OFFCURVE",
"532 13 OFFCURVE",
"556 35 CURVE",
"540 61 LINE",
"518 36 OFFCURVE",
"490 20 OFFCURVE",
"464 20 CURVE SMOOTH",
"451 20 OFFCURVE",
"441 26 OFFCURVE",
"441 42 CURVE SMOOTH",
"441 594 LINE",
"414 607 LINE",
"414 55 LINE SMOOTH",
"414 34 OFFCURVE",
"422 18 OFFCURVE",
"435 8 CURVE SMOOTH",
"445 0 OFFCURVE",
"458 -5 OFFCURVE",
"473 -5 CURVE SMOOTH"
);
}
);
width = 520;
},
{
anchors = (
{
name = bottom;
position = "{469, 0}";
},
{
name = bottomleft;
position = "{297, 63}";
},
{
name = bottomright;
position = "{469, 0}";
},
{
name = top;
position = "{469, 592}";
},
{
name = topright;
position = "{469, 592}";
}
);
layerId = "939FCF6B-2DD7-48E5-8D7B-BBFD097386C5";
paths = (
{
closed = 1;
nodes = (
"388 150 OFFCURVE",
"423 160 OFFCURVE",
"441 173 CURVE",
"441 379 LINE",
"398 312 OFFCURVE",
"344 272 OFFCURVE",
"297 272 CURVE SMOOTH",
"277 272 OFFCURVE",
"269 281 OFFCURVE",
"269 303 CURVE SMOOTH",
"269 399 LINE SMOOTH",
"269 452 OFFCURVE",
"242 505 OFFCURVE",
"202 544 CURVE SMOOTH",
"165 580 OFFCURVE",
"118 603 OFFCURVE",
"68 603 CURVE SMOOTH",
"23 603 OFFCURVE",
"-10 592 OFFCURVE",
"-34 580 CURVE",
"27 446 LINE",
"53 461 OFFCURVE",
"87 472 OFFCURVE",
"117 476 CURVE",
"117 380 LINE SMOOTH",
"117 312 OFFCURVE",
"158 264 OFFCURVE",
"209 219 CURVE SMOOTH",
"254 179 OFFCURVE",
"308 150 OFFCURVE",
"354 150 CURVE SMOOTH"
);
},
{
closed = 1;
nodes = (
"645 -5 OFFCURVE",
"675 13 OFFCURVE",
"696 35 CURVE",
"635 154 LINE",
"606 120 OFFCURVE",
"576 100 OFFCURVE",
"554 100 CURVE SMOOTH",
"548 100 OFFCURVE",
"545 102 OFFCURVE",
"545 109 CURVE SMOOTH",
"545 579 LINE",
"394 612 LINE",
"394 167 LINE SMOOTH",
"394 109 OFFCURVE",
"429 76 OFFCURVE",
"473 46 CURVE SMOOTH",
"520 14 OFFCURVE",
"559 -5 OFFCURVE",
"604 -5 CURVE SMOOTH"
);
}
);
width = 650;
},
{
anchors = (
{
name = bottom;
position = "{447, 0}";
},
{
name = bottomleft;
position = "{260, 63}";
},
{
name = bottomright;
position = "{447, 0}";
},
{
name = top;
position = "{447, 592}";
},
{
name = topright;
position = "{447, 592}";
}
);
layerId = "419046E3-5D27-4998-A2CB-16719C068B75";
paths = (
{
closed = 1;
nodes = (
"361 163 OFFCURVE",
"399 175 OFFCURVE",
"419 193 CURVE",
"421 354 LINE",
"381 295 OFFCURVE",
"328 262 OFFCURVE",
"278 262 CURVE SMOOTH",
"242 262 OFFCURVE",
"235 276 OFFCURVE",
"235 325 CURVE SMOOTH",
"235 423 LINE SMOOTH",
"235 472 OFFCURVE",
"217 509 OFFCURVE",
"176 550 CURVE SMOOTH",
"145 581 OFFCURVE",
"108 603 OFFCURVE",
"61 603 CURVE SMOOTH",
"21 603 OFFCURVE",
"-8 593 OFFCURVE",
"-28 583 CURVE",
"23 474 LINE",
"51 487 OFFCURVE",
"83 497 OFFCURVE",
"113 500 CURVE",
"113 384 LINE SMOOTH",
"113 313 OFFCURVE",
"141 276 OFFCURVE",
"189 229 CURVE SMOOTH",
"229 190 OFFCURVE",
"274 163 OFFCURVE",
"324 163 CURVE SMOOTH"
);
},
{
closed = 1;
nodes = (
"602 -5 OFFCURVE",
"630 13 OFFCURVE",
"649 31 CURVE",
"596 128 LINE",
"570 98 OFFCURVE",
"540 79 OFFCURVE",
"517 79 CURVE SMOOTH",
"511 79 OFFCURVE",
"508 82 OFFCURVE",
"508 89 CURVE SMOOTH",
"508 579 LINE",
"386 612 LINE",
"386 149 LINE SMOOTH",
"386 99 OFFCURVE",
"411 71 OFFCURVE",
"454 40 CURVE SMOOTH",
"494 11 OFFCURVE",
"526 -5 OFFCURVE",
"565 -5 CURVE SMOOTH"
);
}
);
width = 605;
}
);
leftKerningGroup = "GUJ_pa-L";
rightKerningGroup = "GUJ_kana-R";
unicode = 0AAA;
script = gujarati;
category = Letter;
subCategory = Other;
},
{
glyphname = "pha-gujarati";
layers = (
{
anchors = (
{
name = bottom;
position = "{257, -107}";
},
{
name = bottomleft;
position = "{257, -232}";
},
{
name = bottomright;
position = "{345, -51}";
},
{
name = top;
position = "{322, 592}";
},
{
name = topright;
position = "{285, 592}";
}
);
layerId = "ACBF538B-D069-4B9F-8DD8-08CC286AACA9";
paths = (
{
closed = 1;
nodes = (
"372 -6 OFFCURVE",
"435 48 OFFCURVE",
"435 129 CURVE SMOOTH",
"435 223 OFFCURVE",
"347 271 OFFCURVE",
"295 285 CURVE",
"237 281 LINE",
"292 260 OFFCURVE",
"347 207 OFFCURVE",
"347 148 CURVE SMOOTH",
"347 94 OFFCURVE",
"308 54 OFFCURVE",
"230 54 CURVE SMOOTH",
"210 54 OFFCURVE",
"192 57 OFFCURVE",
"176 61 CURVE",
"173 58 LINE",
"236 41 LINE",
"224 85 OFFCURVE",
"187 144 OFFCURVE",
"135 144 CURVE SMOOTH",
"109 144 OFFCURVE",
"84 127 OFFCURVE",
"84 95 CURVE SMOOTH",
"84 32 OFFCURVE",
"178 -6 OFFCURVE",
"266 -6 CURVE SMOOTH"
);
},
{
closed = 1;
nodes = (
"459 -62 LINE",
"448 -63 OFFCURVE",
"433 -64 OFFCURVE",
"418 -64 CURVE SMOOTH",
"333 -64 OFFCURVE",
"278 -46 OFFCURVE",
"235 21 CURVE",
"200 6 LINE",
"236 -82 OFFCURVE",
"319 -150 OFFCURVE",
"428 -150 CURVE"
);
},
{
closed = 1;
nodes = (
"296 272 LINE",
"470 313 LINE",
"427 384 LINE",
"223 331 LINE",
"68 295 LINE",
"112 223 LINE"
);
},
{
closed = 1;
nodes = (
"275 317 LINE",
"229 347 OFFCURVE",
"187 386 OFFCURVE",
"187 438 CURVE SMOOTH",
"187 498 OFFCURVE",
"239 525 OFFCURVE",
"314 525 CURVE SMOOTH",
"334 525 OFFCURVE",
"354 523 OFFCURVE",
"370 521 CURVE",
"352 598 LINE",
"333 601 OFFCURVE",
"311 603 OFFCURVE",
"291 603 CURVE SMOOTH",
"187 603 OFFCURVE",
"107 554 OFFCURVE",
"107 464 CURVE SMOOTH",
"107 393 OFFCURVE",
"164 340 OFFCURVE",
"221 314 CURVE"
);
}
);
width = 490;
},
{
anchors = (
{
name = bottom;
position = "{301, -117}";
},
{
name = bottomleft;
position = "{301, -242}";
},
{
name = bottomright;
position = "{360, -91}";
},
{
name = top;
position = "{334, 592}";
},
{
name = topright;
position = "{276, 592}";
}
);
layerId = "07EDFDFD-5D57-4B5D-B56C-4C47BCD544BF";
paths = (
{
closed = 1;
nodes = (
"386 -6 OFFCURVE",
"449 56 OFFCURVE",
"449 128 CURVE SMOOTH",
"449 212 OFFCURVE",
"373 270 OFFCURVE",
"282 308 CURVE",
"256 298 LINE",
"355 257 OFFCURVE",
"422 208 OFFCURVE",
"422 130 CURVE SMOOTH",
"422 67 OFFCURVE",
"376 19 OFFCURVE",
"282 19 CURVE SMOOTH",
"248 19 OFFCURVE",
"225 22 OFFCURVE",
"187 34 CURVE",
"185 31 LINE",
"209 14 LINE",
"193 60 OFFCURVE",
"172 118 OFFCURVE",
"129 118 CURVE SMOOTH",
"108 118 OFFCURVE",
"94 104 OFFCURVE",
"94 84 CURVE SMOOTH",
"94 28 OFFCURVE",
"208 -6 OFFCURVE",
"283 -6 CURVE SMOOTH"
);
},
{
closed = 1;
nodes = (
"422 -118 LINE",
"419 -118 OFFCURVE",
"415 -118 OFFCURVE",
"412 -118 CURVE SMOOTH",
"306 -118 OFFCURVE",
"234 -67 OFFCURVE",
"208 9 CURVE",
"180 21 LINE",
"215 -81 OFFCURVE",
"306 -145 OFFCURVE",
"411 -145 CURVE"
);
},
{
closed = 1;
nodes = (
"280 296 LINE",
"470 343 LINE",
"457 367 LINE",
"258 318 LINE",
"78 273 LINE",
"93 249 LINE"
);
},
{
closed = 1;
nodes = (
"285 315 LINE",
"225 347 OFFCURVE",
"148 390 OFFCURVE",
"148 464 CURVE SMOOTH",
"148 539 OFFCURVE",
"214 578 OFFCURVE",
"303 578 CURVE SMOOTH",
"328 578 OFFCURVE",
"352 576 OFFCURVE",
"373 573 CURVE",
"367 598 LINE",
"348 601 OFFCURVE",
"323 603 OFFCURVE",
"302 603 CURVE SMOOTH",
"196 603 OFFCURVE",
"121 548 OFFCURVE",
"121 466 CURVE SMOOTH",
"121 386 OFFCURVE",
"201 337 OFFCURVE",
"258 307 CURVE"
);
}
);
width = 494;
},
{
anchors = (
{
name = bottom;
position = "{286, -146}";
},
{
name = bottomleft;
position = "{286, -271}";
},
{
name = bottomright;
position = "{376, -67}";
},
{
name = top;
position = "{365, 592}";
},
{
name = topright;
position = "{307, 592}";
}
);
layerId = "939FCF6B-2DD7-48E5-8D7B-BBFD097386C5";
paths = (
{
closed = 1;
nodes = (
"443 -7 OFFCURVE",
"508 46 OFFCURVE",
"508 126 CURVE SMOOTH",
"508 217 OFFCURVE",
"416 265 OFFCURVE",
"343 282 CURVE",
"298 267 LINE",
"328 253 OFFCURVE",
"356 219 OFFCURVE",
"356 182 CURVE SMOOTH",
"356 137 OFFCURVE",
"324 104 OFFCURVE",
"262 104 CURVE SMOOTH",
"245 104 OFFCURVE",
"231 108 OFFCURVE",
"210 116 CURVE",
"207 58 LINE",
"271 89 LINE",
"257 126 OFFCURVE",
"223 176 OFFCURVE",
"161 176 CURVE SMOOTH",
"126 176 OFFCURVE",
"90 153 OFFCURVE",
"90 109 CURVE SMOOTH",
"90 37 OFFCURVE",
"188 -7 OFFCURVE",
"333 -7 CURVE SMOOTH"
);
},
{
closed = 1;
nodes = (
"527 -62 LINE",
"515 -63 OFFCURVE",
"498 -64 OFFCURVE",
"481 -64 CURVE SMOOTH",
"392 -64 OFFCURVE",
"317 -44 OFFCURVE",
"279 31 CURVE",
"210 31 LINE",
"252 -103 OFFCURVE",
"339 -192 OFFCURVE",
"496 -199 CURVE"
);
},
{
closed = 1;
nodes = (
"350 252 LINE",
"541 282 LINE",
"480 405 LINE",
"271 368 LINE",
"74 337 LINE",
"135 214 LINE"
);
},
{
closed = 1;
nodes = (
"329 328 LINE",
"291 347 OFFCURVE",
"263 367 OFFCURVE",
"263 403 CURVE SMOOTH",
"263 446 OFFCURVE",
"300 471 OFFCURVE",
"360 471 CURVE SMOOTH",
"391 471 OFFCURVE",
"417 468 OFFCURVE",
"439 464 CURVE",
"410 600 LINE",
"385 604 OFFCURVE",
"358 607 OFFCURVE",
"322 607 CURVE SMOOTH",
"209 607 OFFCURVE",
"131 555 OFFCURVE",
"131 466 CURVE SMOOTH",
"131 389 OFFCURVE",
"201 338 OFFCURVE",
"272 313 CURVE"
);
}
);
width = 555;
},
{
anchors = (
{
name = bottom;
position = "{276, -125}";
},
{
name = bottomleft;
position = "{273, -249}";
},
{
name = bottomright;
position = "{367, -61}";
},
{
name = top;
position = "{348, 592}";
},
{
name = topright;
position = "{295, 592}";
}
);
layerId = "419046E3-5D27-4998-A2CB-16719C068B75";
paths = (
{
closed = 1;
nodes = (
"413 -6 OFFCURVE",
"477 47 OFFCURVE",
"477 127 CURVE SMOOTH",
"477 220 OFFCURVE",
"387 267 OFFCURVE",
"323 283 CURVE",
"272 273 LINE",
"313 256 OFFCURVE",
"352 214 OFFCURVE",
"352 167 CURVE SMOOTH",
"352 119 OFFCURVE",
"317 83 OFFCURVE",
"249 83 CURVE SMOOTH",
"230 83 OFFCURVE",
"215 88 OFFCURVE",
"196 93 CURVE",
"192 58 LINE",
"256 69 LINE",
"243 109 OFFCURVE",
"208 163 OFFCURVE",
"150 163 CURVE SMOOTH",
"119 163 OFFCURVE",
"87 142 OFFCURVE",
"87 103 CURVE SMOOTH",
"87 35 OFFCURVE",
"183 -6 OFFCURVE",
"305 -6 CURVE SMOOTH"
);
},
{
closed = 1;
nodes = (
"499 -62 LINE",
"486 -63 OFFCURVE",
"471 -64 OFFCURVE",
"455 -64 CURVE SMOOTH",
"367 -64 OFFCURVE",
"300 -45 OFFCURVE",
"261 27 CURVE",
"206 21 LINE",
"246 -94 OFFCURVE",
"331 -175 OFFCURVE",
"467 -179 CURVE"
);
},
{
closed = 1;
nodes = (
"328 260 LINE",
"511 295 LINE",
"458 396 LINE",
"250 352 LINE",
"72 319 LINE",
"125 218 LINE"
);
},
{
closed = 1;
nodes = (
"306 324 LINE",
"265 347 OFFCURVE",
"231 375 OFFCURVE",
"231 417 CURVE SMOOTH",
"231 468 OFFCURVE",
"274 494 OFFCURVE",
"341 494 CURVE SMOOTH",
"367 494 OFFCURVE",
"391 491 OFFCURVE",
"410 488 CURVE",
"386 599 LINE",
"363 603 OFFCURVE",
"338 605 OFFCURVE",
"309 605 CURVE SMOOTH",
"200 605 OFFCURVE",
"121 555 OFFCURVE",
"121 465 CURVE SMOOTH",
"121 391 OFFCURVE",
"186 339 OFFCURVE",
"250 313 CURVE"
);
}
);
width = 527;
}
);
leftKerningGroup = "GUJ_ka-L";
unicode = 0AAB;
script = gujarati;
category = Letter;
subCategory = Other;
},
